<svg xmlns="http://www.w3.org/2000/svg" xmlns:xlink="http://www.w3.org/1999/xlink" width="1024" zoomAndPan="magnify" viewBox="0 0 768 767.999994" height="1024" preserveAspectRatio="xMidYMid meet" version="1.0"><defs><clipPath id="b8bef8118e"><path d="M 0 13 L 767 13 L 767 755.066406 L 0 755.066406 Z M 0 13 " clip-rule="nonzero"/></clipPath></defs><g clip-path="url(#b8bef8118e)"><path fill="#155dfb" d="M 712.640625 240.601562 L 700.523438 240.601562 L 700.523438 36.582031 C 700.523438 28.859375 696.609375 21.667969 690.136719 17.464844 C 683.667969 13.253906 675.484375 12.632812 668.445312 15.773438 L 578.171875 56.085938 C 509.898438 86.570312 441.519531 107.996094 374.949219 119.765625 L 382.882812 164.640625 C 453.125 152.226562 525.082031 129.707031 596.753906 97.699219 L 654.949219 71.714844 L 654.949219 495.105469 L 596.753906 469.121094 L 596.628906 469.066406 C 593.160156 467.519531 590.925781 464.074219 590.925781 460.277344 L 590.925781 283.410156 L 545.351562 283.410156 L 545.351562 401.9375 C 545.351562 424.074219 523.691406 439.621094 502.664062 432.707031 C 441.660156 412.648438 380.898438 399.546875 323.097656 394.101562 L 323.097656 134.503906 C 323.097656 121.917969 312.894531 111.714844 300.308594 111.714844 L 156.726562 111.714844 C 70.539062 111.71875 0.671875 181.582031 0.671875 267.765625 L 0.671875 299.050781 C 0.671875 372.566406 51.785156 434.332031 120.328125 450.777344 L 163.683594 701.152344 C 169.152344 732.605469 196.316406 755.429688 228.269531 755.429688 L 282.25 755.429688 C 301.660156 755.429688 319.960938 746.945312 332.449219 732.160156 C 344.933594 717.371094 350.230469 697.914062 346.964844 678.699219 L 315.441406 497.503906 L 270.542969 505.3125 L 302.050781 686.421875 C 303.414062 694.457031 299.863281 700.101562 297.628906 702.75 C 295.386719 705.402344 290.414062 709.855469 282.25 709.855469 L 228.269531 709.855469 C 218.527344 709.855469 210.246094 702.914062 208.585938 693.359375 L 167.332031 455.105469 L 300.304688 455.105469 C 310.28125 455.105469 318.738281 448.683594 321.828125 439.757812 C 403.660156 447.84375 492.003906 472.253906 578.175781 510.738281 L 668.445312 551.046875 C 671.417969 552.371094 674.582031 553.023438 677.734375 553.023438 C 684.324219 553.023438 690.875 550.171875 695.453125 544.578125 C 698.871094 540.402344 700.523438 535.046875 700.523438 529.652344 L 700.523438 347.667969 C 700.523438 347.667969 711.351562 347.667969 711.351562 347.667969 C 740.394531 347.667969 765.136719 325.105469 766.203125 296.085938 C 767.320312 265.632812 742.976562 240.601562 712.640625 240.601562 Z M 277.515625 409.53125 L 156.722656 409.53125 C 95.808594 409.53125 46.25 359.96875 46.25 299.050781 L 46.25 267.773438 C 46.25 206.851562 95.8125 157.292969 156.722656 157.292969 L 277.515625 157.292969 Z M 277.515625 409.53125 " fill-opacity="1" fill-rule="nonzero"/></g></svg>