<svg xmlns="http://www.w3.org/2000/svg" xmlns:xlink="http://www.w3.org/1999/xlink" width="1024" zoomAndPan="magnify" viewBox="0 0 768 767.999994" height="1024" preserveAspectRatio="xMidYMid meet" version="1.0"><path fill="#dcf0f9" d="M 383.984375 768 C 503.859375 768 601.035156 670.820312 601.035156 550.949219 C 601.035156 431.074219 503.859375 333.898438 383.984375 333.898438 C 264.109375 333.898438 166.933594 431.074219 166.933594 550.949219 C 166.933594 670.820312 264.109375 768 383.984375 768 Z M 383.984375 768 " fill-opacity="1" fill-rule="nonzero"/><path fill="#ffffff" d="M 33.363281 288.460938 C 33.363281 217.261719 92.1875 159.546875 164.746094 159.546875 C 179.058594 159.546875 192.847656 161.792969 205.746094 165.945312 C 228.761719 80.035156 308.453125 16.667969 403.230469 16.667969 C 515.136719 16.667969 606.015625 105.011719 607.394531 214.503906 C 614.671875 212.929688 622.246094 212.097656 630.007812 212.097656 C 687.777344 212.097656 734.605469 258.050781 734.605469 314.738281 C 734.605469 371.425781 687.777344 417.378906 630.007812 417.378906 L 164.746094 417.378906 C 116.484375 417.378906 74.296875 391.84375 51.457031 353.789062 C 39.960938 334.632812 33.363281 312.300781 33.363281 288.460938 Z M 33.363281 288.460938 " fill-opacity="1" fill-rule="nonzero"/><path fill="#ffffff" d="M 450.769531 684.519531 C 450.769531 721.402344 420.871094 751.304688 383.984375 751.304688 C 347.101562 751.304688 317.199219 721.402344 317.199219 684.519531 C 317.199219 647.636719 347.101562 617.734375 383.984375 617.734375 C 420.871094 617.734375 450.769531 647.636719 450.769531 684.519531 Z M 450.769531 684.519531 " fill-opacity="1" fill-rule="nonzero"/><path fill="#155dfb" d="M 434.074219 684.515625 C 434.074219 656.855469 411.648438 634.429688 383.984375 634.429688 C 356.320312 634.429688 333.894531 656.855469 333.894531 684.515625 C 333.894531 712.179688 356.320312 734.605469 383.984375 734.605469 C 411.648438 734.605469 434.074219 712.179688 434.074219 684.515625 Z M 467.464844 684.515625 C 467.464844 730.621094 430.089844 767.996094 383.984375 767.996094 C 337.878906 767.996094 300.503906 730.621094 300.503906 684.515625 C 300.503906 638.410156 337.878906 601.035156 383.984375 601.035156 C 430.089844 601.035156 467.464844 638.410156 467.464844 684.515625 Z M 467.464844 684.515625 " fill-opacity="1" fill-rule="nonzero"/><path fill="#ffffff" d="M 150.238281 550.949219 C 150.238281 587.832031 120.335938 617.734375 83.453125 617.734375 C 46.570312 617.734375 16.667969 587.832031 16.667969 550.949219 C 16.667969 514.0625 46.570312 484.164062 83.453125 484.164062 C 120.335938 484.164062 150.238281 514.0625 150.238281 550.949219 Z M 150.238281 550.949219 " fill-opacity="1" fill-rule="nonzero"/><path fill="#ffffff" d="M 751.300781 550.949219 C 751.300781 587.832031 721.402344 617.734375 684.515625 617.734375 C 647.632812 617.734375 617.730469 587.832031 617.730469 550.949219 C 617.730469 514.0625 647.632812 484.164062 684.515625 484.164062 C 721.402344 484.164062 751.300781 514.0625 751.300781 550.949219 Z M 751.300781 550.949219 " fill-opacity="1" fill-rule="nonzero"/><path fill="#155dfb" d="M 367.289062 617.730469 L 367.289062 417.375 C 367.289062 408.15625 374.761719 400.679688 383.984375 400.679688 C 393.207031 400.679688 400.679688 408.15625 400.679688 417.375 L 400.679688 617.730469 C 400.679688 626.953125 393.207031 634.429688 383.984375 634.429688 C 374.761719 634.429688 367.289062 626.953125 367.289062 617.730469 Z M 367.289062 617.730469 " fill-opacity="1" fill-rule="nonzero"/><path fill="#155dfb" d="M 400.679688 233.71875 L 450.769531 233.71875 L 367.289062 350.59375 L 367.289062 267.109375 L 317.199219 267.109375 L 400.679688 150.238281 Z M 400.679688 233.71875 " fill-opacity="1" fill-rule="nonzero"/><path fill="#155dfb" d="M 267.109375 400.679688 C 276.332031 400.679688 283.808594 408.15625 283.808594 417.375 L 283.808594 500.859375 C 283.808594 537.742188 253.90625 567.644531 217.023438 567.644531 L 165.253906 567.644531 C 157.519531 605.746094 123.839844 634.429688 83.453125 634.429688 C 37.347656 634.429688 -0.0273438 597.050781 -0.0273438 550.945312 C -0.0273438 504.839844 37.347656 467.464844 83.453125 467.464844 C 123.839844 467.464844 157.519531 496.148438 165.253906 534.25 L 217.023438 534.25 C 235.464844 534.25 250.414062 519.300781 250.414062 500.859375 L 250.414062 417.375 C 250.414062 408.15625 257.890625 400.679688 267.109375 400.679688 Z M 83.453125 500.859375 C 55.789062 500.859375 33.363281 523.285156 33.363281 550.945312 C 33.363281 578.609375 55.789062 601.035156 83.453125 601.035156 C 111.117188 601.035156 133.542969 578.609375 133.542969 550.945312 C 133.542969 523.285156 111.117188 500.859375 83.453125 500.859375 Z M 83.453125 500.859375 " fill-opacity="1" fill-rule="evenodd"/><path fill="#155dfb" d="M 500.855469 400.679688 C 510.078125 400.679688 517.554688 408.15625 517.554688 417.375 L 517.554688 500.859375 C 517.554688 519.300781 532.503906 534.25 550.945312 534.25 L 602.714844 534.25 C 610.449219 496.148438 644.128906 467.464844 684.515625 467.464844 C 730.621094 467.464844 767.996094 504.839844 767.996094 550.945312 C 767.996094 597.050781 730.621094 634.429688 684.515625 634.429688 C 644.128906 634.429688 610.449219 605.746094 602.714844 567.644531 L 550.945312 567.644531 C 514.0625 567.644531 484.160156 537.742188 484.160156 500.859375 L 484.160156 417.375 C 484.160156 408.15625 491.636719 400.679688 500.855469 400.679688 Z M 684.515625 500.859375 C 656.851562 500.859375 634.425781 523.285156 634.425781 550.945312 C 634.425781 578.609375 656.851562 601.035156 684.515625 601.035156 C 712.179688 601.035156 734.605469 578.609375 734.605469 550.945312 C 734.605469 523.285156 712.179688 500.859375 684.515625 500.859375 Z M 684.515625 500.859375 " fill-opacity="1" fill-rule="evenodd"/><path fill="#155dfb" d="M 16.667969 288.453125 C 16.671875 207.738281 83.269531 142.851562 164.75 142.851562 C 174.9375 142.851562 184.902344 143.867188 194.539062 145.800781 C 224.578125 60.769531 306.78125 -0.0273438 403.226562 -0.0273438 C 517.589844 -0.0273438 612.050781 85.542969 623.015625 195.597656 C 625.332031 195.46875 627.664062 195.402344 630.011719 195.402344 C 696.699219 195.402344 751.300781 248.535156 751.300781 314.738281 C 751.300781 380.9375 696.699219 434.074219 630.011719 434.074219 L 164.75 434.074219 C 112.179688 434.074219 65.910156 407.105469 39.625 366.359375 L 37.148438 362.382812 C 24.144531 340.714844 16.667969 315.417969 16.667969 288.453125 Z M 50.058594 288.453125 C 50.058594 309.167969 55.789062 328.550781 65.777344 345.195312 L 69.691406 351.277344 C 90.28125 381.046875 125.125 400.679688 164.75 400.679688 L 630.011719 400.679688 C 678.855469 400.679688 717.910156 361.90625 717.910156 314.738281 C 717.910156 267.566406 678.855469 228.796875 630.011719 228.792969 C 623.4375 228.792969 617.039062 229.492188 610.917969 230.816406 L 590.960938 235.136719 L 590.699219 214.707031 C 589.4375 114.636719 506.273438 33.363281 403.226562 33.363281 C 316.003906 33.367188 242.941406 91.65625 221.882812 170.261719 L 217.332031 187.21875 L 200.636719 181.835938 C 189.375 178.210938 177.308594 176.242188 164.75 176.242188 C 101.113281 176.242188 50.0625 226.777344 50.058594 288.453125 Z M 50.058594 288.453125 " fill-opacity="1" fill-rule="nonzero"/></svg>