<svg xmlns="http://www.w3.org/2000/svg" xmlns:xlink="http://www.w3.org/1999/xlink" width="1024" zoomAndPan="magnify" viewBox="0 0 768 767.999994" height="1024" preserveAspectRatio="xMidYMid meet" version="1.0"><path fill="#155dfb" d="M 512.769531 697.441406 C 510.957031 697.433594 509.214844 697.078125 507.542969 696.371094 C 505.875 695.667969 504.402344 694.664062 503.136719 693.371094 L 368.9375 559.039062 C 368.3125 558.410156 367.753906 557.726562 367.261719 556.984375 C 366.769531 556.246094 366.355469 555.46875 366.019531 554.648438 C 365.679688 553.828125 365.425781 552.980469 365.25 552.109375 C 365.078125 551.238281 364.992188 550.359375 364.992188 549.472656 C 364.992188 548.585938 365.078125 547.707031 365.25 546.835938 C 365.425781 545.964844 365.679688 545.121094 366.019531 544.300781 C 366.355469 543.476562 366.769531 542.699219 367.261719 541.960938 C 367.753906 541.21875 368.3125 540.535156 368.9375 539.90625 L 560.804688 348.042969 C 561.433594 347.417969 562.117188 346.859375 562.855469 346.367188 C 563.59375 345.875 564.375 345.460938 565.195312 345.121094 C 566.015625 344.785156 566.859375 344.527344 567.730469 344.355469 C 568.601562 344.183594 569.480469 344.097656 570.367188 344.097656 C 571.257812 344.097656 572.136719 344.183594 573.007812 344.355469 C 573.875 344.527344 574.722656 344.785156 575.542969 345.121094 C 576.363281 345.460938 577.144531 345.875 577.882812 346.367188 C 578.621094 346.859375 579.304688 347.417969 579.933594 348.042969 L 714.265625 482.375 C 715.519531 483.636719 716.488281 485.09375 717.167969 486.738281 C 717.851562 488.382812 718.195312 490.09375 718.203125 491.871094 C 718.210938 493.675781 717.875 495.414062 717.195312 497.082031 C 716.511719 498.75 715.535156 500.226562 714.265625 501.507812 L 522.402344 693.371094 C 521.132812 694.664062 519.664062 695.667969 517.992188 696.371094 C 516.324219 697.078125 514.582031 697.433594 512.769531 697.441406 Z M 397.703125 549.539062 L 512.769531 664.605469 L 685.5 491.871094 L 569.894531 376.808594 Z M 397.703125 549.539062 " fill-opacity="1" fill-rule="nonzero"/><path fill="#155dfb" d="M 308.964844 766.914062 C 308.425781 766.914062 307.890625 766.878906 307.355469 766.8125 C 306.820312 766.746094 306.289062 766.648438 305.769531 766.519531 C 305.246094 766.390625 304.730469 766.230469 304.226562 766.039062 C 303.722656 765.851562 303.234375 765.632812 302.753906 765.382812 C 302.277344 765.132812 301.816406 764.859375 301.371094 764.554688 C 300.925781 764.25 300.5 763.921875 300.09375 763.566406 C 299.6875 763.214844 299.304688 762.835938 298.945312 762.4375 C 298.582031 762.035156 298.25 761.617188 297.9375 761.175781 C 297.625 760.738281 297.34375 760.28125 297.085938 759.808594 C 296.828125 759.332031 296.601562 758.847656 296.402344 758.34375 C 296.207031 757.84375 296.039062 757.332031 295.898438 756.8125 C 295.761719 756.292969 295.65625 755.765625 295.582031 755.230469 C 295.507812 754.699219 295.464844 754.164062 295.453125 753.625 C 295.441406 753.085938 295.460938 752.546875 295.515625 752.011719 C 295.566406 751.476562 295.652344 750.945312 295.769531 750.417969 C 295.882812 749.894531 296.03125 749.375 296.210938 748.867188 L 365.683594 545.335938 C 365.871094 544.792969 366.089844 544.269531 366.34375 543.757812 C 366.597656 543.246094 366.886719 542.75 367.203125 542.273438 C 367.519531 541.800781 367.863281 541.34375 368.238281 540.914062 C 368.613281 540.480469 369.011719 540.074219 369.4375 539.691406 C 369.863281 539.3125 370.308594 538.957031 370.78125 538.632812 C 371.25 538.308594 371.738281 538.011719 372.246094 537.75 C 372.753906 537.488281 373.277344 537.257812 373.8125 537.058594 C 374.347656 536.863281 374.894531 536.699219 375.453125 536.570312 C 376.007812 536.441406 376.570312 536.351562 377.140625 536.292969 C 377.707031 536.234375 378.277344 536.214844 378.851562 536.230469 C 379.421875 536.246094 379.988281 536.296875 380.554688 536.382812 C 381.121094 536.46875 381.675781 536.589844 382.226562 536.746094 C 382.777344 536.90625 383.3125 537.09375 383.839844 537.320312 C 384.363281 537.546875 384.875 537.800781 385.367188 538.09375 C 385.859375 538.382812 386.332031 538.699219 386.785156 539.050781 C 387.238281 539.398438 387.664062 539.773438 388.070312 540.179688 L 522.402344 674.511719 C 523.21875 675.320312 523.917969 676.21875 524.503906 677.207031 C 525.089844 678.195312 525.542969 679.242188 525.863281 680.347656 C 526.183594 681.449219 526.363281 682.578125 526.394531 683.726562 C 526.429688 684.875 526.320312 686.007812 526.066406 687.128906 C 525.804688 688.25 525.410156 689.320312 524.875 690.34375 C 524.34375 691.363281 523.691406 692.300781 522.921875 693.15625 C 522.148438 694.007812 521.28125 694.753906 520.320312 695.386719 C 519.359375 696.023438 518.335938 696.527344 517.246094 696.898438 L 313.714844 766.371094 C 312.164062 766.835938 310.578125 767.015625 308.964844 766.914062 Z M 384.269531 574.507812 L 330.808594 731.5 L 488.480469 678.039062 Z M 384.269531 574.507812 " fill-opacity="1" fill-rule="nonzero"/><path fill="#155dfb" d="M 308.964844 766.914062 C 308.425781 766.914062 307.890625 766.878906 307.355469 766.8125 C 306.820312 766.746094 306.289062 766.648438 305.769531 766.519531 C 305.246094 766.390625 304.730469 766.230469 304.226562 766.039062 C 303.722656 765.851562 303.234375 765.632812 302.753906 765.382812 C 302.277344 765.132812 301.816406 764.859375 301.371094 764.554688 C 300.925781 764.25 300.5 763.921875 300.09375 763.566406 C 299.6875 763.214844 299.304688 762.835938 298.945312 762.4375 C 298.582031 762.035156 298.25 761.617188 297.9375 761.175781 C 297.625 760.738281 297.34375 760.28125 297.085938 759.808594 C 296.828125 759.332031 296.601562 758.847656 296.402344 758.34375 C 296.207031 757.84375 296.039062 757.332031 295.898438 756.8125 C 295.761719 756.292969 295.65625 755.765625 295.582031 755.230469 C 295.507812 754.699219 295.464844 754.164062 295.453125 753.625 C 295.441406 753.085938 295.460938 752.546875 295.515625 752.011719 C 295.566406 751.476562 295.652344 750.945312 295.769531 750.417969 C 295.882812 749.894531 296.03125 749.375 296.210938 748.867188 L 326.332031 660.128906 C 326.582031 659.386719 326.894531 658.675781 327.269531 657.988281 C 327.640625 657.304688 328.070312 656.65625 328.558594 656.046875 C 329.042969 655.433594 329.578125 654.867188 330.160156 654.351562 C 330.742188 653.832031 331.367188 653.367188 332.027344 652.953125 C 332.691406 652.542969 333.386719 652.191406 334.109375 651.898438 C 334.835938 651.605469 335.578125 651.378906 336.339844 651.214844 C 337.105469 651.054688 337.875 650.957031 338.65625 650.925781 C 339.4375 650.894531 340.214844 650.933594 340.988281 651.035156 C 345.417969 651.597656 349.769531 652.523438 354.046875 653.808594 C 358.324219 655.09375 362.464844 656.722656 366.46875 658.695312 C 370.476562 660.671875 374.292969 662.960938 377.917969 665.570312 C 381.542969 668.179688 384.925781 671.066406 388.070312 674.238281 C 391.21875 677.402344 394.085938 680.800781 396.679688 684.429688 C 399.273438 688.0625 401.558594 691.878906 403.53125 695.878906 C 405.503906 699.882812 407.136719 704.015625 408.4375 708.285156 C 409.738281 712.554688 410.683594 716.902344 411.273438 721.324219 C 411.378906 722.097656 411.414062 722.875 411.382812 723.652344 C 411.355469 724.433594 411.257812 725.207031 411.09375 725.96875 C 410.929688 726.730469 410.703125 727.476562 410.410156 728.199219 C 410.117188 728.921875 409.765625 729.617188 409.355469 730.28125 C 408.945312 730.945312 408.480469 731.566406 407.960938 732.148438 C 407.441406 732.734375 406.875 733.265625 406.265625 733.753906 C 405.652344 734.238281 405.003906 734.667969 404.320312 735.042969 C 403.632812 735.414062 402.921875 735.726562 402.183594 735.976562 L 313.441406 766.101562 C 311.996094 766.625 310.503906 766.898438 308.964844 766.914062 Z M 348.179688 680.480469 L 330.808594 731.5 L 381.828125 714.132812 C 381.160156 712.1875 380.382812 710.289062 379.5 708.433594 C 378.613281 706.582031 377.628906 704.78125 376.539062 703.039062 C 375.449219 701.296875 374.265625 699.621094 372.988281 698.011719 C 371.707031 696.40625 370.339844 694.875 368.886719 693.421875 C 367.433594 691.96875 365.90625 690.601562 364.296875 689.324219 C 362.6875 688.042969 361.011719 686.859375 359.269531 685.769531 C 357.527344 684.683594 355.730469 683.695312 353.875 682.8125 C 352.019531 681.925781 350.121094 681.148438 348.179688 680.480469 Z M 348.179688 680.480469 " fill-opacity="1" fill-rule="nonzero"/><path fill="#155dfb" d="M 704.632812 511.140625 L 551.167969 357.539062 L 599.203125 309.640625 C 600.164062 308.730469 601.164062 307.867188 602.203125 307.054688 C 603.246094 306.238281 604.324219 305.472656 605.4375 304.761719 C 606.554688 304.046875 607.699219 303.386719 608.875 302.785156 C 610.050781 302.179688 611.253906 301.632812 612.484375 301.140625 C 613.710938 300.652344 614.960938 300.21875 616.230469 299.847656 C 617.5 299.476562 618.785156 299.167969 620.085938 298.917969 C 621.382812 298.667969 622.691406 298.480469 624.007812 298.355469 C 625.324219 298.230469 626.644531 298.167969 627.96875 298.167969 C 629.292969 298.167969 630.613281 298.230469 631.929688 298.355469 C 633.246094 298.480469 634.554688 298.667969 635.851562 298.917969 C 637.152344 299.167969 638.4375 299.476562 639.707031 299.847656 C 640.976562 300.21875 642.226562 300.652344 643.453125 301.140625 C 644.683594 301.632812 645.886719 302.179688 647.0625 302.785156 C 648.238281 303.386719 649.386719 304.046875 650.5 304.761719 C 651.613281 305.472656 652.691406 306.238281 653.734375 307.054688 C 654.773438 307.867188 655.773438 308.730469 656.734375 309.640625 L 752.667969 405.574219 C 753.609375 406.515625 754.5 407.503906 755.347656 408.535156 C 756.191406 409.5625 756.984375 410.632812 757.722656 411.742188 C 758.460938 412.847656 759.144531 413.992188 759.773438 415.164062 C 760.398438 416.339844 760.96875 417.542969 761.476562 418.773438 C 761.988281 420.003906 762.433594 421.257812 762.820312 422.53125 C 763.207031 423.808594 763.53125 425.097656 763.789062 426.40625 C 764.050781 427.710938 764.246094 429.027344 764.375 430.355469 C 764.507812 431.679688 764.570312 433.007812 764.570312 434.339844 C 764.570312 435.671875 764.507812 437 764.375 438.328125 C 764.246094 439.652344 764.050781 440.96875 763.789062 442.277344 C 763.53125 443.582031 763.207031 444.875 762.820312 446.148438 C 762.433594 447.421875 761.988281 448.675781 761.476562 449.90625 C 760.96875 451.136719 760.398438 452.339844 759.773438 453.515625 C 759.144531 454.691406 758.460938 455.832031 757.722656 456.941406 C 756.984375 458.046875 756.191406 459.117188 755.347656 460.148438 C 754.5 461.179688 753.609375 462.164062 752.667969 463.105469 Z M 589.570312 357.539062 L 704.632812 472.742188 L 733.535156 443.972656 C 734.171875 443.34375 734.738281 442.65625 735.238281 441.914062 C 735.738281 441.171875 736.160156 440.386719 736.503906 439.558594 C 736.847656 438.730469 737.109375 437.878906 737.285156 437 C 737.460938 436.125 737.546875 435.234375 737.546875 434.339844 C 737.546875 433.445312 737.460938 432.558594 737.285156 431.679688 C 737.109375 430.800781 736.847656 429.949219 736.503906 429.121094 C 736.160156 428.296875 735.738281 427.511719 735.238281 426.765625 C 734.738281 426.023438 734.171875 425.335938 733.535156 424.707031 L 637.738281 328.773438 C 637.109375 328.148438 636.425781 327.589844 635.6875 327.097656 C 634.945312 326.605469 634.167969 326.191406 633.347656 325.855469 C 632.527344 325.515625 631.679688 325.261719 630.808594 325.085938 C 629.9375 324.914062 629.058594 324.828125 628.171875 324.828125 C 627.285156 324.828125 626.40625 324.914062 625.535156 325.085938 C 624.664062 325.261719 623.820312 325.515625 623 325.855469 C 622.179688 326.191406 621.398438 326.605469 620.660156 327.097656 C 619.921875 327.589844 619.234375 328.148438 618.605469 328.773438 Z M 589.570312 357.539062 " fill-opacity="1" fill-rule="nonzero"/><path fill="#155dfb" d="M 512.769531 697.441406 C 510.957031 697.433594 509.214844 697.078125 507.542969 696.371094 C 505.875 695.667969 504.402344 694.664062 503.136719 693.371094 L 464.871094 655.105469 C 464.234375 654.476562 463.667969 653.789062 463.167969 653.046875 C 462.667969 652.304688 462.246094 651.519531 461.902344 650.691406 C 461.554688 649.863281 461.296875 649.011719 461.121094 648.132812 C 460.945312 647.253906 460.855469 646.367188 460.855469 645.472656 C 460.855469 644.578125 460.945312 643.691406 461.121094 642.8125 C 461.296875 641.933594 461.554688 641.082031 461.902344 640.253906 C 462.246094 639.425781 462.667969 638.644531 463.167969 637.898438 C 463.667969 637.15625 464.234375 636.46875 464.871094 635.839844 L 656.734375 443.972656 C 657.363281 443.347656 658.046875 442.789062 658.789062 442.296875 C 659.527344 441.808594 660.304688 441.390625 661.128906 441.054688 C 661.949219 440.714844 662.792969 440.460938 663.664062 440.289062 C 664.535156 440.113281 665.414062 440.027344 666.300781 440.027344 C 667.1875 440.027344 668.066406 440.113281 668.9375 440.289062 C 669.808594 440.460938 670.65625 440.714844 671.476562 441.054688 C 672.296875 441.390625 673.074219 441.808594 673.8125 442.296875 C 674.554688 442.789062 675.238281 443.347656 675.867188 443.972656 L 714.265625 482.375 C 715.519531 483.636719 716.488281 485.09375 717.167969 486.738281 C 717.851562 488.382812 718.195312 490.09375 718.203125 491.871094 C 718.210938 493.675781 717.875 495.414062 717.195312 497.082031 C 716.511719 498.75 715.535156 500.226562 714.265625 501.507812 L 522.402344 693.371094 C 521.132812 694.664062 519.664062 695.667969 517.992188 696.371094 C 516.324219 697.078125 514.582031 697.433594 512.769531 697.441406 Z M 493.636719 645.472656 L 512.769531 664.605469 L 685.5 491.871094 L 666.367188 472.742188 Z M 493.636719 645.472656 " fill-opacity="1" fill-rule="nonzero"/><path fill="#155dfb" d="M 416.835938 601.507812 C 415.019531 601.554688 413.265625 601.25 411.570312 600.589844 C 409.875 599.933594 408.375 598.972656 407.066406 597.710938 L 368.804688 559.308594 C 368.175781 558.679688 367.617188 557.996094 367.128906 557.257812 C 366.636719 556.519531 366.21875 555.738281 365.882812 554.917969 C 365.542969 554.097656 365.289062 553.253906 365.117188 552.382812 C 364.945312 551.511719 364.855469 550.632812 364.855469 549.746094 C 364.855469 548.855469 364.945312 547.976562 365.117188 547.105469 C 365.289062 546.234375 365.542969 545.390625 365.882812 544.570312 C 366.21875 543.75 366.636719 542.96875 367.128906 542.230469 C 367.617188 541.492188 368.175781 540.808594 368.804688 540.179688 L 560.804688 348.042969 C 561.433594 347.417969 562.117188 346.859375 562.855469 346.367188 C 563.59375 345.875 564.375 345.460938 565.195312 345.121094 C 566.015625 344.785156 566.859375 344.527344 567.730469 344.355469 C 568.601562 344.183594 569.480469 344.097656 570.367188 344.097656 C 571.257812 344.097656 572.136719 344.183594 573.007812 344.355469 C 573.875 344.527344 574.722656 344.785156 575.542969 345.121094 C 576.363281 345.460938 577.144531 345.875 577.882812 346.367188 C 578.621094 346.859375 579.304688 347.417969 579.933594 348.042969 L 618.335938 386.441406 C 619.589844 387.707031 620.554688 389.160156 621.238281 390.804688 C 621.917969 392.449219 622.261719 394.160156 622.269531 395.941406 C 622.28125 397.742188 621.945312 399.480469 621.261719 401.148438 C 620.582031 402.820312 619.605469 404.292969 618.335938 405.574219 L 426.46875 597.710938 C 425.179688 598.957031 423.699219 599.90625 422.03125 600.566406 C 420.363281 601.222656 418.628906 601.539062 416.835938 601.507812 Z M 397.703125 549.539062 L 416.835938 568.671875 L 589.570312 395.941406 L 569.894531 376.808594 Z M 397.703125 549.539062 " fill-opacity="1" fill-rule="nonzero"/><path fill="#155dfb" d="M 257.808594 760.535156 L 13.570312 760.535156 C 12.679688 760.535156 11.796875 760.449219 10.921875 760.277344 C 10.046875 760.101562 9.199219 759.84375 8.375 759.503906 C 7.554688 759.164062 6.769531 758.746094 6.03125 758.25 C 5.289062 757.753906 4.605469 757.191406 3.972656 756.5625 C 3.34375 755.933594 2.78125 755.246094 2.285156 754.507812 C 1.792969 753.765625 1.375 752.984375 1.03125 752.160156 C 0.691406 751.335938 0.433594 750.488281 0.261719 749.617188 C 0.0859375 748.742188 0 747.859375 0 746.96875 L 0 665.554688 C 0 664.664062 0.0859375 663.78125 0.261719 662.90625 C 0.433594 662.035156 0.691406 661.183594 1.03125 660.363281 C 1.375 659.539062 1.792969 658.757812 2.285156 658.015625 C 2.78125 657.277344 3.34375 656.589844 3.972656 655.960938 C 4.605469 655.332031 5.289062 654.769531 6.03125 654.273438 C 6.769531 653.777344 7.554688 653.359375 8.375 653.019531 C 9.199219 652.675781 10.046875 652.421875 10.921875 652.246094 C 11.796875 652.074219 12.679688 651.984375 13.570312 651.984375 L 135.6875 651.984375 L 135.6875 597.710938 L 13.570312 597.710938 C 12.679688 597.710938 11.796875 597.625 10.921875 597.449219 C 10.046875 597.277344 9.199219 597.019531 8.375 596.675781 C 7.554688 596.335938 6.769531 595.917969 6.03125 595.421875 C 5.289062 594.929688 4.605469 594.367188 3.972656 593.734375 C 3.34375 593.105469 2.78125 592.421875 2.285156 591.679688 C 1.792969 590.9375 1.375 590.15625 1.03125 589.332031 C 0.691406 588.511719 0.433594 587.664062 0.261719 586.789062 C 0.0859375 585.914062 0 585.03125 0 584.140625 L 0 502.726562 C 0 501.835938 0.0859375 500.953125 0.261719 500.082031 C 0.433594 499.207031 0.691406 498.359375 1.03125 497.535156 C 1.375 496.710938 1.792969 495.929688 2.285156 495.1875 C 2.78125 494.449219 3.34375 493.761719 3.972656 493.132812 C 4.605469 492.503906 5.289062 491.941406 6.03125 491.445312 C 6.769531 490.949219 7.554688 490.53125 8.375 490.191406 C 9.199219 489.851562 10.046875 489.59375 10.921875 489.417969 C 11.796875 489.246094 12.679688 489.160156 13.570312 489.160156 L 217.101562 489.160156 L 217.101562 448.453125 C 217.101562 447.5625 217.1875 446.679688 217.363281 445.804688 C 217.535156 444.929688 217.792969 444.082031 218.136719 443.257812 C 218.476562 442.4375 218.894531 441.65625 219.390625 440.914062 C 219.882812 440.171875 220.445312 439.488281 221.078125 438.859375 C 221.707031 438.226562 222.390625 437.664062 223.132812 437.171875 C 223.875 436.675781 224.65625 436.257812 225.480469 435.917969 C 226.300781 435.574219 227.148438 435.316406 228.023438 435.144531 C 228.898438 434.96875 229.78125 434.882812 230.671875 434.882812 C 231.5625 434.882812 232.445312 434.96875 233.320312 435.144531 C 234.191406 435.316406 235.039062 435.574219 235.863281 435.917969 C 236.6875 436.257812 237.46875 436.675781 238.210938 437.171875 C 238.949219 437.664062 239.636719 438.226562 240.265625 438.859375 C 240.894531 439.488281 241.457031 440.171875 241.953125 440.914062 C 242.449219 441.65625 242.867188 442.4375 243.207031 443.257812 C 243.546875 444.082031 243.804688 444.929688 243.980469 445.804688 C 244.152344 446.679688 244.242188 447.5625 244.242188 448.453125 L 244.242188 502.726562 C 244.242188 503.617188 244.152344 504.5 243.980469 505.375 C 243.804688 506.25 243.546875 507.097656 243.207031 507.921875 C 242.867188 508.742188 242.449219 509.527344 241.953125 510.265625 C 241.457031 511.007812 240.894531 511.691406 240.265625 512.324219 C 239.636719 512.953125 238.949219 513.515625 238.210938 514.011719 C 237.46875 514.503906 236.6875 514.921875 235.863281 515.265625 C 235.039062 515.605469 234.191406 515.863281 233.320312 516.035156 C 232.445312 516.210938 231.5625 516.296875 230.671875 516.296875 L 27.136719 516.296875 L 27.136719 570.574219 L 149.257812 570.574219 C 150.148438 570.574219 151.03125 570.660156 151.90625 570.832031 C 152.777344 571.007812 153.628906 571.265625 154.449219 571.605469 C 155.273438 571.945312 156.054688 572.363281 156.796875 572.859375 C 157.539062 573.355469 158.222656 573.917969 158.851562 574.546875 C 159.484375 575.175781 160.046875 575.863281 160.539062 576.601562 C 161.035156 577.34375 161.453125 578.125 161.792969 578.949219 C 162.136719 579.773438 162.390625 580.621094 162.566406 581.492188 C 162.738281 582.367188 162.828125 583.25 162.828125 584.140625 L 162.828125 665.554688 C 162.828125 666.445312 162.738281 667.328125 162.566406 668.203125 C 162.390625 669.074219 162.136719 669.925781 161.792969 670.746094 C 161.453125 671.570312 161.035156 672.351562 160.539062 673.09375 C 160.046875 673.832031 159.484375 674.519531 158.851562 675.148438 C 158.222656 675.78125 157.539062 676.339844 156.796875 676.835938 C 156.054688 677.332031 155.273438 677.75 154.449219 678.089844 C 153.628906 678.429688 152.777344 678.6875 151.90625 678.863281 C 151.03125 679.035156 150.148438 679.125 149.257812 679.125 L 27.136719 679.125 L 27.136719 733.398438 L 257.808594 733.398438 C 258.699219 733.398438 259.582031 733.484375 260.457031 733.660156 C 261.332031 733.832031 262.179688 734.089844 263 734.433594 C 263.824219 734.773438 264.605469 735.191406 265.347656 735.6875 C 266.089844 736.179688 266.773438 736.742188 267.402344 737.375 C 268.035156 738.003906 268.597656 738.6875 269.089844 739.429688 C 269.585938 740.171875 270.003906 740.953125 270.34375 741.777344 C 270.6875 742.597656 270.945312 743.445312 271.117188 744.320312 C 271.292969 745.195312 271.378906 746.078125 271.378906 746.96875 C 271.378906 747.859375 271.292969 748.742188 271.117188 749.617188 C 270.945312 750.488281 270.6875 751.335938 270.34375 752.160156 C 270.003906 752.984375 269.585938 753.765625 269.089844 754.507812 C 268.597656 755.246094 268.035156 755.933594 267.402344 756.5625 C 266.773438 757.191406 266.089844 757.753906 265.347656 758.25 C 264.605469 758.746094 263.824219 759.164062 263 759.503906 C 262.179688 759.84375 261.332031 760.101562 260.457031 760.277344 C 259.582031 760.449219 258.699219 760.535156 257.808594 760.535156 Z M 257.808594 760.535156 " fill-opacity="1" fill-rule="nonzero"/><path fill="#155dfb" d="M 284.945312 353.46875 L 176.394531 353.46875 C 175.503906 353.46875 174.621094 353.382812 173.75 353.210938 C 172.875 353.035156 172.027344 352.777344 171.203125 352.4375 C 170.378906 352.097656 169.597656 351.679688 168.855469 351.183594 C 168.117188 350.6875 167.429688 350.125 166.800781 349.496094 C 166.171875 348.867188 165.609375 348.179688 165.113281 347.441406 C 164.617188 346.699219 164.199219 345.917969 163.859375 345.09375 C 163.519531 344.269531 163.261719 343.421875 163.085938 342.546875 C 162.914062 341.675781 162.828125 340.792969 162.828125 339.902344 L 162.828125 312.761719 C 162.820312 311.703125 162.6875 310.660156 162.4375 309.632812 C 162.183594 308.601562 161.816406 307.617188 161.332031 306.675781 C 160.851562 305.734375 160.265625 304.859375 159.578125 304.054688 C 158.890625 303.246094 158.117188 302.53125 157.261719 301.90625 C 155.269531 300.382812 153.320312 298.796875 151.421875 297.152344 C 149.523438 295.503906 147.679688 293.800781 145.886719 292.042969 C 144.09375 290.28125 142.355469 288.46875 140.675781 286.601562 C 138.996094 284.734375 137.371094 282.820312 135.808594 280.851562 C 134.246094 278.886719 132.746094 276.871094 131.308594 274.8125 C 129.871094 272.753906 128.496094 270.652344 127.1875 268.507812 C 125.878906 266.363281 124.636719 264.179688 123.464844 261.957031 C 122.289062 259.738281 121.183594 257.484375 120.148438 255.195312 C 119.117188 252.90625 118.152344 250.585938 117.261719 248.238281 C 116.367188 245.886719 115.550781 243.515625 114.804688 241.117188 C 114.058594 238.714844 113.390625 236.296875 112.792969 233.855469 C 112.195312 231.417969 111.675781 228.960938 111.234375 226.488281 C 110.789062 224.015625 110.421875 221.53125 110.128906 219.035156 C 109.839844 216.539062 109.625 214.039062 109.488281 211.53125 C 109.351562 209.019531 109.292969 206.511719 109.308594 204 C 109.328125 201.488281 109.425781 198.976562 109.597656 196.472656 C 109.769531 193.964844 110.019531 191.46875 110.347656 188.976562 C 110.675781 186.484375 111.078125 184.007812 111.558594 181.542969 C 112.039062 179.074219 112.59375 176.625 113.226562 174.195312 C 113.859375 171.765625 114.5625 169.355469 115.34375 166.964844 C 116.125 164.578125 116.976562 162.214844 117.902344 159.882812 C 118.828125 157.546875 119.824219 155.242188 120.894531 152.96875 C 121.960938 150.695312 123.097656 148.453125 124.304688 146.25 C 125.511719 144.046875 126.785156 141.882812 128.125 139.757812 C 129.464844 137.632812 130.867188 135.550781 132.335938 133.511719 C 133.804688 131.472656 135.332031 129.484375 136.925781 127.539062 C 138.515625 125.59375 140.164062 123.703125 141.875 121.859375 C 143.582031 120.019531 145.34375 118.230469 147.164062 116.496094 C 148.980469 114.761719 150.851562 113.085938 152.773438 111.46875 C 154.695312 109.851562 156.664062 108.292969 158.683594 106.796875 C 160.699219 105.300781 162.761719 103.867188 164.867188 102.5 C 166.976562 101.128906 169.121094 99.828125 171.308594 98.589844 C 173.496094 97.351562 175.71875 96.183594 177.976562 95.085938 C 180.234375 93.984375 182.523438 92.957031 184.847656 92 C 187.167969 91.039062 189.519531 90.15625 191.894531 89.34375 C 194.273438 88.527344 196.671875 87.789062 199.09375 87.125 C 201.519531 86.460938 203.957031 85.871094 206.417969 85.355469 C 208.875 84.839844 211.347656 84.402344 213.835938 84.039062 C 216.320312 83.679688 218.816406 83.394531 221.320312 83.1875 C 223.824219 82.976562 226.328125 82.847656 228.839844 82.792969 C 231.351562 82.742188 233.863281 82.765625 236.375 82.867188 C 238.882812 82.96875 241.390625 83.148438 243.886719 83.402344 C 246.386719 83.660156 248.875 83.992188 251.355469 84.402344 C 253.832031 84.8125 256.296875 85.300781 258.746094 85.863281 C 261.191406 86.421875 263.621094 87.058594 266.03125 87.773438 C 268.441406 88.484375 270.824219 89.269531 273.1875 90.128906 C 275.546875 90.988281 277.878906 91.917969 280.183594 92.921875 C 282.484375 93.925781 284.753906 94.996094 286.992188 96.140625 C 289.230469 97.285156 291.429688 98.496094 293.589844 99.773438 C 295.753906 101.050781 297.875 102.394531 299.953125 103.804688 C 302.035156 105.214844 304.066406 106.6875 306.054688 108.222656 C 308.042969 109.757812 309.984375 111.351562 311.875 113.007812 C 313.765625 114.664062 315.601562 116.375 317.386719 118.144531 C 319.167969 119.910156 320.898438 121.734375 322.570312 123.609375 C 324.242188 125.484375 325.855469 127.40625 327.40625 129.382812 C 328.960938 131.355469 330.453125 133.375 331.878906 135.441406 C 333.308594 137.507812 334.671875 139.617188 335.972656 141.769531 C 337.269531 143.917969 338.5 146.109375 339.664062 148.335938 C 340.828125 150.5625 341.921875 152.820312 342.945312 155.117188 C 343.96875 157.410156 344.921875 159.734375 345.800781 162.085938 C 346.679688 164.4375 347.488281 166.816406 348.222656 169.21875 C 348.957031 171.621094 349.613281 174.042969 350.199219 176.488281 C 350.785156 178.929688 351.292969 181.390625 351.722656 183.863281 C 352.15625 186.339844 352.511719 188.824219 352.792969 191.320312 C 353.066406 193.933594 353.257812 196.550781 353.363281 199.175781 C 353.46875 201.800781 353.488281 204.425781 353.425781 207.050781 C 353.359375 209.675781 353.210938 212.296875 352.980469 214.910156 C 352.746094 217.527344 352.429688 220.132812 352.027344 222.730469 C 351.628906 225.324219 351.144531 227.902344 350.574219 230.46875 C 350.007812 233.03125 349.359375 235.574219 348.628906 238.097656 C 347.894531 240.621094 347.085938 243.117188 346.191406 245.585938 C 345.300781 248.054688 344.328125 250.496094 343.277344 252.902344 C 342.226562 255.308594 341.101562 257.679688 339.898438 260.015625 C 338.695312 262.347656 337.417969 264.640625 336.070312 266.894531 C 334.71875 269.148438 333.296875 271.351562 331.804688 273.515625 C 330.308594 275.675781 328.75 277.785156 327.121094 279.84375 C 325.488281 281.902344 323.796875 283.910156 322.039062 285.859375 C 320.277344 287.808594 318.460938 289.703125 316.578125 291.535156 C 314.699219 293.367188 312.761719 295.136719 310.765625 296.847656 C 308.769531 298.554688 306.722656 300.195312 304.621094 301.773438 C 303.78125 302.40625 303.019531 303.125 302.34375 303.933594 C 301.671875 304.742188 301.097656 305.617188 300.625 306.558594 C 300.15625 307.5 299.800781 308.484375 299.558594 309.511719 C 299.316406 310.535156 299.195312 311.574219 299.195312 312.628906 L 299.195312 339.765625 C 299.199219 340.226562 299.179688 340.6875 299.140625 341.148438 C 299.097656 341.609375 299.03125 342.0625 298.945312 342.515625 C 298.855469 342.96875 298.742188 343.417969 298.609375 343.859375 C 298.476562 344.300781 298.320312 344.734375 298.140625 345.160156 C 297.960938 345.585938 297.761719 346.003906 297.542969 346.410156 C 297.320312 346.8125 297.082031 347.207031 296.820312 347.589844 C 296.558594 347.96875 296.277344 348.335938 295.980469 348.6875 C 295.679688 349.039062 295.367188 349.378906 295.03125 349.695312 C 294.699219 350.015625 294.351562 350.320312 293.988281 350.605469 C 293.625 350.890625 293.246094 351.152344 292.855469 351.398438 C 292.464844 351.644531 292.0625 351.871094 291.648438 352.078125 C 291.234375 352.28125 290.8125 352.464844 290.378906 352.625 C 289.949219 352.789062 289.507812 352.929688 289.0625 353.046875 C 288.613281 353.160156 288.164062 353.253906 287.707031 353.328125 C 287.25 353.398438 286.792969 353.445312 286.332031 353.46875 C 285.871094 353.492188 285.40625 353.492188 284.945312 353.46875 Z M 189.964844 326.332031 L 271.378906 326.332031 L 271.378906 312.761719 C 271.382812 311.195312 271.480469 309.632812 271.664062 308.074219 C 271.851562 306.515625 272.125 304.972656 272.492188 303.449219 C 272.855469 301.921875 273.304688 300.421875 273.84375 298.949219 C 274.382812 297.472656 275 296.035156 275.707031 294.632812 C 276.410156 293.230469 277.191406 291.875 278.054688 290.5625 C 278.914062 289.25 279.847656 287.992188 280.855469 286.789062 C 281.859375 285.585938 282.933594 284.445312 284.070312 283.363281 C 285.207031 282.285156 286.40625 281.273438 287.660156 280.332031 C 289.175781 279.195312 290.65625 278.011719 292.097656 276.789062 C 293.542969 275.5625 294.949219 274.292969 296.316406 272.980469 C 297.683594 271.671875 299.011719 270.320312 300.300781 268.929688 C 301.585938 267.542969 302.832031 266.113281 304.035156 264.648438 C 305.234375 263.183594 306.390625 261.6875 307.503906 260.152344 C 308.617188 258.617188 309.683594 257.054688 310.699219 255.457031 C 311.71875 253.859375 312.6875 252.230469 313.609375 250.578125 C 314.53125 248.921875 315.402344 247.238281 316.222656 245.53125 C 317.042969 243.824219 317.8125 242.09375 318.527344 240.339844 C 319.246094 238.585938 319.910156 236.8125 320.519531 235.019531 C 321.132812 233.226562 321.6875 231.417969 322.191406 229.589844 C 322.695312 227.765625 323.140625 225.925781 323.535156 224.070312 C 323.925781 222.21875 324.261719 220.355469 324.542969 218.480469 C 324.824219 216.605469 325.050781 214.726562 325.21875 212.839844 C 325.386719 210.953125 325.5 209.0625 325.554688 207.167969 C 325.609375 205.273438 325.609375 203.382812 325.550781 201.488281 C 325.492188 199.59375 325.378906 197.703125 325.207031 195.816406 C 325.035156 193.929688 324.808594 192.050781 324.523438 190.175781 C 324.242188 188.304688 323.902344 186.441406 323.507812 184.589844 C 323.113281 182.734375 322.660156 180.894531 322.15625 179.070312 C 321.652344 177.246094 321.09375 175.433594 320.480469 173.644531 C 319.867188 171.851562 319.199219 170.078125 318.480469 168.324219 C 317.761719 166.574219 316.988281 164.84375 316.167969 163.136719 C 315.34375 161.429688 314.472656 159.75 313.546875 158.09375 C 312.625 156.441406 311.652344 154.816406 310.632812 153.21875 C 309.609375 151.625 308.542969 150.058594 307.429688 148.527344 C 306.316406 146.996094 305.15625 145.5 303.953125 144.035156 C 302.75 142.574219 301.5 141.148438 300.210938 139.757812 C 298.921875 138.371094 297.59375 137.023438 296.222656 135.714844 C 294.855469 134.40625 293.445312 133.136719 292 131.914062 C 290.554688 130.691406 289.074219 129.507812 287.558594 128.375 C 286.042969 127.238281 284.492188 126.148438 282.910156 125.105469 C 279.957031 123.148438 276.898438 121.363281 273.742188 119.746094 C 270.589844 118.132812 267.351562 116.699219 264.035156 115.445312 C 260.71875 114.191406 257.34375 113.128906 253.90625 112.253906 C 250.472656 111.378906 246.996094 110.699219 243.484375 110.210938 C 239.972656 109.726562 236.445312 109.4375 232.902344 109.347656 C 229.359375 109.257812 225.820312 109.363281 222.289062 109.667969 C 218.757812 109.976562 215.253906 110.476562 211.777344 111.175781 C 208.300781 111.871094 204.875 112.761719 201.5 113.84375 C 199.289062 114.53125 197.109375 115.296875 194.957031 116.144531 C 192.804688 116.992188 190.683594 117.921875 188.601562 118.925781 C 186.515625 119.929688 184.472656 121.007812 182.46875 122.164062 C 180.460938 123.316406 178.503906 124.542969 176.589844 125.84375 C 174.675781 127.144531 172.808594 128.511719 170.996094 129.949219 C 169.183594 131.382812 167.425781 132.886719 165.722656 134.453125 C 164.019531 136.019531 162.375 137.644531 160.792969 139.332031 C 159.210938 141.019531 157.691406 142.761719 156.238281 144.5625 C 154.785156 146.363281 153.398438 148.210938 152.078125 150.113281 C 150.761719 152.015625 149.515625 153.960938 148.339844 155.957031 C 147.167969 157.949219 146.066406 159.984375 145.042969 162.058594 C 144.019531 164.132812 143.070312 166.242188 142.203125 168.382812 C 141.332031 170.527344 140.542969 172.703125 139.835938 174.902344 C 139.125 177.105469 138.5 179.332031 137.953125 181.582031 C 137.410156 183.828125 136.949219 186.09375 136.570312 188.375 C 136.191406 190.660156 135.898438 192.953125 135.6875 195.257812 C 135.339844 199.277344 135.242188 203.300781 135.402344 207.332031 C 135.558594 211.363281 135.972656 215.367188 136.636719 219.347656 C 137.300781 223.324219 138.210938 227.246094 139.371094 231.109375 C 140.53125 234.972656 141.929688 238.75 143.566406 242.4375 C 145.203125 246.125 147.066406 249.695312 149.152344 253.144531 C 151.242188 256.597656 153.539062 259.902344 156.042969 263.066406 C 158.546875 266.226562 161.242188 269.21875 164.125 272.039062 C 167.011719 274.863281 170.058594 277.492188 173.273438 279.925781 C 174.5625 280.867188 175.789062 281.878906 176.957031 282.964844 C 178.125 284.050781 179.226562 285.199219 180.261719 286.414062 C 181.292969 287.628906 182.253906 288.898438 183.136719 290.226562 C 184.019531 291.554688 184.824219 292.925781 185.546875 294.347656 C 186.269531 295.769531 186.90625 297.230469 187.457031 298.726562 C 188.007812 300.222656 188.46875 301.746094 188.839844 303.296875 C 189.214844 304.847656 189.492188 306.414062 189.679688 307.996094 C 189.867188 309.578125 189.964844 311.167969 189.964844 312.761719 Z M 189.964844 326.332031 " fill-opacity="1" fill-rule="nonzero"/><path fill="#155dfb" d="M 257.808594 407.746094 L 203.535156 407.746094 C 202.199219 407.746094 200.871094 407.679688 199.542969 407.550781 C 198.21875 407.417969 196.898438 407.222656 195.59375 406.964844 C 194.285156 406.703125 192.992188 406.378906 191.71875 405.992188 C 190.441406 405.605469 189.1875 405.15625 187.957031 404.648438 C 186.722656 404.136719 185.519531 403.566406 184.34375 402.9375 C 183.167969 402.308594 182.027344 401.625 180.917969 400.886719 C 179.808594 400.144531 178.738281 399.351562 177.710938 398.503906 C 176.679688 397.660156 175.691406 396.765625 174.75 395.824219 C 173.808594 394.878906 172.914062 393.894531 172.066406 392.863281 C 171.222656 391.832031 170.429688 390.761719 169.6875 389.652344 C 168.945312 388.546875 168.261719 387.402344 167.632812 386.226562 C 167.003906 385.050781 166.4375 383.847656 165.925781 382.617188 C 165.414062 381.386719 164.964844 380.132812 164.578125 378.855469 C 164.191406 377.578125 163.867188 376.289062 163.609375 374.980469 C 163.347656 373.671875 163.152344 372.355469 163.023438 371.027344 C 162.890625 369.703125 162.828125 368.371094 162.828125 367.039062 L 162.828125 339.902344 C 162.828125 339.011719 162.914062 338.128906 163.085938 337.253906 C 163.261719 336.378906 163.519531 335.53125 163.859375 334.707031 C 164.199219 333.886719 164.617188 333.101562 165.113281 332.363281 C 165.609375 331.621094 166.171875 330.9375 166.800781 330.304688 C 167.429688 329.675781 168.117188 329.113281 168.855469 328.617188 C 169.597656 328.125 170.378906 327.707031 171.203125 327.363281 C 172.027344 327.023438 172.875 326.765625 173.75 326.59375 C 174.621094 326.417969 175.503906 326.332031 176.394531 326.332031 L 284.945312 326.332031 C 285.839844 326.332031 286.71875 326.417969 287.59375 326.59375 C 288.46875 326.765625 289.316406 327.023438 290.140625 327.363281 C 290.960938 327.707031 291.746094 328.125 292.484375 328.617188 C 293.226562 329.113281 293.910156 329.675781 294.542969 330.304688 C 295.171875 330.9375 295.734375 331.621094 296.230469 332.363281 C 296.722656 333.101562 297.140625 333.886719 297.484375 334.707031 C 297.824219 335.53125 298.082031 336.378906 298.253906 337.253906 C 298.429688 338.128906 298.515625 339.011719 298.515625 339.902344 L 298.515625 367.039062 C 298.515625 368.371094 298.449219 369.703125 298.320312 371.027344 C 298.1875 372.355469 297.992188 373.671875 297.734375 374.980469 C 297.472656 376.289062 297.148438 377.578125 296.761719 378.855469 C 296.375 380.132812 295.925781 381.386719 295.417969 382.617188 C 294.90625 383.847656 294.335938 385.050781 293.710938 386.226562 C 293.082031 387.402344 292.394531 388.546875 291.65625 389.652344 C 290.914062 390.761719 290.121094 391.832031 289.277344 392.863281 C 288.429688 393.894531 287.535156 394.878906 286.59375 395.824219 C 285.652344 396.765625 284.664062 397.660156 283.632812 398.503906 C 282.601562 399.351562 281.53125 400.144531 280.425781 400.886719 C 279.316406 401.625 278.175781 402.308594 277 402.9375 C 275.824219 403.566406 274.617188 404.136719 273.386719 404.648438 C 272.15625 405.15625 270.902344 405.605469 269.625 405.992188 C 268.351562 406.378906 267.058594 406.703125 265.75 406.964844 C 264.441406 407.222656 263.125 407.417969 261.800781 407.550781 C 260.472656 407.679688 259.140625 407.746094 257.808594 407.746094 Z M 189.964844 353.46875 L 189.964844 367.039062 C 189.964844 367.929688 190.050781 368.8125 190.226562 369.6875 C 190.398438 370.558594 190.65625 371.410156 190.996094 372.230469 C 191.339844 373.054688 191.757812 373.835938 192.25 374.578125 C 192.746094 375.316406 193.308594 376.003906 193.9375 376.632812 C 194.570312 377.261719 195.253906 377.824219 195.996094 378.320312 C 196.734375 378.816406 197.519531 379.234375 198.339844 379.574219 C 199.164062 379.914062 200.011719 380.171875 200.886719 380.347656 C 201.761719 380.519531 202.644531 380.609375 203.535156 380.609375 L 257.808594 380.609375 C 258.699219 380.609375 259.582031 380.519531 260.457031 380.347656 C 261.332031 380.171875 262.179688 379.914062 263 379.574219 C 263.824219 379.234375 264.605469 378.816406 265.347656 378.320312 C 266.089844 377.824219 266.773438 377.261719 267.402344 376.632812 C 268.035156 376.003906 268.597656 375.316406 269.089844 374.578125 C 269.585938 373.835938 270.003906 373.054688 270.34375 372.230469 C 270.6875 371.410156 270.945312 370.558594 271.117188 369.6875 C 271.292969 368.8125 271.378906 367.929688 271.378906 367.039062 L 271.378906 353.46875 Z M 189.964844 353.46875 " fill-opacity="1" fill-rule="nonzero"/><path fill="#155dfb" d="M 230.671875 54.953125 C 229.78125 54.953125 228.898438 54.867188 228.023438 54.691406 C 227.148438 54.519531 226.300781 54.261719 225.480469 53.921875 C 224.65625 53.582031 223.875 53.164062 223.132812 52.667969 C 222.390625 52.171875 221.707031 51.609375 221.078125 50.980469 C 220.445312 50.351562 219.882812 49.664062 219.390625 48.921875 C 218.894531 48.183594 218.476562 47.402344 218.136719 46.578125 C 217.792969 45.753906 217.535156 44.90625 217.363281 44.03125 C 217.1875 43.160156 217.101562 42.277344 217.101562 41.386719 L 217.101562 14.246094 C 217.101562 13.355469 217.1875 12.472656 217.363281 11.601562 C 217.535156 10.726562 217.792969 9.878906 218.136719 9.054688 C 218.476562 8.230469 218.894531 7.449219 219.390625 6.707031 C 219.882812 5.96875 220.445312 5.28125 221.078125 4.652344 C 221.707031 4.023438 222.390625 3.460938 223.132812 2.964844 C 223.875 2.46875 224.65625 2.050781 225.480469 1.710938 C 226.300781 1.371094 227.148438 1.113281 228.023438 0.9375 C 228.898438 0.765625 229.78125 0.679688 230.671875 0.679688 C 231.5625 0.679688 232.445312 0.765625 233.320312 0.9375 C 234.191406 1.113281 235.039062 1.371094 235.863281 1.710938 C 236.6875 2.050781 237.46875 2.46875 238.210938 2.964844 C 238.949219 3.460938 239.636719 4.023438 240.265625 4.652344 C 240.894531 5.28125 241.457031 5.96875 241.953125 6.707031 C 242.449219 7.449219 242.867188 8.230469 243.207031 9.054688 C 243.546875 9.878906 243.804688 10.726562 243.980469 11.601562 C 244.152344 12.472656 244.242188 13.355469 244.242188 14.246094 L 244.242188 41.386719 C 244.242188 42.277344 244.152344 43.160156 243.980469 44.03125 C 243.804688 44.90625 243.546875 45.753906 243.207031 46.578125 C 242.867188 47.402344 242.449219 48.183594 241.953125 48.921875 C 241.457031 49.664062 240.894531 50.351562 240.265625 50.980469 C 239.636719 51.609375 238.949219 52.171875 238.210938 52.667969 C 237.46875 53.164062 236.6875 53.582031 235.863281 53.921875 C 235.039062 54.261719 234.191406 54.519531 233.320312 54.691406 C 232.445312 54.867188 231.5625 54.953125 230.671875 54.953125 Z M 230.671875 54.953125 " fill-opacity="1" fill-rule="nonzero"/><path fill="#155dfb" d="M 115.472656 102.582031 C 113.691406 102.574219 111.980469 102.230469 110.335938 101.546875 C 108.691406 100.867188 107.238281 99.898438 105.972656 98.644531 L 86.707031 79.515625 C 86.074219 78.882812 85.507812 78.191406 85.011719 77.449219 C 84.515625 76.707031 84.097656 75.921875 83.757812 75.09375 C 83.414062 74.265625 83.15625 73.414062 82.984375 72.539062 C 82.808594 71.660156 82.722656 70.777344 82.722656 69.882812 C 82.722656 68.988281 82.808594 68.101562 82.984375 67.226562 C 83.160156 66.347656 83.417969 65.496094 83.761719 64.671875 C 84.101562 63.84375 84.523438 63.058594 85.019531 62.316406 C 85.515625 61.574219 86.082031 60.886719 86.710938 60.253906 C 87.34375 59.621094 88.03125 59.054688 88.777344 58.558594 C 89.519531 58.0625 90.304688 57.644531 91.128906 57.300781 C 91.957031 56.957031 92.808594 56.699219 93.683594 56.527344 C 94.5625 56.351562 95.445312 56.261719 96.339844 56.261719 C 97.234375 56.261719 98.121094 56.347656 99 56.523438 C 99.875 56.699219 100.726562 56.957031 101.554688 57.296875 C 102.378906 57.636719 103.164062 58.058594 103.910156 58.554688 C 104.652344 59.050781 105.339844 59.613281 105.972656 60.246094 L 125.105469 79.515625 C 125.730469 80.144531 126.289062 80.828125 126.78125 81.566406 C 127.273438 82.304688 127.6875 83.085938 128.027344 83.90625 C 128.363281 84.726562 128.621094 85.570312 128.792969 86.441406 C 128.964844 87.3125 129.050781 88.191406 129.050781 89.078125 C 129.050781 89.96875 128.964844 90.847656 128.792969 91.71875 C 128.621094 92.585938 128.363281 93.433594 128.027344 94.253906 C 127.6875 95.074219 127.273438 95.855469 126.78125 96.59375 C 126.289062 97.332031 125.730469 98.015625 125.105469 98.644531 C 123.824219 99.914062 122.351562 100.890625 120.679688 101.574219 C 119.011719 102.253906 117.273438 102.589844 115.472656 102.582031 Z M 115.472656 102.582031 " fill-opacity="1" fill-rule="nonzero"/><path fill="#155dfb" d="M 67.84375 217.78125 L 40.707031 217.78125 C 39.816406 217.78125 38.933594 217.695312 38.058594 217.519531 C 37.1875 217.347656 36.335938 217.089844 35.515625 216.746094 C 34.691406 216.40625 33.910156 215.988281 33.167969 215.492188 C 32.425781 215 31.742188 214.4375 31.113281 213.808594 C 30.480469 213.175781 29.917969 212.492188 29.425781 211.75 C 28.929688 211.007812 28.511719 210.226562 28.171875 209.40625 C 27.828125 208.582031 27.574219 207.734375 27.398438 206.859375 C 27.226562 205.984375 27.136719 205.101562 27.136719 204.210938 C 27.136719 203.320312 27.226562 202.4375 27.398438 201.566406 C 27.574219 200.691406 27.828125 199.84375 28.171875 199.019531 C 28.511719 198.195312 28.929688 197.414062 29.425781 196.671875 C 29.917969 195.933594 30.480469 195.246094 31.113281 194.617188 C 31.742188 193.988281 32.425781 193.425781 33.167969 192.929688 C 33.910156 192.433594 34.691406 192.015625 35.515625 191.675781 C 36.335938 191.335938 37.1875 191.078125 38.058594 190.902344 C 38.933594 190.730469 39.816406 190.644531 40.707031 190.644531 L 67.84375 190.644531 C 68.734375 190.644531 69.617188 190.730469 70.492188 190.902344 C 71.367188 191.078125 72.214844 191.335938 73.035156 191.675781 C 73.859375 192.015625 74.640625 192.433594 75.382812 192.929688 C 76.125 193.425781 76.808594 193.988281 77.4375 194.617188 C 78.070312 195.246094 78.632812 195.933594 79.125 196.671875 C 79.621094 197.414062 80.039062 198.195312 80.378906 199.019531 C 80.722656 199.84375 80.980469 200.691406 81.152344 201.566406 C 81.328125 202.4375 81.414062 203.320312 81.414062 204.210938 C 81.414062 205.101562 81.328125 205.984375 81.152344 206.859375 C 80.980469 207.734375 80.722656 208.582031 80.378906 209.40625 C 80.039062 210.226562 79.621094 211.007812 79.125 211.75 C 78.632812 212.492188 78.070312 213.175781 77.4375 213.808594 C 76.808594 214.4375 76.125 215 75.382812 215.492188 C 74.640625 215.988281 73.859375 216.40625 73.035156 216.746094 C 72.214844 217.089844 71.367188 217.347656 70.492188 217.519531 C 69.617188 217.695312 68.734375 217.78125 67.84375 217.78125 Z M 67.84375 217.78125 " fill-opacity="1" fill-rule="nonzero"/><path fill="#155dfb" d="M 96.339844 352.113281 C 94.535156 352.125 92.800781 351.789062 91.128906 351.105469 C 89.460938 350.425781 87.984375 349.449219 86.707031 348.179688 C 86.070312 347.546875 85.5 346.859375 85 346.117188 C 84.5 345.375 84.078125 344.589844 83.734375 343.761719 C 83.390625 342.9375 83.128906 342.082031 82.953125 341.203125 C 82.78125 340.328125 82.691406 339.441406 82.691406 338.542969 C 82.691406 337.648438 82.78125 336.761719 82.953125 335.882812 C 83.128906 335.003906 83.390625 334.152344 83.734375 333.324219 C 84.078125 332.5 84.5 331.714844 85 330.972656 C 85.5 330.226562 86.070312 329.539062 86.707031 328.910156 L 105.972656 309.777344 C 106.277344 309.425781 106.597656 309.085938 106.933594 308.765625 C 107.273438 308.445312 107.628906 308.140625 107.996094 307.855469 C 108.367188 307.570312 108.75 307.308594 109.144531 307.0625 C 109.542969 306.816406 109.949219 306.59375 110.371094 306.390625 C 110.789062 306.1875 111.21875 306.003906 111.65625 305.847656 C 112.09375 305.6875 112.539062 305.550781 112.992188 305.4375 C 113.445312 305.324219 113.902344 305.238281 114.363281 305.171875 C 114.824219 305.105469 115.289062 305.0625 115.753906 305.046875 C 116.222656 305.027344 116.6875 305.03125 117.152344 305.0625 C 117.617188 305.09375 118.082031 305.148438 118.539062 305.226562 C 119 305.300781 119.453125 305.402344 119.902344 305.527344 C 120.351562 305.652344 120.792969 305.800781 121.230469 305.96875 C 121.664062 306.140625 122.085938 306.332031 122.5 306.546875 C 122.917969 306.761719 123.320312 306.996094 123.707031 307.25 C 124.097656 307.503906 124.476562 307.78125 124.835938 308.074219 C 125.199219 308.367188 125.542969 308.679688 125.875 309.007812 C 126.203125 309.339844 126.515625 309.683594 126.808594 310.046875 C 127.105469 310.410156 127.378906 310.785156 127.632812 311.175781 C 127.890625 311.566406 128.125 311.96875 128.335938 312.382812 C 128.550781 312.796875 128.742188 313.21875 128.914062 313.65625 C 129.082031 314.089844 129.230469 314.53125 129.355469 314.980469 C 129.480469 315.429688 129.582031 315.882812 129.660156 316.34375 C 129.734375 316.804688 129.789062 317.265625 129.820312 317.730469 C 129.851562 318.195312 129.855469 318.660156 129.839844 319.128906 C 129.820312 319.59375 129.777344 320.058594 129.710938 320.519531 C 129.648438 320.980469 129.558594 321.4375 129.445312 321.890625 C 129.332031 322.34375 129.195312 322.789062 129.035156 323.226562 C 128.878906 323.664062 128.695312 324.09375 128.492188 324.511719 C 128.289062 324.933594 128.066406 325.339844 127.820312 325.738281 C 127.578125 326.132812 127.3125 326.519531 127.027344 326.886719 C 126.742188 327.257812 126.4375 327.609375 126.117188 327.949219 C 125.796875 328.285156 125.460938 328.605469 125.105469 328.910156 L 105.972656 348.179688 C 104.691406 349.449219 103.21875 350.425781 101.546875 351.105469 C 99.878906 351.789062 98.140625 352.125 96.339844 352.113281 Z M 96.339844 352.113281 " fill-opacity="1" fill-rule="nonzero"/><path fill="#155dfb" d="M 365.003906 352.113281 C 363.199219 352.125 361.464844 351.789062 359.792969 351.105469 C 358.125 350.425781 356.648438 349.449219 355.371094 348.179688 L 336.238281 328.910156 C 335.882812 328.605469 335.546875 328.285156 335.226562 327.949219 C 334.902344 327.609375 334.601562 327.257812 334.316406 326.886719 C 334.03125 326.519531 333.765625 326.132812 333.519531 325.738281 C 333.277344 325.339844 333.050781 324.933594 332.847656 324.511719 C 332.644531 324.09375 332.464844 323.664062 332.304688 323.226562 C 332.148438 322.789062 332.011719 322.34375 331.898438 321.890625 C 331.785156 321.4375 331.695312 320.980469 331.628906 320.519531 C 331.566406 320.058594 331.523438 319.59375 331.503906 319.128906 C 331.488281 318.660156 331.492188 318.195312 331.523438 317.730469 C 331.550781 317.265625 331.605469 316.804688 331.683594 316.34375 C 331.761719 315.882812 331.863281 315.429688 331.988281 314.980469 C 332.113281 314.53125 332.257812 314.089844 332.429688 313.65625 C 332.597656 313.21875 332.792969 312.796875 333.003906 312.382812 C 333.21875 311.96875 333.453125 311.566406 333.710938 311.175781 C 333.964844 310.785156 334.238281 310.410156 334.53125 310.046875 C 334.828125 309.683594 335.140625 309.339844 335.46875 309.007812 C 335.796875 308.679688 336.144531 308.367188 336.507812 308.074219 C 336.867188 307.78125 337.242188 307.503906 337.632812 307.25 C 338.023438 306.996094 338.425781 306.761719 338.839844 306.546875 C 339.253906 306.332031 339.679688 306.140625 340.113281 305.96875 C 340.546875 305.800781 340.988281 305.652344 341.4375 305.527344 C 341.886719 305.402344 342.34375 305.300781 342.800781 305.226562 C 343.261719 305.148438 343.726562 305.09375 344.191406 305.0625 C 344.65625 305.035156 345.121094 305.027344 345.585938 305.046875 C 346.054688 305.0625 346.515625 305.105469 346.980469 305.171875 C 347.441406 305.238281 347.898438 305.328125 348.347656 305.4375 C 348.800781 305.550781 349.246094 305.6875 349.6875 305.847656 C 350.125 306.003906 350.554688 306.1875 350.972656 306.390625 C 351.394531 306.59375 351.800781 306.816406 352.199219 307.0625 C 352.59375 307.308594 352.976562 307.570312 353.347656 307.855469 C 353.714844 308.140625 354.070312 308.445312 354.40625 308.765625 C 354.746094 309.085938 355.066406 309.425781 355.371094 309.777344 L 374.636719 328.910156 C 375.273438 329.539062 375.839844 330.226562 376.339844 330.972656 C 376.839844 331.714844 377.261719 332.5 377.609375 333.324219 C 377.953125 334.152344 378.210938 335.003906 378.386719 335.882812 C 378.5625 336.761719 378.652344 337.648438 378.652344 338.542969 C 378.652344 339.441406 378.5625 340.328125 378.386719 341.203125 C 378.210938 342.082031 377.953125 342.9375 377.609375 343.761719 C 377.261719 344.589844 376.839844 345.375 376.339844 346.117188 C 375.839844 346.859375 375.273438 347.546875 374.636719 348.179688 C 373.355469 349.449219 371.882812 350.425781 370.210938 351.105469 C 368.542969 351.789062 366.808594 352.125 365.003906 352.113281 Z M 365.003906 352.113281 " fill-opacity="1" fill-rule="nonzero"/><path fill="#155dfb" d="M 420.636719 217.78125 L 393.5 217.78125 C 392.605469 217.78125 391.726562 217.695312 390.851562 217.519531 C 389.976562 217.347656 389.128906 217.089844 388.304688 216.746094 C 387.484375 216.40625 386.699219 215.988281 385.960938 215.492188 C 385.21875 215 384.535156 214.4375 383.902344 213.808594 C 383.273438 213.175781 382.710938 212.492188 382.214844 211.75 C 381.722656 211.007812 381.304688 210.226562 380.960938 209.40625 C 380.621094 208.582031 380.363281 207.734375 380.191406 206.859375 C 380.015625 205.984375 379.929688 205.101562 379.929688 204.210938 C 379.929688 203.320312 380.015625 202.4375 380.191406 201.566406 C 380.363281 200.691406 380.621094 199.84375 380.960938 199.019531 C 381.304688 198.195312 381.722656 197.414062 382.214844 196.671875 C 382.710938 195.933594 383.273438 195.246094 383.902344 194.617188 C 384.535156 193.988281 385.21875 193.425781 385.960938 192.929688 C 386.699219 192.433594 387.484375 192.015625 388.304688 191.675781 C 389.128906 191.335938 389.976562 191.078125 390.851562 190.902344 C 391.726562 190.730469 392.605469 190.644531 393.5 190.644531 L 420.636719 190.644531 C 421.527344 190.644531 422.410156 190.730469 423.28125 190.902344 C 424.15625 191.078125 425.003906 191.335938 425.828125 191.675781 C 426.652344 192.015625 427.433594 192.433594 428.175781 192.929688 C 428.914062 193.425781 429.601562 193.988281 430.230469 194.617188 C 430.859375 195.246094 431.421875 195.933594 431.917969 196.671875 C 432.414062 197.414062 432.832031 198.195312 433.171875 199.019531 C 433.511719 199.84375 433.769531 200.691406 433.945312 201.566406 C 434.117188 202.4375 434.203125 203.320312 434.203125 204.210938 C 434.203125 205.101562 434.117188 205.984375 433.945312 206.859375 C 433.769531 207.734375 433.511719 208.582031 433.171875 209.40625 C 432.832031 210.226562 432.414062 211.007812 431.917969 211.75 C 431.421875 212.492188 430.859375 213.175781 430.230469 213.808594 C 429.601562 214.4375 428.914062 215 428.175781 215.492188 C 427.433594 215.988281 426.652344 216.40625 425.828125 216.746094 C 425.003906 217.089844 424.15625 217.347656 423.28125 217.519531 C 422.410156 217.695312 421.527344 217.78125 420.636719 217.78125 Z M 420.636719 217.78125 " fill-opacity="1" fill-rule="nonzero"/><path fill="#155dfb" d="M 345.871094 102.582031 C 344.066406 102.589844 342.332031 102.253906 340.664062 101.574219 C 338.992188 100.890625 337.519531 99.914062 336.238281 98.644531 C 335.613281 98.015625 335.054688 97.332031 334.5625 96.59375 C 334.070312 95.855469 333.65625 95.074219 333.316406 94.253906 C 332.976562 93.433594 332.722656 92.585938 332.550781 91.71875 C 332.378906 90.847656 332.292969 89.96875 332.292969 89.078125 C 332.292969 88.191406 332.378906 87.3125 332.550781 86.441406 C 332.722656 85.570312 332.976562 84.726562 333.316406 83.90625 C 333.65625 83.085938 334.070312 82.304688 334.5625 81.566406 C 335.054688 80.828125 335.613281 80.144531 336.238281 79.515625 L 355.371094 60.246094 C 356.003906 59.613281 356.691406 59.050781 357.433594 58.554688 C 358.179688 58.058594 358.964844 57.636719 359.789062 57.296875 C 360.617188 56.957031 361.46875 56.699219 362.34375 56.523438 C 363.222656 56.347656 364.105469 56.261719 365 56.261719 C 365.894531 56.261719 366.78125 56.351562 367.65625 56.527344 C 368.535156 56.699219 369.386719 56.957031 370.210938 57.300781 C 371.039062 57.644531 371.824219 58.0625 372.566406 58.558594 C 373.308594 59.054688 373.996094 59.621094 374.628906 60.253906 C 375.261719 60.886719 375.828125 61.574219 376.324219 62.316406 C 376.820312 63.058594 377.238281 63.84375 377.582031 64.671875 C 377.925781 65.496094 378.183594 66.347656 378.359375 67.226562 C 378.53125 68.101562 378.621094 68.988281 378.621094 69.882812 C 378.621094 70.777344 378.535156 71.660156 378.359375 72.539062 C 378.1875 73.414062 377.929688 74.265625 377.585938 75.09375 C 377.246094 75.921875 376.824219 76.707031 376.328125 77.449219 C 375.832031 78.191406 375.269531 78.882812 374.636719 79.515625 L 355.371094 98.644531 C 354.105469 99.898438 352.652344 100.867188 351.007812 101.546875 C 349.363281 102.230469 347.652344 102.574219 345.871094 102.582031 Z M 345.871094 102.582031 " fill-opacity="1" fill-rule="nonzero"/><path fill="#155dfb" d="M 284.945312 217.78125 C 284.054688 217.78125 283.171875 217.695312 282.300781 217.519531 C 281.425781 217.347656 280.578125 217.089844 279.753906 216.746094 C 278.929688 216.40625 278.148438 215.988281 277.410156 215.492188 C 276.667969 215 275.980469 214.4375 275.351562 213.808594 C 274.722656 213.175781 274.160156 212.492188 273.664062 211.75 C 273.167969 211.007812 272.75 210.226562 272.410156 209.40625 C 272.070312 208.582031 271.8125 207.734375 271.640625 206.859375 C 271.464844 205.984375 271.378906 205.101562 271.378906 204.210938 C 271.378906 202.878906 271.3125 201.550781 271.183594 200.222656 C 271.050781 198.894531 270.855469 197.578125 270.597656 196.269531 C 270.335938 194.964844 270.011719 193.671875 269.625 192.394531 C 269.238281 191.121094 268.789062 189.867188 268.28125 188.632812 C 267.769531 187.402344 267.199219 186.199219 266.570312 185.023438 C 265.941406 183.847656 265.257812 182.707031 264.519531 181.597656 C 263.777344 180.488281 262.984375 179.417969 262.136719 178.386719 C 261.292969 177.355469 260.398438 176.371094 259.457031 175.429688 C 258.511719 174.484375 257.527344 173.589844 256.496094 172.746094 C 255.464844 171.898438 254.394531 171.105469 253.285156 170.367188 C 252.179688 169.625 251.035156 168.941406 249.859375 168.3125 C 248.683594 167.683594 247.480469 167.113281 246.25 166.605469 C 245.015625 166.09375 243.765625 165.644531 242.488281 165.257812 C 241.210938 164.871094 239.921875 164.546875 238.613281 164.289062 C 237.304688 164.027344 235.988281 163.832031 234.660156 163.703125 C 233.335938 163.570312 232.003906 163.503906 230.671875 163.503906 C 229.78125 163.503906 228.898438 163.417969 228.023438 163.246094 C 227.148438 163.070312 226.300781 162.8125 225.480469 162.472656 C 224.65625 162.132812 223.875 161.714844 223.132812 161.21875 C 222.390625 160.722656 221.707031 160.160156 221.078125 159.53125 C 220.445312 158.902344 219.882812 158.214844 219.390625 157.476562 C 218.894531 156.734375 218.476562 155.953125 218.136719 155.128906 C 217.792969 154.304688 217.535156 153.457031 217.363281 152.582031 C 217.1875 151.710938 217.101562 150.828125 217.101562 149.9375 C 217.101562 149.046875 217.1875 148.164062 217.363281 147.289062 C 217.535156 146.414062 217.792969 145.566406 218.136719 144.742188 C 218.476562 143.921875 218.894531 143.140625 219.390625 142.398438 C 219.882812 141.65625 220.445312 140.972656 221.078125 140.339844 C 221.707031 139.710938 222.390625 139.148438 223.132812 138.652344 C 223.875 138.160156 224.65625 137.742188 225.480469 137.398438 C 226.300781 137.058594 227.148438 136.800781 228.023438 136.628906 C 228.898438 136.453125 229.78125 136.367188 230.671875 136.367188 C 231.78125 136.367188 232.890625 136.394531 234 136.449219 C 235.109375 136.503906 236.214844 136.585938 237.320312 136.695312 C 238.425781 136.804688 239.527344 136.9375 240.625 137.101562 C 241.722656 137.265625 242.816406 137.453125 243.90625 137.671875 C 244.996094 137.886719 246.078125 138.132812 247.15625 138.402344 C 248.234375 138.671875 249.304688 138.964844 250.367188 139.289062 C 251.429688 139.609375 252.480469 139.960938 253.527344 140.332031 C 254.574219 140.707031 255.609375 141.105469 256.632812 141.53125 C 257.660156 141.957031 258.675781 142.40625 259.679688 142.882812 C 260.683594 143.355469 261.671875 143.855469 262.652344 144.378906 C 263.632812 144.902344 264.597656 145.449219 265.550781 146.019531 C 266.503906 146.589844 267.441406 147.183594 268.363281 147.800781 C 269.285156 148.417969 270.195312 149.058594 271.085938 149.71875 C 271.976562 150.378906 272.851562 151.0625 273.710938 151.765625 C 274.570312 152.472656 275.410156 153.195312 276.234375 153.941406 C 277.054688 154.6875 277.859375 155.453125 278.644531 156.238281 C 279.429688 157.023438 280.195312 157.828125 280.941406 158.652344 C 281.6875 159.472656 282.410156 160.3125 283.117188 161.171875 C 283.820312 162.03125 284.503906 162.90625 285.164062 163.796875 C 285.824219 164.6875 286.464844 165.597656 287.082031 166.519531 C 287.699219 167.441406 288.292969 168.378906 288.863281 169.332031 C 289.433594 170.285156 289.980469 171.25 290.503906 172.230469 C 291.027344 173.210938 291.527344 174.199219 292.003906 175.203125 C 292.476562 176.207031 292.925781 177.222656 293.351562 178.25 C 293.777344 179.273438 294.175781 180.308594 294.550781 181.355469 C 294.925781 182.402344 295.273438 183.457031 295.59375 184.519531 C 295.917969 185.582031 296.210938 186.648438 296.484375 187.726562 C 296.753906 188.804688 296.996094 189.886719 297.210938 190.976562 C 297.429688 192.066406 297.617188 193.160156 297.78125 194.257812 C 297.945312 195.355469 298.082031 196.457031 298.1875 197.5625 C 298.296875 198.667969 298.378906 199.773438 298.433594 200.882812 C 298.488281 201.992188 298.515625 203.101562 298.515625 204.210938 C 298.515625 205.101562 298.429688 205.984375 298.253906 206.859375 C 298.082031 207.734375 297.824219 208.582031 297.484375 209.40625 C 297.140625 210.226562 296.722656 211.007812 296.230469 211.75 C 295.734375 212.492188 295.171875 213.175781 294.542969 213.808594 C 293.910156 214.4375 293.226562 215 292.484375 215.492188 C 291.746094 215.988281 290.960938 216.40625 290.140625 216.746094 C 289.316406 217.089844 288.46875 217.347656 287.59375 217.519531 C 286.71875 217.695312 285.839844 217.78125 284.945312 217.78125 Z M 284.945312 217.78125 " fill-opacity="1" fill-rule="nonzero"/></svg>