<svg xmlns="http://www.w3.org/2000/svg" xmlns:xlink="http://www.w3.org/1999/xlink" width="1024" zoomAndPan="magnify" viewBox="0 0 768 767.999994" height="1024" preserveAspectRatio="xMidYMid meet" version="1.0"><defs><clipPath id="ecacd22d60"><path d="M 279 76.800781 L 489 76.800781 L 489 640 L 279 640 Z M 279 76.800781 " clip-rule="nonzero"/></clipPath></defs><path fill="#155dfb" d="M 11.1875 333.8125 L 150.304688 193.507812 C 151.914062 191.808594 153.679688 190.285156 155.601562 188.941406 C 157.519531 187.601562 159.554688 186.464844 161.707031 185.535156 C 163.855469 184.605469 166.078125 183.902344 168.371094 183.421875 C 170.664062 182.945312 172.980469 182.703125 175.324219 182.695312 C 177.058594 182.707031 178.785156 182.847656 180.503906 183.113281 C 182.21875 183.382812 183.90625 183.777344 185.5625 184.292969 C 187.21875 184.8125 188.828125 185.449219 190.394531 186.207031 C 191.957031 186.960938 193.453125 187.828125 194.890625 188.808594 C 196.324219 189.785156 197.679688 190.863281 198.953125 192.042969 C 200.226562 193.222656 201.410156 194.488281 202.496094 195.84375 C 203.582031 197.199219 204.566406 198.625 205.441406 200.125 C 206.316406 201.625 207.078125 203.179688 207.722656 204.792969 C 208.367188 206.40625 208.890625 208.054688 209.292969 209.746094 C 209.691406 211.433594 209.964844 213.144531 210.113281 214.875 C 210.261719 216.605469 210.28125 218.335938 210.171875 220.070312 C 210.0625 221.804688 209.824219 223.519531 209.460938 225.21875 C 209.097656 226.914062 208.613281 228.578125 208.003906 230.203125 C 207.394531 231.828125 206.667969 233.402344 205.824219 234.921875 C 204.980469 236.4375 204.03125 237.886719 202.976562 239.265625 C 201.917969 240.644531 200.765625 241.933594 199.515625 243.144531 L 84.871094 358.765625 L 199.515625 474.394531 C 200.765625 475.601562 201.917969 476.894531 202.976562 478.273438 C 204.03125 479.648438 204.984375 481.097656 205.824219 482.617188 C 206.667969 484.132812 207.394531 485.707031 208.003906 487.332031 C 208.613281 488.960938 209.097656 490.621094 209.460938 492.320312 C 209.824219 494.015625 210.0625 495.734375 210.171875 497.464844 C 210.28125 499.199219 210.261719 500.929688 210.113281 502.660156 C 209.964844 504.390625 209.691406 506.101562 209.292969 507.792969 C 208.890625 509.480469 208.367188 511.132812 207.722656 512.742188 C 207.078125 514.355469 206.316406 515.910156 205.441406 517.410156 C 204.566406 518.910156 203.582031 520.335938 202.496094 521.691406 C 201.410156 523.046875 200.226562 524.3125 198.953125 525.492188 C 197.679688 526.671875 196.324219 527.75 194.890625 528.726562 C 193.453125 529.707031 191.957031 530.574219 190.394531 531.332031 C 188.828125 532.085938 187.21875 532.722656 185.5625 533.242188 C 183.90625 533.761719 182.21875 534.152344 180.503906 534.421875 C 178.785156 534.6875 177.058594 534.828125 175.324219 534.839844 C 172.980469 534.832031 170.664062 534.589844 168.371094 534.113281 C 166.078125 533.632812 163.855469 532.929688 161.703125 532 C 159.554688 531.070312 157.519531 529.933594 155.601562 528.59375 C 153.679688 527.25 151.914062 525.726562 150.304688 524.027344 L 11.1875 383.445312 C 9.5625 381.828125 8.113281 380.070312 6.839844 378.164062 C 5.566406 376.261719 4.492188 374.25 3.617188 372.128906 C 2.746094 370.011719 2.089844 367.828125 1.652344 365.578125 C 1.210938 363.328125 1 361.058594 1.015625 358.765625 C 1 356.457031 1.210938 354.164062 1.648438 351.894531 C 2.085938 349.625 2.742188 347.417969 3.613281 345.277344 C 4.488281 343.136719 5.5625 341.101562 6.835938 339.171875 C 8.109375 337.242188 9.558594 335.457031 11.1875 333.8125 Z M 617.421875 193.507812 C 615.816406 191.796875 614.058594 190.265625 612.140625 188.917969 C 610.222656 187.566406 608.1875 186.429688 606.035156 185.496094 C 603.882812 184.566406 601.660156 183.867188 599.363281 183.394531 C 597.066406 182.921875 594.746094 182.6875 592.402344 182.695312 C 591.257812 182.703125 590.117188 182.765625 588.976562 182.886719 C 587.839844 183.007812 586.710938 183.183594 585.589844 183.414062 C 584.46875 183.644531 583.363281 183.929688 582.269531 184.269531 C 581.175781 184.609375 580.101562 185.003906 579.050781 185.449219 C 577.996094 185.894531 576.964844 186.394531 575.960938 186.941406 C 574.957031 187.488281 573.980469 188.082031 573.03125 188.726562 C 572.085938 189.367188 571.175781 190.058594 570.296875 190.789062 C 569.417969 191.523438 568.574219 192.296875 567.773438 193.113281 C 566.96875 193.929688 566.210938 194.78125 565.492188 195.671875 C 564.773438 196.5625 564.101562 197.488281 563.472656 198.445312 C 562.84375 199.402344 562.265625 200.386719 561.734375 201.402344 C 561.203125 202.414062 560.722656 203.453125 560.296875 204.515625 C 559.867188 205.574219 559.492188 206.65625 559.167969 207.753906 C 558.847656 208.851562 558.578125 209.960938 558.367188 211.085938 C 558.152344 212.210938 557.996094 213.34375 557.894531 214.484375 C 557.792969 215.625 557.75 216.765625 557.757812 217.910156 C 557.769531 220.25 558.003906 222.570312 558.46875 224.863281 C 558.929688 227.160156 559.609375 229.390625 560.503906 231.554688 C 561.398438 233.714844 562.496094 235.773438 563.792969 237.722656 C 565.085938 239.671875 566.558594 241.480469 568.207031 243.144531 L 682.855469 358.765625 L 568.207031 474.394531 C 566.558594 476.058594 565.085938 477.863281 563.789062 479.8125 C 562.496094 481.765625 561.398438 483.820312 560.503906 485.984375 C 559.605469 488.148438 558.929688 490.375 558.46875 492.671875 C 558.003906 494.96875 557.769531 497.285156 557.757812 499.628906 C 557.75 500.773438 557.792969 501.914062 557.894531 503.054688 C 557.996094 504.195312 558.152344 505.324219 558.367188 506.449219 C 558.578125 507.574219 558.847656 508.6875 559.167969 509.785156 C 559.492188 510.882812 559.867188 511.960938 560.296875 513.023438 C 560.722656 514.082031 561.203125 515.121094 561.734375 516.136719 C 562.265625 517.148438 562.84375 518.132812 563.472656 519.089844 C 564.101562 520.046875 564.773438 520.972656 565.492188 521.863281 C 566.210938 522.753906 566.972656 523.605469 567.773438 524.421875 C 568.574219 525.238281 569.417969 526.011719 570.296875 526.746094 C 571.175781 527.480469 572.085938 528.167969 573.035156 528.808594 C 573.980469 529.453125 574.957031 530.046875 575.960938 530.597656 C 576.964844 531.144531 577.996094 531.640625 579.050781 532.085938 C 580.101562 532.53125 581.175781 532.925781 582.269531 533.265625 C 583.363281 533.605469 584.46875 533.890625 585.589844 534.121094 C 586.710938 534.355469 587.839844 534.53125 588.976562 534.648438 C 590.117188 534.769531 591.257812 534.832031 592.402344 534.839844 C 594.746094 534.847656 597.066406 534.613281 599.363281 534.140625 C 601.660156 533.667969 603.882812 532.96875 606.035156 532.039062 C 608.1875 531.109375 610.222656 529.96875 612.140625 528.617188 C 614.058594 527.269531 615.816406 525.738281 617.421875 524.027344 L 756.8125 383.445312 C 758.4375 381.828125 759.886719 380.070312 761.160156 378.164062 C 762.433594 376.261719 763.507812 374.25 764.382812 372.128906 C 765.253906 370.011719 765.910156 367.828125 766.347656 365.578125 C 766.785156 363.328125 767 361.058594 766.984375 358.765625 C 767 356.457031 766.789062 354.164062 766.351562 351.894531 C 765.914062 349.625 765.257812 347.417969 764.386719 345.277344 C 763.511719 343.136719 762.4375 341.101562 761.164062 339.171875 C 759.890625 337.242188 758.441406 335.457031 756.8125 333.8125 Z M 617.421875 193.507812 " fill-opacity="1" fill-rule="nonzero"/><g clip-path="url(#ecacd22d60)"><path fill="#aec9ea" d="M 347.707031 614.144531 L 487.101562 122.523438 C 488.191406 119 488.742188 115.398438 488.75 111.710938 C 488.761719 110.648438 488.726562 109.589844 488.640625 108.53125 C 488.554688 107.472656 488.421875 106.421875 488.242188 105.375 C 488.058594 104.332031 487.832031 103.296875 487.554688 102.269531 C 487.28125 101.246094 486.957031 100.238281 486.589844 99.242188 C 486.222656 98.246094 485.808594 97.269531 485.351562 96.3125 C 484.894531 95.355469 484.394531 94.421875 483.851562 93.507812 C 483.308594 92.597656 482.726562 91.710938 482.101562 90.851562 C 481.480469 89.996094 480.816406 89.164062 480.117188 88.367188 C 479.417969 87.570312 478.683594 86.804688 477.914062 86.074219 C 477.144531 85.34375 476.34375 84.648438 475.511719 83.992188 C 474.679688 83.332031 473.820312 82.714844 472.929688 82.136719 C 472.039062 81.558594 471.125 81.019531 470.1875 80.523438 C 469.25 80.03125 468.289062 79.578125 467.3125 79.171875 C 466.332031 78.761719 465.335938 78.398438 464.320312 78.082031 C 463.308594 77.765625 462.285156 77.496094 461.246094 77.273438 C 460.210938 77.050781 459.164062 76.875 458.109375 76.746094 C 457.058594 76.621094 456 76.542969 454.9375 76.511719 C 453.878906 76.480469 452.820312 76.496094 451.757812 76.5625 C 450.699219 76.628906 449.648438 76.742188 448.597656 76.90625 C 447.550781 77.066406 446.511719 77.277344 445.480469 77.535156 C 444.453125 77.792969 443.4375 78.097656 442.433594 78.445312 C 441.433594 78.796875 440.449219 79.191406 439.484375 79.632812 C 438.519531 80.074219 437.574219 80.554688 436.652344 81.082031 C 435.730469 81.609375 434.835938 82.175781 433.964844 82.785156 C 433.097656 83.390625 432.257812 84.039062 431.445312 84.722656 C 430.636719 85.410156 429.859375 86.128906 429.113281 86.886719 C 428.371094 87.640625 427.660156 88.429688 426.988281 89.25 C 426.316406 90.070312 425.683594 90.921875 425.085938 91.800781 C 424.492188 92.679688 423.941406 93.582031 423.425781 94.511719 C 422.914062 95.441406 422.445312 96.390625 422.019531 97.363281 C 421.597656 98.335938 421.214844 99.328125 420.882812 100.332031 C 420.546875 101.339844 420.257812 102.359375 420.015625 103.394531 L 280.898438 595.011719 C 280.015625 598.1875 279.558594 601.421875 279.523438 604.71875 C 279.515625 606.601562 279.65625 608.476562 279.953125 610.335938 C 280.25 612.199219 280.691406 614.023438 281.285156 615.8125 C 281.878906 617.601562 282.613281 619.332031 283.492188 621 C 284.367188 622.671875 285.371094 624.257812 286.507812 625.761719 C 287.640625 627.269531 288.890625 628.671875 290.253906 629.972656 C 291.617188 631.273438 293.078125 632.457031 294.636719 633.519531 C 296.191406 634.582031 297.824219 635.511719 299.53125 636.308594 C 301.242188 637.105469 303.003906 637.757812 304.816406 638.265625 C 307.964844 639.160156 311.171875 639.621094 314.441406 639.652344 C 316.324219 639.652344 318.191406 639.5 320.050781 639.195312 C 321.90625 638.886719 323.726562 638.433594 325.507812 637.828125 C 327.289062 637.222656 329.011719 636.476562 330.671875 635.589844 C 332.332031 634.703125 333.90625 633.6875 335.402344 632.542969 C 336.894531 631.394531 338.285156 630.136719 339.570312 628.765625 C 340.859375 627.390625 342.027344 625.921875 343.074219 624.359375 C 344.117188 622.792969 345.03125 621.15625 345.808594 619.441406 C 346.585938 617.726562 347.21875 615.960938 347.707031 614.144531 Z M 347.707031 614.144531 " fill-opacity="1" fill-rule="evenodd"/></g></svg>