<svg xmlns="http://www.w3.org/2000/svg" xmlns:xlink="http://www.w3.org/1999/xlink" width="1024" zoomAndPan="magnify" viewBox="0 0 768 767.999994" height="1024" preserveAspectRatio="xMidYMid meet" version="1.0"><path fill="#8ed9f8" d="M 503.867188 384.285156 C 503.867188 386.242188 503.820312 388.199219 503.726562 390.15625 C 503.628906 392.109375 503.484375 394.058594 503.292969 396.007812 C 503.101562 397.957031 502.863281 399.898438 502.574219 401.832031 C 502.289062 403.769531 501.953125 405.695312 501.570312 407.617188 C 501.1875 409.535156 500.761719 411.445312 500.285156 413.34375 C 499.808594 415.242188 499.289062 417.125 498.71875 419 C 498.152344 420.871094 497.539062 422.730469 496.878906 424.574219 C 496.21875 426.414062 495.515625 428.242188 494.765625 430.046875 C 494.015625 431.855469 493.222656 433.644531 492.386719 435.414062 C 491.550781 437.183594 490.671875 438.929688 489.75 440.65625 C 488.824219 442.382812 487.863281 444.085938 486.855469 445.765625 C 485.847656 447.441406 484.804688 449.097656 483.714844 450.722656 C 482.628906 452.351562 481.5 453.949219 480.335938 455.523438 C 479.171875 457.09375 477.964844 458.636719 476.726562 460.148438 C 475.484375 461.660156 474.207031 463.144531 472.890625 464.59375 C 471.578125 466.042969 470.226562 467.460938 468.84375 468.84375 C 467.460938 470.226562 466.042969 471.578125 464.59375 472.890625 C 463.144531 474.207031 461.660156 475.484375 460.148438 476.726562 C 458.636719 477.964844 457.09375 479.171875 455.523438 480.335938 C 453.949219 481.5 452.351562 482.628906 450.722656 483.714844 C 449.097656 484.804688 447.441406 485.847656 445.765625 486.855469 C 444.085938 487.863281 442.382812 488.828125 440.65625 489.75 C 438.929688 490.671875 437.183594 491.550781 435.414062 492.386719 C 433.644531 493.222656 431.855469 494.015625 430.050781 494.765625 C 428.242188 495.515625 426.414062 496.21875 424.574219 496.878906 C 422.730469 497.539062 420.871094 498.152344 419 498.71875 C 417.125 499.289062 415.242188 499.808594 413.34375 500.285156 C 411.445312 500.761719 409.535156 501.1875 407.617188 501.570312 C 405.695312 501.953125 403.769531 502.289062 401.832031 502.574219 C 399.898438 502.863281 397.957031 503.101562 396.007812 503.292969 C 394.058594 503.484375 392.109375 503.628906 390.15625 503.726562 C 388.199219 503.820312 386.242188 503.867188 384.285156 503.867188 C 382.328125 503.867188 380.375 503.820312 378.417969 503.726562 C 376.464844 503.628906 374.511719 503.484375 372.566406 503.292969 C 370.617188 503.101562 368.675781 502.863281 366.742188 502.574219 C 364.804688 502.289062 362.875 501.953125 360.957031 501.570312 C 359.039062 501.1875 357.128906 500.761719 355.230469 500.285156 C 353.332031 499.808594 351.445312 499.289062 349.574219 498.71875 C 347.699219 498.152344 345.84375 497.539062 344 496.878906 C 342.15625 496.21875 340.332031 495.515625 338.523438 494.765625 C 336.714844 494.015625 334.929688 493.222656 333.160156 492.386719 C 331.390625 491.550781 329.640625 490.671875 327.917969 489.75 C 326.191406 488.824219 324.488281 487.863281 322.808594 486.855469 C 321.128906 485.847656 319.476562 484.804688 317.851562 483.714844 C 316.222656 482.628906 314.625 481.5 313.050781 480.335938 C 311.480469 479.171875 309.9375 477.964844 308.425781 476.726562 C 306.910156 475.484375 305.429688 474.207031 303.980469 472.890625 C 302.53125 471.578125 301.113281 470.226562 299.730469 468.84375 C 298.34375 467.460938 296.996094 466.042969 295.683594 464.59375 C 294.367188 463.144531 293.089844 461.660156 291.847656 460.148438 C 290.605469 458.636719 289.402344 457.09375 288.238281 455.523438 C 287.070312 453.949219 285.945312 452.351562 284.859375 450.722656 C 283.769531 449.097656 282.722656 447.441406 281.71875 445.765625 C 280.710938 444.085938 279.746094 442.382812 278.824219 440.65625 C 277.902344 438.929688 277.023438 437.183594 276.1875 435.414062 C 275.347656 433.644531 274.554688 431.855469 273.808594 430.050781 C 273.058594 428.242188 272.355469 426.414062 271.695312 424.574219 C 271.035156 422.730469 270.421875 420.871094 269.855469 419 C 269.285156 417.125 268.765625 415.242188 268.289062 413.34375 C 267.8125 411.445312 267.382812 409.535156 267.003906 407.617188 C 266.621094 405.695312 266.285156 403.769531 266 401.832031 C 265.710938 399.898438 265.472656 397.957031 265.28125 396.007812 C 265.089844 394.058594 264.945312 392.109375 264.847656 390.15625 C 264.753906 388.199219 264.703125 386.242188 264.703125 384.285156 C 264.703125 382.328125 264.753906 380.375 264.847656 378.417969 C 264.945312 376.464844 265.089844 374.511719 265.28125 372.566406 C 265.472656 370.617188 265.710938 368.675781 266 366.742188 C 266.285156 364.804688 266.621094 362.875 267.003906 360.957031 C 267.382812 359.039062 267.8125 357.128906 268.289062 355.230469 C 268.765625 353.332031 269.285156 351.445312 269.855469 349.574219 C 270.421875 347.699219 271.035156 345.84375 271.695312 344 C 272.355469 342.15625 273.058594 340.332031 273.808594 338.523438 C 274.554688 336.714844 275.347656 334.929688 276.1875 333.160156 C 277.023438 331.390625 277.902344 329.640625 278.824219 327.917969 C 279.746094 326.191406 280.710938 324.488281 281.71875 322.808594 C 282.722656 321.128906 283.769531 319.476562 284.859375 317.851562 C 285.945312 316.222656 287.070312 314.625 288.238281 313.050781 C 289.402344 311.480469 290.605469 309.9375 291.847656 308.425781 C 293.089844 306.910156 294.367188 305.429688 295.683594 303.980469 C 296.996094 302.53125 298.34375 301.113281 299.730469 299.730469 C 301.113281 298.34375 302.53125 296.996094 303.980469 295.683594 C 305.429688 294.367188 306.910156 293.089844 308.425781 291.847656 C 309.9375 290.605469 311.480469 289.402344 313.050781 288.238281 C 314.625 287.070312 316.222656 285.945312 317.851562 284.859375 C 319.476562 283.769531 321.128906 282.722656 322.808594 281.71875 C 324.488281 280.710938 326.191406 279.746094 327.917969 278.824219 C 329.640625 277.902344 331.390625 277.023438 333.160156 276.1875 C 334.929688 275.347656 336.714844 274.554688 338.523438 273.808594 C 340.332031 273.058594 342.15625 272.355469 344 271.695312 C 345.84375 271.035156 347.699219 270.421875 349.574219 269.855469 C 351.445312 269.285156 353.332031 268.765625 355.230469 268.289062 C 357.128906 267.8125 359.039062 267.382812 360.957031 267.003906 C 362.875 266.621094 364.804688 266.285156 366.742188 266 C 368.675781 265.710938 370.617188 265.472656 372.566406 265.28125 C 374.511719 265.089844 376.464844 264.945312 378.417969 264.847656 C 380.375 264.753906 382.328125 264.703125 384.285156 264.703125 C 386.242188 264.703125 388.199219 264.753906 390.15625 264.847656 C 392.109375 264.945312 394.058594 265.089844 396.007812 265.28125 C 397.957031 265.472656 399.898438 265.710938 401.832031 266 C 403.769531 266.285156 405.695312 266.621094 407.617188 267.003906 C 409.535156 267.382812 411.445312 267.8125 413.34375 268.289062 C 415.242188 268.765625 417.125 269.285156 419 269.855469 C 420.871094 270.421875 422.730469 271.035156 424.574219 271.695312 C 426.414062 272.355469 428.242188 273.058594 430.046875 273.808594 C 431.855469 274.554688 433.644531 275.347656 435.414062 276.1875 C 437.183594 277.023438 438.929688 277.902344 440.65625 278.824219 C 442.382812 279.746094 444.085938 280.710938 445.765625 281.71875 C 447.441406 282.722656 449.097656 283.769531 450.722656 284.859375 C 452.351562 285.945312 453.949219 287.070312 455.523438 288.238281 C 457.09375 289.402344 458.636719 290.605469 460.148438 291.847656 C 461.660156 293.089844 463.144531 294.367188 464.59375 295.683594 C 466.042969 296.996094 467.460938 298.34375 468.84375 299.730469 C 470.226562 301.113281 471.578125 302.53125 472.890625 303.980469 C 474.207031 305.429688 475.484375 306.910156 476.726562 308.425781 C 477.964844 309.9375 479.171875 311.480469 480.335938 313.050781 C 481.5 314.625 482.628906 316.222656 483.714844 317.851562 C 484.804688 319.476562 485.847656 321.128906 486.855469 322.808594 C 487.863281 324.488281 488.824219 326.191406 489.75 327.917969 C 490.671875 329.640625 491.550781 331.390625 492.386719 333.160156 C 493.222656 334.929688 494.015625 336.714844 494.765625 338.523438 C 495.515625 340.332031 496.21875 342.15625 496.878906 344 C 497.539062 345.84375 498.152344 347.699219 498.71875 349.574219 C 499.289062 351.445312 499.808594 353.332031 500.285156 355.230469 C 500.761719 357.128906 501.1875 359.039062 501.570312 360.957031 C 501.953125 362.875 502.289062 364.804688 502.574219 366.742188 C 502.863281 368.675781 503.101562 370.617188 503.292969 372.566406 C 503.484375 374.511719 503.628906 376.464844 503.726562 378.417969 C 503.820312 380.375 503.867188 382.328125 503.867188 384.285156 Z M 503.867188 384.285156 " fill-opacity="1" fill-rule="nonzero"/><path fill="#1fb6eb" d="M 399.789062 43.71875 C 399.480469 43.71875 399.171875 43.707031 398.859375 43.699219 C 394.027344 43.492188 389.167969 43.390625 384.285156 43.390625 C 383.574219 43.386719 382.863281 43.351562 382.152344 43.28125 C 381.445312 43.210938 380.738281 43.105469 380.039062 42.964844 C 379.339844 42.824219 378.652344 42.652344 377.96875 42.441406 C 377.285156 42.234375 376.617188 41.992188 375.957031 41.71875 C 375.300781 41.445312 374.65625 41.140625 374.027344 40.804688 C 373.398438 40.46875 372.789062 40.101562 372.195312 39.703125 C 371.605469 39.308594 371.03125 38.882812 370.480469 38.429688 C 369.929688 37.976562 369.402344 37.496094 368.898438 36.992188 C 368.394531 36.488281 367.917969 35.960938 367.464844 35.410156 C 367.015625 34.859375 366.589844 34.285156 366.195312 33.691406 C 365.800781 33.097656 365.433594 32.488281 365.097656 31.859375 C 364.761719 31.230469 364.457031 30.585938 364.183594 29.925781 C 363.914062 29.269531 363.671875 28.597656 363.464844 27.914062 C 363.257812 27.234375 363.085938 26.542969 362.949219 25.84375 C 362.808594 25.144531 362.703125 24.4375 362.632812 23.730469 C 362.5625 23.019531 362.53125 22.308594 362.53125 21.59375 C 362.53125 20.882812 362.5625 20.171875 362.632812 19.460938 C 362.703125 18.75 362.808594 18.046875 362.949219 17.347656 C 363.085938 16.648438 363.257812 15.957031 363.464844 15.277344 C 363.671875 14.59375 363.914062 13.921875 364.183594 13.261719 C 364.457031 12.605469 364.761719 11.960938 365.097656 11.332031 C 365.433594 10.703125 365.800781 10.089844 366.195312 9.5 C 366.589844 8.90625 367.015625 8.332031 367.464844 7.78125 C 367.917969 7.230469 368.394531 6.703125 368.898438 6.199219 C 369.402344 5.691406 369.929688 5.214844 370.480469 4.761719 C 371.03125 4.308594 371.605469 3.882812 372.195312 3.488281 C 372.789062 3.089844 373.398438 2.722656 374.027344 2.386719 C 374.65625 2.050781 375.300781 1.746094 375.957031 1.472656 C 376.617188 1.195312 377.285156 0.957031 377.96875 0.75 C 378.652344 0.539062 379.339844 0.367188 380.039062 0.226562 C 380.738281 0.0859375 381.445312 -0.0195312 382.152344 -0.0898438 C 382.863281 -0.160156 383.574219 -0.199219 384.285156 -0.199219 C 389.78125 -0.199219 395.25 -0.0859375 400.6875 0.144531 C 401.390625 0.171875 402.089844 0.234375 402.789062 0.332031 C 403.484375 0.429688 404.175781 0.5625 404.863281 0.726562 C 405.546875 0.890625 406.222656 1.085938 406.886719 1.316406 C 407.554688 1.546875 408.207031 1.808594 408.847656 2.101562 C 409.488281 2.394531 410.113281 2.71875 410.71875 3.070312 C 411.328125 3.425781 411.917969 3.808594 412.492188 4.21875 C 413.0625 4.628906 413.613281 5.066406 414.144531 5.53125 C 414.671875 5.996094 415.179688 6.484375 415.660156 6.996094 C 416.144531 7.507812 416.601562 8.042969 417.03125 8.601562 C 417.460938 9.160156 417.863281 9.738281 418.238281 10.332031 C 418.613281 10.929688 418.957031 11.542969 419.269531 12.171875 C 419.585938 12.800781 419.871094 13.445312 420.121094 14.101562 C 420.375 14.761719 420.59375 15.429688 420.78125 16.105469 C 420.96875 16.785156 421.125 17.472656 421.246094 18.164062 C 421.367188 18.859375 421.457031 19.558594 421.507812 20.257812 C 421.5625 20.960938 421.582031 21.664062 421.566406 22.367188 C 421.554688 23.074219 421.503906 23.773438 421.421875 24.472656 C 421.339844 25.171875 421.222656 25.867188 421.074219 26.554688 C 420.925781 27.242188 420.742188 27.921875 420.527344 28.59375 C 420.308594 29.261719 420.0625 29.921875 419.785156 30.566406 C 419.503906 31.214844 419.195312 31.84375 418.855469 32.460938 C 418.511719 33.078125 418.144531 33.675781 417.746094 34.257812 C 417.347656 34.839844 416.921875 35.398438 416.46875 35.9375 C 416.015625 36.476562 415.539062 36.992188 415.035156 37.484375 C 414.53125 37.976562 414.007812 38.445312 413.457031 38.886719 C 412.910156 39.328125 412.339844 39.746094 411.753906 40.132812 C 411.164062 40.519531 410.558594 40.875 409.9375 41.203125 C 409.3125 41.53125 408.675781 41.828125 408.023438 42.097656 C 407.371094 42.363281 406.707031 42.597656 406.035156 42.800781 C 405.359375 43 404.675781 43.171875 403.984375 43.308594 C 403.296875 43.441406 402.597656 43.546875 401.898438 43.613281 C 401.199219 43.683594 400.496094 43.71875 399.789062 43.71875 Z M 399.789062 43.71875 " fill-opacity="1" fill-rule="nonzero"/><path fill="#1fb6eb" d="M 410.476562 767.84375 C 409.777344 767.84375 409.082031 767.808594 408.386719 767.742188 C 407.695312 767.671875 407.003906 767.570312 406.320312 767.4375 C 405.636719 767.304688 404.957031 767.140625 404.289062 766.941406 C 403.621094 766.742188 402.964844 766.511719 402.316406 766.25 C 401.671875 765.988281 401.039062 765.695312 400.421875 765.375 C 399.800781 765.050781 399.199219 764.699219 398.617188 764.320312 C 398.03125 763.9375 397.464844 763.53125 396.921875 763.097656 C 396.375 762.664062 395.851562 762.203125 395.351562 761.71875 C 394.847656 761.234375 394.371094 760.726562 393.917969 760.195312 C 393.464844 759.664062 393.039062 759.113281 392.640625 758.542969 C 392.238281 757.972656 391.867188 757.382812 391.523438 756.777344 C 391.179688 756.167969 390.867188 755.546875 390.585938 754.910156 C 390.300781 754.273438 390.046875 753.621094 389.828125 752.960938 C 389.605469 752.300781 389.417969 751.628906 389.257812 750.949219 C 389.101562 750.269531 388.980469 749.585938 388.886719 748.894531 C 388.796875 748.203125 388.738281 747.507812 388.714844 746.8125 C 388.691406 746.113281 388.699219 745.417969 388.742188 744.722656 C 388.785156 744.023438 388.859375 743.332031 388.96875 742.644531 C 389.078125 741.953125 389.21875 741.273438 389.394531 740.597656 C 389.566406 739.921875 389.773438 739.257812 390.011719 738.601562 C 390.25 737.945312 390.519531 737.304688 390.820312 736.671875 C 391.117188 736.042969 391.449219 735.429688 391.804688 734.832031 C 392.164062 734.234375 392.550781 733.65625 392.964844 733.09375 C 393.382812 732.53125 393.820312 731.992188 394.289062 731.472656 C 394.753906 730.957031 395.242188 730.460938 395.757812 729.988281 C 396.269531 729.515625 396.804688 729.070312 397.363281 728.652344 C 397.917969 728.230469 398.496094 727.839844 399.089844 727.472656 C 399.683594 727.109375 400.292969 726.773438 400.921875 726.464844 C 401.546875 726.160156 402.1875 725.882812 402.839844 725.640625 C 403.492188 725.394531 404.15625 725.179688 404.828125 725 C 405.503906 724.816406 406.183594 724.667969 406.871094 724.554688 C 407.558594 724.4375 408.25 724.355469 408.945312 724.304688 C 418.320312 723.636719 427.765625 722.566406 437.023438 721.132812 C 437.730469 721.023438 438.4375 720.949219 439.148438 720.910156 C 439.863281 720.871094 440.574219 720.867188 441.289062 720.898438 C 442 720.929688 442.710938 720.996094 443.414062 721.097656 C 444.121094 721.195312 444.820312 721.332031 445.511719 721.5 C 446.207031 721.671875 446.890625 721.875 447.5625 722.109375 C 448.234375 722.347656 448.894531 722.613281 449.539062 722.914062 C 450.1875 723.21875 450.816406 723.550781 451.429688 723.910156 C 452.046875 724.273438 452.640625 724.667969 453.214844 725.089844 C 453.789062 725.511719 454.34375 725.957031 454.875 726.433594 C 455.40625 726.910156 455.914062 727.410156 456.394531 727.9375 C 456.878906 728.460938 457.332031 729.007812 457.761719 729.578125 C 458.191406 730.148438 458.589844 730.738281 458.960938 731.347656 C 459.332031 731.957031 459.671875 732.582031 459.980469 733.226562 C 460.289062 733.867188 460.566406 734.523438 460.8125 735.195312 C 461.054688 735.863281 461.265625 736.546875 461.445312 737.234375 C 461.621094 737.925781 461.765625 738.625 461.875 739.328125 C 461.984375 740.035156 462.058594 740.742188 462.097656 741.453125 C 462.140625 742.167969 462.144531 742.878906 462.113281 743.589844 C 462.085938 744.304688 462.019531 745.011719 461.917969 745.71875 C 461.820312 746.425781 461.6875 747.125 461.519531 747.816406 C 461.347656 748.511719 461.148438 749.195312 460.910156 749.867188 C 460.675781 750.539062 460.410156 751.199219 460.109375 751.847656 C 459.808594 752.496094 459.476562 753.125 459.113281 753.738281 C 458.753906 754.355469 458.363281 754.949219 457.941406 755.523438 C 457.519531 756.101562 457.074219 756.65625 456.597656 757.1875 C 456.121094 757.71875 455.621094 758.226562 455.097656 758.710938 C 454.574219 759.191406 454.027344 759.648438 453.457031 760.078125 C 452.886719 760.507812 452.296875 760.90625 451.6875 761.277344 C 451.082031 761.648438 450.453125 761.992188 449.8125 762.300781 C 449.171875 762.609375 448.515625 762.886719 447.84375 763.132812 C 447.175781 763.378906 446.496094 763.59375 445.804688 763.769531 C 445.113281 763.949219 444.417969 764.09375 443.710938 764.203125 C 433.273438 765.828125 422.617188 767.03125 412.050781 767.785156 C 411.523438 767.824219 410.996094 767.84375 410.476562 767.84375 Z M 319 762.914062 C 317.679688 762.914062 316.371094 762.796875 315.074219 762.558594 C 304.660156 760.664062 294.195312 758.308594 283.964844 755.546875 C 283.277344 755.363281 282.597656 755.144531 281.929688 754.890625 C 281.261719 754.636719 280.609375 754.351562 279.96875 754.035156 C 279.332031 753.71875 278.707031 753.371094 278.101562 752.992188 C 277.496094 752.617188 276.910156 752.210938 276.34375 751.773438 C 275.78125 751.339844 275.238281 750.875 274.71875 750.386719 C 274.195312 749.898438 273.703125 749.386719 273.230469 748.847656 C 272.761719 748.308594 272.320312 747.75 271.90625 747.171875 C 271.492188 746.589844 271.105469 745.988281 270.75 745.371094 C 270.394531 744.75 270.070312 744.117188 269.773438 743.464844 C 269.480469 742.816406 269.21875 742.152344 268.992188 741.476562 C 268.765625 740.800781 268.570312 740.113281 268.410156 739.417969 C 268.246094 738.722656 268.121094 738.019531 268.027344 737.3125 C 267.9375 736.605469 267.878906 735.894531 267.859375 735.179688 C 267.835938 734.46875 267.847656 733.753906 267.898438 733.042969 C 267.945312 732.328125 268.027344 731.621094 268.144531 730.917969 C 268.261719 730.214844 268.414062 729.515625 268.601562 728.828125 C 268.785156 728.136719 269.003906 727.460938 269.257812 726.792969 C 269.511719 726.125 269.792969 725.472656 270.113281 724.832031 C 270.429688 724.191406 270.777344 723.570312 271.152344 722.964844 C 271.53125 722.359375 271.9375 721.773438 272.375 721.207031 C 272.808594 720.640625 273.273438 720.097656 273.761719 719.578125 C 274.25 719.058594 274.761719 718.5625 275.300781 718.09375 C 275.835938 717.625 276.398438 717.179688 276.976562 716.765625 C 277.558594 716.351562 278.160156 715.964844 278.777344 715.609375 C 279.394531 715.253906 280.03125 714.929688 280.683594 714.636719 C 281.332031 714.34375 281.996094 714.082031 282.671875 713.851562 C 283.347656 713.625 284.035156 713.429688 284.730469 713.269531 C 285.425781 713.109375 286.128906 712.980469 286.835938 712.890625 C 287.542969 712.796875 288.253906 712.742188 288.96875 712.71875 C 289.679688 712.695312 290.394531 712.710938 291.105469 712.757812 C 291.816406 712.804688 292.527344 712.886719 293.230469 713.003906 C 293.933594 713.125 294.632812 713.273438 295.320312 713.460938 C 304.378906 715.90625 313.648438 717.992188 322.871094 719.667969 C 323.535156 719.789062 324.1875 719.941406 324.835938 720.121094 C 325.484375 720.300781 326.121094 720.511719 326.75 720.753906 C 327.378906 720.992188 327.996094 721.261719 328.597656 721.558594 C 329.203125 721.855469 329.792969 722.179688 330.363281 722.53125 C 330.9375 722.882812 331.492188 723.261719 332.03125 723.664062 C 332.570312 724.066406 333.089844 724.496094 333.589844 724.945312 C 334.085938 725.398438 334.566406 725.871094 335.019531 726.363281 C 335.476562 726.859375 335.90625 727.375 336.3125 727.910156 C 336.722656 728.445312 337.105469 729 337.460938 729.570312 C 337.816406 730.140625 338.144531 730.726562 338.449219 731.328125 C 338.75 731.925781 339.023438 732.542969 339.269531 733.167969 C 339.515625 733.792969 339.730469 734.429688 339.917969 735.078125 C 340.101562 735.722656 340.257812 736.375 340.382812 737.039062 C 340.511719 737.699219 340.605469 738.363281 340.667969 739.03125 C 340.734375 739.703125 340.765625 740.375 340.769531 741.046875 C 340.769531 741.71875 340.742188 742.390625 340.683594 743.058594 C 340.621094 743.730469 340.53125 744.394531 340.410156 745.058594 C 340.289062 745.71875 340.136719 746.375 339.953125 747.019531 C 339.773438 747.667969 339.558594 748.304688 339.320312 748.933594 C 339.078125 749.5625 338.808594 750.179688 338.507812 750.78125 C 338.210938 751.382812 337.886719 751.972656 337.53125 752.542969 C 337.179688 753.117188 336.800781 753.671875 336.398438 754.210938 C 335.992188 754.746094 335.566406 755.265625 335.113281 755.765625 C 334.660156 756.261719 334.1875 756.738281 333.691406 757.191406 C 333.195312 757.648438 332.679688 758.078125 332.144531 758.484375 C 331.605469 758.890625 331.054688 759.269531 330.484375 759.625 C 329.910156 759.980469 329.324219 760.308594 328.722656 760.609375 C 328.121094 760.910156 327.507812 761.183594 326.878906 761.429688 C 326.253906 761.671875 325.617188 761.886719 324.96875 762.070312 C 324.324219 762.257812 323.671875 762.410156 323.007812 762.535156 C 322.347656 762.660156 321.683594 762.753906 321.011719 762.816406 C 320.34375 762.878906 319.671875 762.914062 319 762.914062 Z M 528.417969 739.015625 C 527.175781 739.015625 525.941406 738.910156 524.714844 738.699219 C 523.488281 738.488281 522.289062 738.175781 521.117188 737.757812 C 519.945312 737.34375 518.816406 736.828125 517.730469 736.21875 C 516.648438 735.609375 515.621094 734.914062 514.65625 734.128906 C 513.691406 733.34375 512.800781 732.484375 511.984375 731.546875 C 511.167969 730.605469 510.433594 729.605469 509.789062 728.542969 C 509.140625 727.480469 508.589844 726.371094 508.132812 725.214844 C 507.675781 724.058594 507.324219 722.867188 507.070312 721.652344 C 506.816406 720.433594 506.667969 719.203125 506.625 717.960938 C 506.585938 716.714844 506.648438 715.476562 506.816406 714.246094 C 506.988281 713.011719 507.261719 711.804688 507.636719 710.617188 C 508.011719 709.433594 508.488281 708.289062 509.0625 707.183594 C 509.632812 706.078125 510.296875 705.03125 511.046875 704.039062 C 511.800781 703.050781 512.628906 702.128906 513.539062 701.28125 C 514.449219 700.433594 515.425781 699.667969 516.464844 698.984375 C 517.503906 698.304688 518.597656 697.714844 519.738281 697.21875 C 528.34375 693.488281 536.898438 689.347656 545.160156 684.917969 C 545.789062 684.582031 546.433594 684.273438 547.089844 684 C 547.75 683.726562 548.421875 683.484375 549.105469 683.273438 C 549.789062 683.066406 550.480469 682.890625 551.179688 682.75 C 551.878906 682.609375 552.585938 682.503906 553.296875 682.433594 C 554.003906 682.359375 554.71875 682.324219 555.433594 682.324219 C 556.148438 682.320312 556.859375 682.355469 557.570312 682.425781 C 558.28125 682.492188 558.988281 682.597656 559.6875 682.734375 C 560.386719 682.871094 561.082031 683.042969 561.765625 683.25 C 562.449219 683.457031 563.121094 683.695312 563.78125 683.96875 C 564.441406 684.238281 565.085938 684.542969 565.714844 684.878906 C 566.347656 685.214844 566.960938 685.582031 567.554688 685.976562 C 568.148438 686.371094 568.722656 686.796875 569.273438 687.25 C 569.828125 687.699219 570.355469 688.179688 570.863281 688.683594 C 571.367188 689.1875 571.847656 689.714844 572.300781 690.265625 C 572.757812 690.816406 573.179688 691.390625 573.578125 691.984375 C 573.976562 692.574219 574.34375 693.1875 574.683594 693.816406 C 575.019531 694.445312 575.324219 695.089844 575.597656 695.75 C 575.875 696.410156 576.113281 697.082031 576.324219 697.765625 C 576.53125 698.445312 576.707031 699.140625 576.84375 699.839844 C 576.984375 700.539062 577.089844 701.246094 577.164062 701.957031 C 577.234375 702.667969 577.269531 703.378906 577.269531 704.09375 C 577.269531 704.808594 577.238281 705.519531 577.167969 706.230469 C 577.097656 706.941406 576.992188 707.648438 576.855469 708.347656 C 576.714844 709.046875 576.542969 709.738281 576.335938 710.421875 C 576.128906 711.105469 575.890625 711.777344 575.617188 712.4375 C 575.34375 713.097656 575.042969 713.746094 574.707031 714.375 C 574.371094 715.003906 574.003906 715.617188 573.605469 716.210938 C 573.210938 716.804688 572.785156 717.378906 572.332031 717.929688 C 571.878906 718.484375 571.402344 719.011719 570.898438 719.515625 C 570.394531 720.023438 569.863281 720.503906 569.3125 720.957031 C 568.761719 721.410156 568.1875 721.835938 567.59375 722.230469 C 567 722.628906 566.390625 722.996094 565.761719 723.332031 C 556.441406 728.332031 546.789062 733 537.078125 737.210938 C 534.316406 738.414062 531.429688 739.015625 528.417969 739.015625 Z M 204.875 721.382812 C 201.027344 721.378906 197.4375 720.425781 194.097656 718.511719 C 184.90625 713.273438 175.816406 707.578125 167.085938 701.589844 C 166.496094 701.1875 165.929688 700.753906 165.382812 700.296875 C 164.835938 699.835938 164.3125 699.351562 163.8125 698.839844 C 163.3125 698.328125 162.839844 697.796875 162.394531 697.238281 C 161.949219 696.679688 161.527344 696.101562 161.140625 695.503906 C 160.75 694.90625 160.390625 694.289062 160.058594 693.65625 C 159.730469 693.023438 159.433594 692.375 159.167969 691.710938 C 158.902344 691.050781 158.667969 690.375 158.46875 689.691406 C 158.269531 689.003906 158.105469 688.308594 157.972656 687.609375 C 157.84375 686.90625 157.746094 686.199219 157.683594 685.488281 C 157.625 684.777344 157.597656 684.0625 157.605469 683.347656 C 157.613281 682.636719 157.65625 681.921875 157.734375 681.214844 C 157.8125 680.503906 157.925781 679.800781 158.074219 679.101562 C 158.222656 678.402344 158.402344 677.710938 158.617188 677.03125 C 158.835938 676.351562 159.082031 675.683594 159.363281 675.023438 C 159.644531 674.367188 159.957031 673.726562 160.300781 673.101562 C 160.644531 672.476562 161.019531 671.867188 161.421875 671.28125 C 161.828125 670.691406 162.257812 670.125 162.71875 669.578125 C 163.179688 669.03125 163.664062 668.507812 164.175781 668.007812 C 164.6875 667.511719 165.21875 667.039062 165.777344 666.589844 C 166.335938 666.144531 166.914062 665.726562 167.511719 665.335938 C 168.109375 664.949219 168.726562 664.589844 169.359375 664.261719 C 169.996094 663.929688 170.644531 663.632812 171.304688 663.367188 C 171.96875 663.105469 172.644531 662.871094 173.328125 662.671875 C 174.015625 662.472656 174.710938 662.308594 175.410156 662.179688 C 176.113281 662.046875 176.820312 661.953125 177.53125 661.890625 C 178.242188 661.828125 178.957031 661.804688 179.671875 661.8125 C 180.386719 661.820312 181.097656 661.867188 181.804688 661.945312 C 182.515625 662.023438 183.21875 662.136719 183.917969 662.285156 C 184.617188 662.433594 185.308594 662.617188 185.988281 662.832031 C 186.667969 663.046875 187.335938 663.296875 187.992188 663.578125 C 188.648438 663.859375 189.289062 664.171875 189.917969 664.515625 C 190.542969 664.863281 191.148438 665.234375 191.738281 665.640625 C 199.480469 670.949219 207.542969 676 215.691406 680.648438 C 216.726562 681.242188 217.710938 681.914062 218.636719 682.667969 C 219.5625 683.417969 220.421875 684.242188 221.214844 685.136719 C 222.003906 686.03125 222.71875 686.984375 223.351562 687.996094 C 223.988281 689.007812 224.535156 690.066406 224.996094 691.167969 C 225.457031 692.269531 225.824219 693.398438 226.101562 694.5625 C 226.375 695.722656 226.554688 696.902344 226.636719 698.09375 C 226.71875 699.285156 226.703125 700.472656 226.585938 701.664062 C 226.472656 702.851562 226.261719 704.023438 225.957031 705.175781 C 225.652344 706.332031 225.25 707.453125 224.761719 708.542969 C 224.269531 709.628906 223.695312 710.671875 223.03125 711.664062 C 222.371094 712.660156 221.632812 713.59375 220.816406 714.464844 C 220 715.335938 219.121094 716.136719 218.171875 716.867188 C 217.226562 717.59375 216.226562 718.238281 215.171875 718.800781 C 214.121094 719.367188 213.027344 719.839844 211.898438 720.222656 C 210.765625 720.609375 209.613281 720.898438 208.433594 721.089844 C 207.253906 721.285156 206.070312 721.382812 204.875 721.382812 Z M 630.109375 672.765625 C 629.019531 672.765625 627.933594 672.683594 626.855469 672.523438 C 625.777344 672.359375 624.71875 672.117188 623.675781 671.796875 C 622.632812 671.476562 621.621094 671.078125 620.640625 670.605469 C 619.65625 670.128906 618.714844 669.585938 617.816406 668.972656 C 616.914062 668.355469 616.0625 667.679688 615.265625 666.9375 C 614.464844 666.191406 613.726562 665.394531 613.046875 664.542969 C 612.371094 663.6875 611.757812 662.789062 611.214844 661.84375 C 610.667969 660.898438 610.199219 659.917969 609.800781 658.902344 C 609.40625 657.886719 609.085938 656.847656 608.847656 655.785156 C 608.605469 654.722656 608.445312 653.644531 608.367188 652.558594 C 608.285156 651.46875 608.289062 650.382812 608.371094 649.296875 C 608.457031 648.207031 608.621094 647.132812 608.867188 646.070312 C 609.109375 645.007812 609.433594 643.96875 609.835938 642.957031 C 610.234375 641.941406 610.710938 640.964844 611.257812 640.019531 C 611.804688 639.078125 612.421875 638.179688 613.105469 637.332031 C 613.785156 636.480469 614.527344 635.683594 615.332031 634.945312 C 622.226562 628.589844 628.945312 621.859375 635.304688 614.941406 C 635.789062 614.414062 636.296875 613.914062 636.828125 613.441406 C 637.359375 612.964844 637.914062 612.515625 638.492188 612.09375 C 639.066406 611.671875 639.664062 611.28125 640.277344 610.917969 C 640.890625 610.554688 641.523438 610.222656 642.171875 609.921875 C 642.816406 609.621094 643.480469 609.355469 644.152344 609.117188 C 644.828125 608.882812 645.511719 608.679688 646.203125 608.511719 C 646.898438 608.34375 647.597656 608.210938 648.304688 608.109375 C 649.011719 608.007812 649.722656 607.945312 650.433594 607.914062 C 651.148438 607.882812 651.859375 607.890625 652.574219 607.929688 C 653.285156 607.96875 653.996094 608.042969 654.699219 608.152344 C 655.40625 608.265625 656.105469 608.40625 656.796875 608.585938 C 657.488281 608.765625 658.167969 608.976562 658.839844 609.222656 C 659.507812 609.464844 660.164062 609.746094 660.808594 610.054688 C 661.453125 610.363281 662.078125 610.703125 662.6875 611.074219 C 663.296875 611.445312 663.886719 611.847656 664.457031 612.277344 C 665.027344 612.707031 665.578125 613.160156 666.101562 613.644531 C 666.628906 614.128906 667.128906 614.636719 667.605469 615.167969 C 668.078125 615.699219 668.527344 616.253906 668.949219 616.832031 C 669.371094 617.40625 669.761719 618.003906 670.125 618.617188 C 670.488281 619.234375 670.820312 619.863281 671.121094 620.511719 C 671.421875 621.160156 671.691406 621.820312 671.925781 622.492188 C 672.160156 623.167969 672.363281 623.851562 672.53125 624.542969 C 672.699219 625.238281 672.835938 625.9375 672.933594 626.644531 C 673.035156 627.351562 673.097656 628.0625 673.128906 628.773438 C 673.160156 629.488281 673.15625 630.203125 673.113281 630.914062 C 673.074219 631.628906 673 632.335938 672.890625 633.042969 C 672.78125 633.746094 672.636719 634.445312 672.457031 635.136719 C 672.28125 635.828125 672.066406 636.507812 671.824219 637.179688 C 671.578125 637.847656 671.300781 638.507812 670.988281 639.148438 C 670.679688 639.792969 670.339844 640.417969 669.96875 641.027344 C 669.597656 641.636719 669.195312 642.230469 668.769531 642.800781 C 668.339844 643.371094 667.882812 643.917969 667.398438 644.441406 C 660.230469 652.238281 652.652344 659.828125 644.875 666.996094 C 642.867188 668.855469 640.585938 670.28125 638.039062 671.277344 C 635.488281 672.273438 632.847656 672.769531 630.109375 672.765625 Z M 110.941406 644.46875 C 109.386719 644.46875 107.847656 644.308594 106.324219 643.980469 C 104.804688 643.652344 103.335938 643.164062 101.917969 642.519531 C 100.5 641.875 99.167969 641.089844 97.917969 640.160156 C 96.671875 639.226562 95.535156 638.175781 94.515625 637 C 87.550781 629.027344 80.84375 620.664062 74.566406 612.148438 C 74.140625 611.574219 73.746094 610.980469 73.382812 610.367188 C 73.015625 609.753906 72.679688 609.125 72.378906 608.476562 C 72.074219 607.832031 71.804688 607.171875 71.5625 606.5 C 71.324219 605.824219 71.121094 605.144531 70.949219 604.449219 C 70.777344 603.757812 70.640625 603.058594 70.535156 602.351562 C 70.433594 601.644531 70.363281 600.933594 70.332031 600.21875 C 70.300781 599.507812 70.300781 598.792969 70.335938 598.082031 C 70.375 597.367188 70.445312 596.65625 70.554688 595.953125 C 70.660156 595.246094 70.800781 594.546875 70.976562 593.855469 C 71.152344 593.160156 71.359375 592.480469 71.601562 591.808594 C 71.847656 591.136719 72.121094 590.476562 72.429688 589.832031 C 72.734375 589.1875 73.074219 588.5625 73.441406 587.949219 C 73.8125 587.339844 74.207031 586.746094 74.636719 586.171875 C 75.0625 585.601562 75.515625 585.050781 76 584.523438 C 76.480469 583.996094 76.984375 583.492188 77.515625 583.015625 C 78.046875 582.539062 78.597656 582.085938 79.171875 581.664062 C 79.75 581.238281 80.34375 580.84375 80.957031 580.480469 C 81.570312 580.113281 82.199219 579.78125 82.847656 579.476562 C 83.492188 579.171875 84.152344 578.902344 84.824219 578.664062 C 85.5 578.425781 86.183594 578.21875 86.875 578.050781 C 87.570312 577.878906 88.269531 577.742188 88.976562 577.640625 C 89.683594 577.535156 90.390625 577.46875 91.105469 577.4375 C 91.820312 577.402344 92.53125 577.40625 93.246094 577.441406 C 93.957031 577.480469 94.667969 577.550781 95.375 577.660156 C 96.082031 577.765625 96.777344 577.910156 97.472656 578.085938 C 98.164062 578.261719 98.84375 578.46875 99.515625 578.710938 C 100.1875 578.957031 100.847656 579.230469 101.492188 579.539062 C 102.136719 579.84375 102.761719 580.183594 103.375 580.554688 C 103.984375 580.921875 104.578125 581.320312 105.148438 581.75 C 105.722656 582.175781 106.269531 582.628906 106.796875 583.113281 C 107.324219 583.59375 107.828125 584.097656 108.304688 584.628906 C 108.785156 585.160156 109.234375 585.714844 109.65625 586.289062 C 115.226562 593.84375 121.179688 601.261719 127.355469 608.339844 C 128.039062 609.125 128.664062 609.953125 129.230469 610.828125 C 129.792969 611.699219 130.292969 612.609375 130.730469 613.554688 C 131.164062 614.5 131.53125 615.472656 131.828125 616.46875 C 132.121094 617.46875 132.347656 618.480469 132.496094 619.511719 C 132.648438 620.539062 132.722656 621.574219 132.726562 622.617188 C 132.730469 623.65625 132.660156 624.691406 132.511719 625.722656 C 132.367188 626.753906 132.148438 627.765625 131.859375 628.765625 C 131.566406 629.765625 131.207031 630.738281 130.777344 631.6875 C 130.34375 632.632812 129.847656 633.546875 129.289062 634.421875 C 128.726562 635.296875 128.105469 636.128906 127.425781 636.917969 C 126.746094 637.707031 126.015625 638.441406 125.226562 639.121094 C 124.441406 639.804688 123.613281 640.429688 122.738281 640.992188 C 121.863281 641.554688 120.953125 642.054688 120.007812 642.488281 C 119.0625 642.921875 118.089844 643.285156 117.089844 643.578125 C 116.09375 643.875 115.078125 644.09375 114.046875 644.242188 C 113.019531 644.394531 111.984375 644.46875 110.941406 644.46875 Z M 704.382812 576.734375 C 703.914062 576.730469 703.449219 576.714844 702.980469 576.6875 C 702.515625 576.65625 702.046875 576.609375 701.585938 576.546875 C 701.121094 576.488281 700.660156 576.414062 700.199219 576.320312 C 699.738281 576.230469 699.285156 576.125 698.832031 576.007812 C 698.378906 575.886719 697.929688 575.753906 697.488281 575.605469 C 697.042969 575.457031 696.605469 575.292969 696.171875 575.117188 C 695.738281 574.9375 695.3125 574.746094 694.890625 574.542969 C 694.46875 574.339844 694.054688 574.121094 693.648438 573.890625 C 693.242188 573.660156 692.839844 573.414062 692.449219 573.160156 C 692.058594 572.902344 691.675781 572.632812 691.300781 572.351562 C 690.929688 572.070312 690.5625 571.777344 690.207031 571.472656 C 689.851562 571.167969 689.507812 570.851562 689.171875 570.523438 C 688.839844 570.195312 688.515625 569.859375 688.203125 569.511719 C 687.890625 569.164062 687.585938 568.804688 687.296875 568.4375 C 687.007812 568.070312 686.730469 567.695312 686.464844 567.308594 C 686.199219 566.921875 685.945312 566.53125 685.703125 566.128906 C 685.464844 565.726562 685.238281 565.316406 685.023438 564.902344 C 684.808594 564.484375 684.609375 564.0625 684.421875 563.632812 C 684.234375 563.203125 684.0625 562.769531 683.902344 562.328125 C 683.746094 561.886719 683.601562 561.445312 683.46875 560.992188 C 683.339844 560.542969 683.222656 560.089844 683.125 559.632812 C 683.023438 559.175781 682.9375 558.71875 682.863281 558.253906 C 682.792969 557.792969 682.738281 557.328125 682.695312 556.859375 C 682.652344 556.394531 682.628906 555.929688 682.617188 555.460938 C 682.605469 554.992188 682.609375 554.523438 682.628906 554.058594 C 682.644531 553.589844 682.679688 553.121094 682.726562 552.65625 C 682.777344 552.191406 682.839844 551.726562 682.917969 551.265625 C 683 550.804688 683.089844 550.347656 683.199219 549.890625 C 683.308594 549.4375 683.429688 548.984375 683.566406 548.535156 C 683.707031 548.089844 683.855469 547.648438 684.023438 547.210938 C 684.1875 546.769531 684.367188 546.339844 684.5625 545.914062 C 684.753906 545.488281 684.960938 545.066406 685.183594 544.65625 C 689.597656 536.398438 693.726562 527.835938 697.449219 519.203125 C 697.730469 518.546875 698.046875 517.90625 698.390625 517.28125 C 698.738281 516.660156 699.113281 516.050781 699.519531 515.464844 C 699.921875 514.875 700.355469 514.308594 700.816406 513.765625 C 701.277344 513.21875 701.765625 512.699219 702.277344 512.203125 C 702.789062 511.703125 703.324219 511.234375 703.882812 510.789062 C 704.441406 510.34375 705.019531 509.925781 705.617188 509.539062 C 706.21875 509.152344 706.832031 508.792969 707.46875 508.464844 C 708.101562 508.140625 708.75 507.84375 709.414062 507.578125 C 710.078125 507.316406 710.753906 507.085938 711.4375 506.886719 C 712.125 506.691406 712.820312 506.527344 713.519531 506.398438 C 714.222656 506.269531 714.929688 506.175781 715.640625 506.117188 C 716.351562 506.054688 717.066406 506.03125 717.777344 506.042969 C 718.492188 506.050781 719.203125 506.097656 719.914062 506.175781 C 720.621094 506.257812 721.324219 506.371094 722.023438 506.523438 C 722.722656 506.671875 723.410156 506.855469 724.089844 507.070312 C 724.769531 507.289062 725.4375 507.539062 726.09375 507.820312 C 726.75 508.105469 727.390625 508.417969 728.015625 508.765625 C 728.640625 509.109375 729.246094 509.484375 729.832031 509.890625 C 730.421875 510.296875 730.988281 510.726562 731.53125 511.1875 C 732.078125 511.648438 732.597656 512.136719 733.097656 512.648438 C 733.59375 513.160156 734.0625 513.695312 734.507812 514.253906 C 734.953125 514.8125 735.371094 515.390625 735.757812 515.988281 C 736.144531 516.589844 736.503906 517.207031 736.832031 517.839844 C 737.160156 518.472656 737.453125 519.125 737.71875 519.785156 C 737.980469 520.449219 738.210938 521.125 738.410156 521.8125 C 738.605469 522.496094 738.769531 523.191406 738.898438 523.894531 C 739.027344 524.59375 739.121094 525.300781 739.179688 526.011719 C 739.242188 526.722656 739.265625 527.4375 739.253906 528.148438 C 739.246094 528.863281 739.199219 529.574219 739.121094 530.285156 C 739.039062 530.992188 738.925781 531.699219 738.773438 532.394531 C 738.625 533.09375 738.441406 533.78125 738.226562 534.460938 C 738.007812 535.144531 737.757812 535.808594 737.476562 536.464844 C 733.273438 546.214844 728.613281 555.886719 723.625 565.210938 C 723.160156 566.078125 722.640625 566.910156 722.066406 567.707031 C 721.488281 568.503906 720.863281 569.257812 720.183594 569.96875 C 719.507812 570.679688 718.785156 571.34375 718.015625 571.957031 C 717.25 572.574219 716.441406 573.132812 715.601562 573.636719 C 714.757812 574.140625 713.882812 574.585938 712.980469 574.976562 C 712.074219 575.363281 711.148438 575.683594 710.203125 575.945312 C 709.253906 576.207031 708.292969 576.40625 707.320312 576.535156 C 706.34375 576.667969 705.367188 576.734375 704.382812 576.734375 Z M 47.507812 540.960938 C 46.425781 540.960938 45.347656 540.878906 44.277344 540.71875 C 43.207031 540.558594 42.152344 540.320312 41.117188 540.003906 C 40.082031 539.6875 39.078125 539.292969 38.101562 538.828125 C 37.125 538.359375 36.1875 537.824219 35.289062 537.21875 C 34.394531 536.609375 33.546875 535.941406 32.75 535.207031 C 31.953125 534.476562 31.214844 533.6875 30.535156 532.84375 C 29.855469 532.003906 29.242188 531.113281 28.695312 530.179688 C 28.148438 529.246094 27.671875 528.277344 27.269531 527.269531 C 23.324219 517.421875 19.75 507.304688 16.65625 497.203125 C 16.445312 496.523438 16.269531 495.832031 16.128906 495.128906 C 15.988281 494.429688 15.882812 493.726562 15.808594 493.015625 C 15.738281 492.304688 15.699219 491.59375 15.699219 490.878906 C 15.695312 490.164062 15.730469 489.453125 15.796875 488.742188 C 15.867188 488.03125 15.96875 487.328125 16.105469 486.625 C 16.242188 485.925781 16.414062 485.234375 16.621094 484.550781 C 16.824219 483.867188 17.0625 483.195312 17.335938 482.535156 C 17.605469 481.875 17.910156 481.230469 18.242188 480.597656 C 18.578125 479.96875 18.941406 479.355469 19.339844 478.761719 C 19.734375 478.164062 20.15625 477.59375 20.609375 477.039062 C 21.058594 476.484375 21.535156 475.957031 22.039062 475.449219 C 22.542969 474.945312 23.070312 474.464844 23.621094 474.007812 C 24.171875 473.554688 24.742188 473.128906 25.335938 472.730469 C 25.925781 472.332031 26.539062 471.964844 27.167969 471.625 C 27.792969 471.289062 28.4375 470.980469 29.097656 470.707031 C 29.757812 470.429688 30.425781 470.1875 31.109375 469.980469 C 31.792969 469.769531 32.484375 469.59375 33.183594 469.453125 C 33.882812 469.3125 34.585938 469.207031 35.296875 469.132812 C 36.007812 469.0625 36.71875 469.023438 37.433594 469.023438 C 38.148438 469.019531 38.859375 469.054688 39.570312 469.121094 C 40.28125 469.191406 40.984375 469.292969 41.6875 469.429688 C 42.386719 469.566406 43.078125 469.738281 43.761719 469.945312 C 44.445312 470.148438 45.117188 470.386719 45.777344 470.660156 C 46.4375 470.929688 47.085938 471.234375 47.714844 471.566406 C 48.34375 471.902344 48.957031 472.269531 49.550781 472.664062 C 50.148438 473.058594 50.722656 473.480469 51.273438 473.933594 C 51.828125 474.382812 52.355469 474.859375 52.863281 475.363281 C 53.371094 475.867188 53.847656 476.394531 54.304688 476.945312 C 54.757812 477.496094 55.183594 478.066406 55.582031 478.660156 C 55.980469 479.25 56.347656 479.863281 56.6875 480.492188 C 57.027344 481.117188 57.332031 481.761719 57.609375 482.421875 C 57.882812 483.082031 58.125 483.75 58.332031 484.433594 C 61.074219 493.371094 64.234375 502.328125 67.734375 511.050781 C 68.0625 511.875 68.339844 512.714844 68.566406 513.574219 C 68.796875 514.429688 68.96875 515.296875 69.089844 516.175781 C 69.210938 517.058594 69.28125 517.941406 69.292969 518.828125 C 69.304688 519.714844 69.265625 520.597656 69.171875 521.480469 C 69.078125 522.363281 68.929688 523.238281 68.726562 524.101562 C 68.527344 524.964844 68.273438 525.8125 67.96875 526.648438 C 67.664062 527.480469 67.308594 528.292969 66.90625 529.082031 C 66.5 529.871094 66.050781 530.636719 65.554688 531.371094 C 65.054688 532.105469 64.515625 532.808594 63.933594 533.476562 C 63.351562 534.144531 62.730469 534.777344 62.070312 535.371094 C 61.410156 535.964844 60.714844 536.515625 59.988281 537.023438 C 59.261719 537.53125 58.507812 537.996094 57.722656 538.410156 C 56.941406 538.828125 56.132812 539.195312 55.304688 539.511719 C 54.476562 539.832031 53.632812 540.097656 52.769531 540.3125 C 51.910156 540.527344 51.039062 540.6875 50.160156 540.796875 C 49.277344 540.90625 48.394531 540.960938 47.507812 540.960938 Z M 742.800781 461.511719 C 742.015625 461.511719 741.234375 461.46875 740.457031 461.386719 C 739.675781 461.300781 738.902344 461.175781 738.136719 461.007812 C 737.371094 460.84375 736.617188 460.632812 735.875 460.386719 C 735.132812 460.136719 734.40625 459.851562 733.691406 459.523438 C 732.980469 459.195312 732.289062 458.832031 731.613281 458.429688 C 730.941406 458.027344 730.292969 457.59375 729.667969 457.121094 C 729.039062 456.648438 728.441406 456.144531 727.871094 455.609375 C 727.296875 455.074219 726.757812 454.507812 726.246094 453.914062 C 725.734375 453.320312 725.257812 452.699219 724.816406 452.054688 C 724.371094 451.40625 723.964844 450.738281 723.589844 450.050781 C 723.21875 449.359375 722.886719 448.652344 722.589844 447.925781 C 722.292969 447.203125 722.039062 446.460938 721.824219 445.707031 C 721.605469 444.957031 721.433594 444.191406 721.296875 443.421875 C 721.164062 442.648438 721.074219 441.871094 721.023438 441.089844 C 720.972656 440.308594 720.964844 439.523438 721 438.742188 C 721.035156 437.960938 721.109375 437.179688 721.230469 436.40625 C 722.648438 427.160156 723.695312 417.714844 724.347656 408.328125 C 724.398438 407.613281 724.480469 406.902344 724.597656 406.199219 C 724.714844 405.492188 724.867188 404.796875 725.050781 404.105469 C 725.238281 403.414062 725.457031 402.734375 725.710938 402.066406 C 725.964844 401.394531 726.25 400.742188 726.566406 400.101562 C 726.882812 399.460938 727.230469 398.835938 727.609375 398.230469 C 727.988281 397.621094 728.398438 397.035156 728.832031 396.46875 C 729.269531 395.902344 729.734375 395.359375 730.222656 394.839844 C 730.714844 394.316406 731.226562 393.820312 731.765625 393.351562 C 732.304688 392.882812 732.867188 392.4375 733.449219 392.023438 C 734.03125 391.609375 734.632812 391.222656 735.253906 390.867188 C 735.871094 390.511719 736.507812 390.1875 737.160156 389.894531 C 737.8125 389.601562 738.476562 389.339844 739.15625 389.113281 C 739.835938 388.886719 740.523438 388.691406 741.21875 388.53125 C 741.914062 388.371094 742.617188 388.246094 743.328125 388.15625 C 744.039062 388.0625 744.75 388.007812 745.464844 387.988281 C 746.179688 387.964844 746.894531 387.980469 747.605469 388.03125 C 748.320312 388.078125 749.03125 388.164062 749.734375 388.285156 C 750.441406 388.402344 751.136719 388.558594 751.828125 388.746094 C 752.519531 388.933594 753.195312 389.152344 753.863281 389.410156 C 754.53125 389.664062 755.1875 389.949219 755.828125 390.269531 C 756.46875 390.589844 757.089844 390.9375 757.695312 391.320312 C 758.300781 391.699219 758.886719 392.109375 759.453125 392.546875 C 760.015625 392.984375 760.558594 393.449219 761.078125 393.941406 C 761.597656 394.433594 762.09375 394.949219 762.5625 395.488281 C 763.03125 396.03125 763.46875 396.59375 763.882812 397.175781 C 764.296875 397.757812 764.679688 398.363281 765.035156 398.984375 C 765.390625 399.605469 765.710938 400.242188 766.003906 400.894531 C 766.292969 401.546875 766.554688 402.214844 766.777344 402.890625 C 767.003906 403.570312 767.195312 404.257812 767.355469 404.957031 C 767.511719 405.652344 767.636719 406.355469 767.726562 407.066406 C 767.8125 407.777344 767.867188 408.488281 767.886719 409.203125 C 767.90625 409.917969 767.886719 410.632812 767.835938 411.347656 C 767.101562 421.933594 765.914062 432.589844 764.3125 443.019531 C 764.117188 444.296875 763.8125 445.542969 763.394531 446.765625 C 762.976562 447.984375 762.453125 449.160156 761.828125 450.289062 C 761.203125 451.417969 760.480469 452.480469 759.667969 453.480469 C 758.851562 454.480469 757.953125 455.402344 756.976562 456.246094 C 755.996094 457.085938 754.953125 457.832031 753.839844 458.488281 C 752.730469 459.144531 751.570312 459.695312 750.359375 460.144531 C 749.148438 460.59375 747.910156 460.933594 746.640625 461.164062 C 745.371094 461.394531 744.089844 461.507812 742.800781 461.511719 Z M 740.96875 340.128906 C 739.703125 340.125 738.449219 340.015625 737.207031 339.792969 C 735.960938 339.574219 734.746094 339.25 733.554688 338.816406 C 732.367188 338.386719 731.226562 337.855469 730.128906 337.222656 C 729.035156 336.59375 728 335.875 727.03125 335.0625 C 726.0625 334.253906 725.167969 333.367188 724.351562 332.402344 C 723.535156 331.4375 722.808594 330.410156 722.171875 329.316406 C 721.535156 328.226562 720.996094 327.085938 720.554688 325.902344 C 720.117188 324.714844 719.78125 323.503906 719.554688 322.257812 C 717.863281 313.035156 715.761719 303.769531 713.300781 294.71875 C 713.113281 294.03125 712.960938 293.332031 712.84375 292.628906 C 712.722656 291.925781 712.640625 291.21875 712.589844 290.503906 C 712.542969 289.792969 712.527344 289.082031 712.546875 288.367188 C 712.570312 287.652344 712.625 286.941406 712.714844 286.234375 C 712.804688 285.527344 712.929688 284.824219 713.089844 284.128906 C 713.25 283.433594 713.445312 282.746094 713.671875 282.070312 C 713.898438 281.394531 714.160156 280.730469 714.449219 280.078125 C 714.742188 279.425781 715.066406 278.792969 715.421875 278.171875 C 715.777344 277.554688 716.160156 276.953125 716.574219 276.371094 C 716.988281 275.789062 717.429688 275.230469 717.898438 274.691406 C 718.367188 274.152344 718.859375 273.640625 719.378906 273.148438 C 719.898438 272.660156 720.441406 272.195312 721.007812 271.757812 C 721.570312 271.324219 722.15625 270.914062 722.761719 270.535156 C 723.367188 270.15625 723.988281 269.808594 724.625 269.492188 C 725.265625 269.171875 725.917969 268.886719 726.585938 268.632812 C 727.253906 268.378906 727.929688 268.160156 728.621094 267.972656 C 729.308594 267.785156 730.003906 267.632812 730.710938 267.511719 C 731.414062 267.394531 732.121094 267.3125 732.832031 267.261719 C 733.546875 267.210938 734.257812 267.199219 734.972656 267.21875 C 735.683594 267.242188 736.394531 267.296875 737.105469 267.386719 C 737.8125 267.476562 738.515625 267.601562 739.210938 267.761719 C 739.90625 267.921875 740.589844 268.117188 741.269531 268.34375 C 741.945312 268.570312 742.609375 268.828125 743.261719 269.121094 C 743.910156 269.414062 744.546875 269.738281 745.164062 270.09375 C 745.785156 270.449219 746.386719 270.832031 746.96875 271.246094 C 747.550781 271.660156 748.109375 272.101562 748.648438 272.570312 C 749.183594 273.039062 749.699219 273.53125 750.1875 274.050781 C 750.679688 274.570312 751.140625 275.113281 751.578125 275.679688 C 752.015625 276.242188 752.421875 276.828125 752.800781 277.433594 C 753.179688 278.039062 753.53125 278.660156 753.847656 279.296875 C 754.164062 279.9375 754.449219 280.589844 754.703125 281.257812 C 754.957031 281.925781 755.179688 282.601562 755.367188 283.292969 C 758.144531 293.515625 760.519531 303.980469 762.433594 314.394531 C 762.574219 315.179688 762.675781 315.96875 762.730469 316.761719 C 762.789062 317.558594 762.800781 318.351562 762.769531 319.148438 C 762.738281 319.945312 762.664062 320.738281 762.546875 321.527344 C 762.429688 322.3125 762.269531 323.09375 762.066406 323.863281 C 761.863281 324.632812 761.621094 325.390625 761.335938 326.136719 C 761.050781 326.878906 760.722656 327.605469 760.359375 328.3125 C 759.992188 329.023438 759.589844 329.707031 759.148438 330.371094 C 758.710938 331.035156 758.234375 331.671875 757.722656 332.285156 C 757.214844 332.898438 756.671875 333.480469 756.097656 334.03125 C 755.523438 334.585938 754.917969 335.105469 754.289062 335.589844 C 753.65625 336.078125 753 336.527344 752.320312 336.941406 C 751.640625 337.355469 750.941406 337.734375 750.21875 338.070312 C 749.496094 338.40625 748.757812 338.707031 748.003906 338.960938 C 747.25 339.21875 746.484375 339.433594 745.707031 339.605469 C 744.929688 339.78125 744.144531 339.910156 743.351562 339.996094 C 742.558594 340.082031 741.765625 340.128906 740.96875 340.128906 Z M 699.273438 226.125 C 697.351562 226.128906 695.460938 225.878906 693.605469 225.382812 C 691.75 224.882812 689.992188 224.152344 688.328125 223.191406 C 686.664062 222.226562 685.15625 221.0625 683.800781 219.703125 C 682.445312 218.339844 681.292969 216.824219 680.339844 215.15625 C 675.679688 207.019531 670.617188 198.972656 665.289062 191.230469 C 664.886719 190.640625 664.511719 190.035156 664.164062 189.410156 C 663.820312 188.785156 663.507812 188.144531 663.226562 187.488281 C 662.941406 186.835938 662.691406 186.167969 662.476562 185.488281 C 662.261719 184.804688 662.078125 184.117188 661.929688 183.417969 C 661.78125 182.722656 661.664062 182.015625 661.585938 181.308594 C 661.507812 180.597656 661.460938 179.886719 661.453125 179.171875 C 661.441406 178.460938 661.46875 177.746094 661.527344 177.035156 C 661.585938 176.324219 661.683594 175.617188 661.8125 174.914062 C 661.941406 174.214844 662.105469 173.519531 662.304688 172.832031 C 662.5 172.148438 662.730469 171.472656 662.996094 170.808594 C 663.261719 170.148438 663.554688 169.5 663.882812 168.863281 C 664.210938 168.230469 664.570312 167.613281 664.957031 167.015625 C 665.347656 166.414062 665.765625 165.835938 666.207031 165.28125 C 666.652344 164.722656 667.125 164.1875 667.625 163.675781 C 668.121094 163.164062 668.644531 162.675781 669.1875 162.21875 C 669.734375 161.757812 670.300781 161.324219 670.890625 160.917969 C 671.476562 160.515625 672.082031 160.140625 672.707031 159.792969 C 673.332031 159.449219 673.972656 159.136719 674.628906 158.855469 C 675.285156 158.570312 675.953125 158.324219 676.632812 158.105469 C 677.3125 157.890625 678.003906 157.707031 678.699219 157.558594 C 679.398438 157.410156 680.101562 157.292969 680.8125 157.214844 C 681.519531 157.136719 682.234375 157.089844 682.945312 157.082031 C 683.660156 157.070312 684.371094 157.097656 685.082031 157.15625 C 685.796875 157.214844 686.5 157.3125 687.203125 157.441406 C 687.90625 157.570312 688.597656 157.734375 689.285156 157.933594 C 689.972656 158.128906 690.644531 158.359375 691.308594 158.625 C 691.972656 158.890625 692.621094 159.183594 693.253906 159.511719 C 693.890625 159.839844 694.503906 160.199219 695.105469 160.585938 C 695.703125 160.976562 696.28125 161.394531 696.839844 161.839844 C 697.398438 162.285156 697.933594 162.753906 698.445312 163.253906 C 698.957031 163.75 699.441406 164.273438 699.902344 164.816406 C 700.363281 165.363281 700.792969 165.929688 701.199219 166.519531 C 707.203125 175.246094 712.914062 184.320312 718.167969 193.496094 C 718.402344 193.90625 718.625 194.328125 718.835938 194.753906 C 719.042969 195.179688 719.238281 195.613281 719.417969 196.050781 C 719.597656 196.492188 719.761719 196.9375 719.914062 197.386719 C 720.066406 197.835938 720.203125 198.289062 720.324219 198.75 C 720.445312 199.207031 720.550781 199.671875 720.640625 200.136719 C 720.734375 200.601562 720.808594 201.070312 720.867188 201.542969 C 720.929688 202.011719 720.976562 202.484375 721.003906 202.957031 C 721.035156 203.429688 721.046875 203.90625 721.046875 204.378906 C 721.046875 204.855469 721.03125 205.328125 720.996094 205.800781 C 720.964844 206.277344 720.917969 206.75 720.855469 207.21875 C 720.792969 207.6875 720.714844 208.15625 720.621094 208.621094 C 720.527344 209.085938 720.417969 209.550781 720.292969 210.007812 C 720.167969 210.464844 720.03125 210.917969 719.878906 211.367188 C 719.722656 211.816406 719.554688 212.261719 719.375 212.699219 C 719.191406 213.136719 718.996094 213.570312 718.785156 213.996094 C 718.574219 214.421875 718.351562 214.839844 718.113281 215.25 C 717.875 215.660156 717.625 216.0625 717.359375 216.457031 C 717.09375 216.851562 716.816406 217.238281 716.527344 217.613281 C 716.238281 217.988281 715.9375 218.355469 715.625 218.710938 C 715.3125 219.070312 714.988281 219.414062 714.652344 219.75 C 714.316406 220.085938 713.96875 220.410156 713.613281 220.722656 C 713.253906 221.035156 712.886719 221.335938 712.511719 221.625 C 712.136719 221.914062 711.75 222.191406 711.355469 222.453125 C 710.960938 222.71875 710.558594 222.96875 710.144531 223.207031 C 709.734375 223.441406 709.316406 223.667969 708.890625 223.875 C 708.464844 224.085938 708.03125 224.28125 707.59375 224.464844 C 707.15625 224.644531 706.710938 224.8125 706.261719 224.964844 C 705.8125 225.117188 705.359375 225.257812 704.902344 225.378906 C 704.441406 225.503906 703.980469 225.609375 703.515625 225.703125 C 703.050781 225.796875 702.582031 225.875 702.113281 225.9375 C 701.640625 226 701.167969 226.046875 700.695312 226.078125 C 700.222656 226.109375 699.746094 226.125 699.273438 226.125 Z M 622.175781 132.304688 C 619.546875 132.308594 617.003906 131.847656 614.542969 130.929688 C 612.082031 130.007812 609.863281 128.683594 607.882812 126.957031 C 600.792969 120.792969 593.367188 114.851562 585.796875 109.296875 C 585.222656 108.875 584.667969 108.425781 584.136719 107.945312 C 583.605469 107.46875 583.101562 106.96875 582.617188 106.441406 C 582.136719 105.914062 581.683594 105.367188 581.253906 104.796875 C 580.824219 104.222656 580.425781 103.632812 580.058594 103.023438 C 579.6875 102.410156 579.347656 101.785156 579.039062 101.140625 C 578.730469 100.496094 578.457031 99.839844 578.210938 99.167969 C 577.96875 98.496094 577.757812 97.816406 577.582031 97.125 C 577.40625 96.433594 577.261719 95.734375 577.152344 95.027344 C 577.046875 94.324219 576.972656 93.613281 576.933594 92.902344 C 576.894531 92.1875 576.890625 91.476562 576.921875 90.761719 C 576.957031 90.050781 577.023438 89.339844 577.125 88.632812 C 577.226562 87.925781 577.359375 87.226562 577.53125 86.535156 C 577.699219 85.839844 577.90625 85.15625 578.140625 84.484375 C 578.378906 83.808594 578.648438 83.148438 578.949219 82.503906 C 579.253906 81.855469 579.585938 81.226562 579.949219 80.613281 C 580.3125 80 580.707031 79.402344 581.128906 78.828125 C 581.550781 78.253906 582 77.699219 582.480469 77.167969 C 582.957031 76.636719 583.457031 76.128906 583.984375 75.648438 C 584.511719 75.167969 585.058594 74.710938 585.628906 74.285156 C 586.203125 73.855469 586.792969 73.457031 587.402344 73.085938 C 588.015625 72.71875 588.640625 72.378906 589.285156 72.070312 C 589.929688 71.761719 590.585938 71.484375 591.257812 71.242188 C 591.929688 71 592.609375 70.789062 593.300781 70.609375 C 593.992188 70.433594 594.691406 70.292969 595.398438 70.183594 C 596.101562 70.074219 596.8125 70.003906 597.523438 69.964844 C 598.238281 69.925781 598.949219 69.921875 599.664062 69.953125 C 600.375 69.984375 601.085938 70.050781 601.792969 70.152344 C 602.5 70.253906 603.199219 70.390625 603.890625 70.5625 C 604.585938 70.730469 605.269531 70.933594 605.941406 71.171875 C 606.617188 71.410156 607.273438 71.679688 607.921875 71.980469 C 608.570312 72.28125 609.199219 72.617188 609.8125 72.980469 C 610.425781 73.34375 611.023438 73.738281 611.597656 74.160156 C 620.121094 80.417969 628.496094 87.117188 636.484375 94.0625 C 637.320312 94.785156 638.09375 95.566406 638.808594 96.410156 C 639.519531 97.25 640.167969 98.144531 640.746094 99.082031 C 641.324219 100.023438 641.828125 101 642.257812 102.019531 C 642.6875 103.035156 643.039062 104.078125 643.3125 105.148438 C 643.582031 106.21875 643.773438 107.300781 643.878906 108.402344 C 643.984375 109.5 644.007812 110.601562 643.949219 111.703125 C 643.886719 112.804688 643.742188 113.894531 643.519531 114.976562 C 643.292969 116.058594 642.984375 117.113281 642.597656 118.148438 C 642.210938 119.183594 641.75 120.179688 641.210938 121.144531 C 640.671875 122.109375 640.0625 123.023438 639.386719 123.894531 C 638.707031 124.765625 637.96875 125.582031 637.164062 126.339844 C 636.363281 127.097656 635.507812 127.792969 634.601562 128.421875 C 633.695312 129.050781 632.746094 129.609375 631.753906 130.09375 C 630.761719 130.578125 629.738281 130.984375 628.683594 131.3125 C 627.632812 131.644531 626.558594 131.890625 625.46875 132.058594 C 624.375 132.222656 623.277344 132.304688 622.175781 132.304688 Z M 518.535156 69.050781 C 515.75 69.050781 513.0625 68.535156 510.472656 67.5 C 501.734375 64.019531 492.765625 60.867188 483.816406 58.144531 C 483.132812 57.933594 482.460938 57.691406 481.804688 57.417969 C 481.144531 57.144531 480.5 56.839844 479.871094 56.5 C 479.246094 56.164062 478.632812 55.796875 478.042969 55.398438 C 477.449219 55 476.878906 54.574219 476.328125 54.121094 C 475.777344 53.667969 475.25 53.1875 474.746094 52.683594 C 474.242188 52.175781 473.765625 51.648438 473.3125 51.097656 C 472.859375 50.542969 472.4375 49.972656 472.042969 49.378906 C 471.648438 48.785156 471.28125 48.171875 470.945312 47.542969 C 470.613281 46.910156 470.308594 46.265625 470.035156 45.609375 C 469.765625 44.949219 469.523438 44.277344 469.320312 43.59375 C 469.113281 42.910156 468.941406 42.21875 468.800781 41.519531 C 468.664062 40.820312 468.5625 40.113281 468.492188 39.40625 C 468.421875 38.695312 468.390625 37.984375 468.390625 37.269531 C 468.390625 36.554688 468.425781 35.84375 468.496094 35.132812 C 468.570312 34.425781 468.675781 33.71875 468.8125 33.019531 C 468.953125 32.320312 469.128906 31.628906 469.335938 30.945312 C 469.542969 30.265625 469.785156 29.59375 470.058594 28.933594 C 470.332031 28.277344 470.636719 27.632812 470.976562 27.003906 C 471.3125 26.375 471.679688 25.765625 472.074219 25.171875 C 472.472656 24.578125 472.898438 24.007812 473.351562 23.457031 C 473.804688 22.90625 474.28125 22.378906 474.789062 21.875 C 475.292969 21.367188 475.820312 20.890625 476.371094 20.4375 C 476.925781 19.988281 477.496094 19.5625 478.089844 19.167969 C 478.683594 18.769531 479.296875 18.40625 479.925781 18.070312 C 480.554688 17.734375 481.199219 17.429688 481.859375 17.15625 C 482.515625 16.882812 483.1875 16.644531 483.871094 16.4375 C 484.554688 16.230469 485.246094 16.058594 485.945312 15.917969 C 486.644531 15.78125 487.351562 15.675781 488.058594 15.605469 C 488.769531 15.535156 489.480469 15.503906 490.195312 15.503906 C 490.910156 15.503906 491.621094 15.539062 492.328125 15.609375 C 493.039062 15.679688 493.746094 15.78125 494.445312 15.921875 C 495.144531 16.0625 495.835938 16.234375 496.519531 16.441406 C 506.625 19.523438 516.75 23.078125 526.609375 27.003906 C 527.777344 27.46875 528.898438 28.03125 529.96875 28.691406 C 531.039062 29.351562 532.046875 30.097656 532.988281 30.929688 C 533.929688 31.765625 534.792969 32.671875 535.578125 33.65625 C 536.363281 34.636719 537.054688 35.683594 537.660156 36.785156 C 538.261719 37.886719 538.769531 39.035156 539.171875 40.226562 C 539.578125 41.414062 539.878906 42.632812 540.074219 43.875 C 540.269531 45.117188 540.355469 46.367188 540.335938 47.625 C 540.3125 48.882812 540.183594 50.128906 539.945312 51.363281 C 539.710938 52.597656 539.367188 53.804688 538.921875 54.980469 C 538.476562 56.15625 537.933594 57.285156 537.292969 58.367188 C 536.648438 59.449219 535.921875 60.46875 535.101562 61.421875 C 534.285156 62.378906 533.390625 63.257812 532.421875 64.058594 C 531.453125 64.859375 530.421875 65.570312 529.328125 66.191406 C 528.238281 66.816406 527.097656 67.339844 525.914062 67.765625 C 524.730469 68.191406 523.519531 68.511719 522.28125 68.726562 C 521.042969 68.945312 519.792969 69.050781 518.535156 69.050781 Z M 518.535156 69.050781 " fill-opacity="1" fill-rule="nonzero"/><path fill="#1fb6eb" d="M 21.902344 421.570312 C 21.210938 421.570312 20.515625 421.535156 19.824219 421.46875 C 19.132812 421.402344 18.449219 421.304688 17.765625 421.171875 C 17.085938 421.039062 16.410156 420.875 15.746094 420.675781 C 15.078125 420.480469 14.421875 420.253906 13.777344 419.992188 C 13.136719 419.734375 12.503906 419.445312 11.886719 419.125 C 11.273438 418.804688 10.671875 418.457031 10.089844 418.078125 C 9.503906 417.703125 8.941406 417.296875 8.398438 416.867188 C 7.851562 416.4375 7.328125 415.980469 6.828125 415.5 C 6.328125 415.019531 5.851562 414.515625 5.398438 413.988281 C 4.945312 413.460938 4.519531 412.914062 4.117188 412.347656 C 3.714844 411.78125 3.34375 411.195312 3 410.59375 C 2.65625 409.992188 2.339844 409.371094 2.054688 408.738281 C 1.769531 408.105469 1.511719 407.460938 1.289062 406.804688 C 1.066406 406.148438 0.871094 405.480469 0.710938 404.804688 C 0.550781 404.128906 0.425781 403.449219 0.328125 402.757812 C 0.234375 402.070312 0.171875 401.382812 0.144531 400.6875 C -0.0859375 395.25 -0.199219 389.78125 -0.199219 384.285156 C -0.199219 383.574219 -0.160156 382.863281 -0.0898438 382.152344 C -0.0195312 381.445312 0.0859375 380.738281 0.226562 380.039062 C 0.367188 379.339844 0.539062 378.652344 0.75 377.96875 C 0.957031 377.285156 1.195312 376.617188 1.472656 375.957031 C 1.746094 375.300781 2.050781 374.65625 2.386719 374.027344 C 2.722656 373.398438 3.089844 372.789062 3.488281 372.195312 C 3.882812 371.605469 4.308594 371.03125 4.761719 370.480469 C 5.214844 369.929688 5.691406 369.402344 6.199219 368.898438 C 6.703125 368.394531 7.230469 367.917969 7.78125 367.464844 C 8.332031 367.015625 8.90625 366.589844 9.5 366.195312 C 10.089844 365.800781 10.703125 365.433594 11.332031 365.097656 C 11.960938 364.761719 12.605469 364.457031 13.261719 364.183594 C 13.921875 363.914062 14.59375 363.671875 15.277344 363.464844 C 15.957031 363.257812 16.648438 363.085938 17.347656 362.949219 C 18.046875 362.808594 18.75 362.703125 19.460938 362.632812 C 20.171875 362.5625 20.882812 362.53125 21.59375 362.53125 C 22.308594 362.53125 23.019531 362.5625 23.730469 362.632812 C 24.4375 362.703125 25.144531 362.808594 25.84375 362.949219 C 26.542969 363.085938 27.234375 363.257812 27.914062 363.464844 C 28.597656 363.671875 29.269531 363.914062 29.925781 364.183594 C 30.585938 364.457031 31.230469 364.761719 31.859375 365.097656 C 32.488281 365.433594 33.097656 365.800781 33.691406 366.195312 C 34.285156 366.589844 34.859375 367.015625 35.410156 367.464844 C 35.960938 367.917969 36.488281 368.394531 36.992188 368.898438 C 37.496094 369.402344 37.976562 369.929688 38.429688 370.480469 C 38.882812 371.03125 39.308594 371.605469 39.703125 372.195312 C 40.101562 372.789062 40.46875 373.398438 40.804688 374.027344 C 41.140625 374.65625 41.445312 375.300781 41.71875 375.957031 C 41.992188 376.617188 42.234375 377.285156 42.441406 377.96875 C 42.652344 378.652344 42.824219 379.339844 42.964844 380.039062 C 43.105469 380.738281 43.210938 381.445312 43.28125 382.152344 C 43.351562 382.863281 43.386719 383.574219 43.390625 384.285156 C 43.390625 389.171875 43.492188 394.027344 43.699219 398.859375 C 43.726562 399.574219 43.722656 400.289062 43.683594 401 C 43.640625 401.710938 43.566406 402.421875 43.457031 403.128906 C 43.347656 403.832031 43.203125 404.53125 43.023438 405.222656 C 42.847656 405.914062 42.632812 406.59375 42.390625 407.265625 C 42.144531 407.933594 41.867188 408.589844 41.554688 409.234375 C 41.246094 409.878906 40.90625 410.503906 40.535156 411.113281 C 40.164062 411.722656 39.761719 412.3125 39.332031 412.882812 C 38.902344 413.453125 38.449219 414 37.964844 414.527344 C 37.480469 415.050781 36.972656 415.550781 36.441406 416.027344 C 35.910156 416.503906 35.355469 416.953125 34.777344 417.375 C 34.203125 417.792969 33.605469 418.1875 32.992188 418.550781 C 32.375 418.910156 31.746094 419.242188 31.097656 419.542969 C 30.449219 419.84375 29.789062 420.113281 29.117188 420.347656 C 28.441406 420.582031 27.757812 420.785156 27.0625 420.953125 C 26.371094 421.121094 25.671875 421.257812 24.964844 421.355469 C 24.257812 421.457031 23.546875 421.519531 22.832031 421.550781 C 22.523438 421.5625 22.214844 421.570312 21.902344 421.570312 Z M 21.902344 421.570312 " fill-opacity="1" fill-rule="nonzero"/><path fill="#155dfb" d="M 513.617188 637.488281 C 505.605469 637.484375 497.847656 636.074219 490.34375 633.253906 C 319.003906 569.003906 199.554688 449.558594 135.3125 278.226562 C 134.765625 276.792969 134.265625 275.339844 133.820312 273.871094 C 133.375 272.402344 132.980469 270.917969 132.640625 269.421875 C 132.300781 267.925781 132.011719 266.417969 131.78125 264.898438 C 131.546875 263.382812 131.367188 261.859375 131.246094 260.328125 C 131.121094 258.796875 131.050781 257.265625 131.035156 255.730469 C 131.023438 254.195312 131.0625 252.660156 131.15625 251.128906 C 131.25 249.597656 131.402344 248.070312 131.605469 246.546875 C 131.808594 245.027344 132.066406 243.511719 132.378906 242.007812 C 132.6875 240.507812 133.054688 239.015625 133.472656 237.539062 C 133.890625 236.0625 134.359375 234.601562 134.882812 233.15625 C 135.402344 231.714844 135.976562 230.289062 136.601562 228.886719 C 137.222656 227.484375 137.898438 226.105469 138.617188 224.75 C 139.339844 223.394531 140.109375 222.066406 140.925781 220.765625 C 141.742188 219.46875 142.605469 218.199219 143.511719 216.960938 C 144.421875 215.722656 145.371094 214.515625 146.363281 213.34375 C 147.355469 212.175781 148.390625 211.042969 149.464844 209.945312 L 216.476562 142.929688 C 217.457031 141.976562 218.484375 141.070312 219.558594 140.214844 C 220.628906 139.363281 221.742188 138.5625 222.890625 137.816406 C 224.042969 137.070312 225.226562 136.382812 226.445312 135.753906 C 227.664062 135.125 228.910156 134.554688 230.183594 134.046875 C 231.457031 133.542969 232.753906 133.097656 234.070312 132.71875 C 235.386719 132.335938 236.71875 132.023438 238.070312 131.773438 C 239.417969 131.523438 240.773438 131.339844 242.140625 131.226562 C 243.507812 131.109375 244.875 131.058594 246.246094 131.078125 C 247.617188 131.097656 248.984375 131.179688 250.347656 131.332031 C 251.707031 131.484375 253.0625 131.703125 254.402344 131.988281 C 255.742188 132.273438 257.066406 132.625 258.375 133.039062 C 259.679688 133.453125 260.964844 133.929688 262.222656 134.472656 C 263.484375 135.011719 264.714844 135.613281 265.914062 136.273438 C 267.117188 136.9375 268.28125 137.652344 269.414062 138.429688 C 270.542969 139.207031 271.632812 140.035156 272.683594 140.917969 C 273.730469 141.800781 274.734375 142.730469 275.695312 143.710938 L 348.015625 216.035156 C 364.921875 232.941406 368.527344 257.453125 356.585938 274.320312 L 326.789062 316.410156 C 344.777344 340.023438 364.265625 362.324219 385.257812 383.316406 C 406.246094 404.308594 428.546875 423.796875 452.164062 441.785156 L 494.230469 411.980469 C 511.097656 400.027344 535.613281 403.632812 552.523438 420.539062 L 624.859375 492.878906 C 625.84375 493.839844 626.773438 494.839844 627.65625 495.890625 C 628.539062 496.941406 629.367188 498.03125 630.144531 499.160156 C 630.917969 500.292969 631.636719 501.457031 632.300781 502.65625 C 632.960938 503.859375 633.5625 505.089844 634.101562 506.351562 C 634.640625 507.609375 635.121094 508.894531 635.535156 510.199219 C 635.949219 511.507812 636.296875 512.832031 636.582031 514.171875 C 636.867188 515.511719 637.085938 516.863281 637.238281 518.226562 C 637.390625 519.589844 637.476562 520.957031 637.496094 522.328125 C 637.511719 523.699219 637.464844 525.066406 637.347656 526.433594 C 637.230469 527.800781 637.046875 529.15625 636.800781 530.503906 C 636.550781 531.851562 636.234375 533.1875 635.855469 534.503906 C 635.476562 535.820312 635.03125 537.117188 634.523438 538.390625 C 634.015625 539.664062 633.449219 540.910156 632.820312 542.128906 C 632.191406 543.347656 631.503906 544.53125 630.757812 545.679688 C 630.011719 546.832031 629.210938 547.941406 628.355469 549.015625 C 627.503906 550.085938 626.597656 551.117188 625.640625 552.097656 L 558.628906 619.109375 C 555.664062 622.042969 552.445312 624.660156 548.964844 626.960938 C 545.484375 629.261719 541.8125 631.199219 537.953125 632.777344 C 534.089844 634.351562 530.113281 635.539062 526.015625 636.332031 C 521.921875 637.125 517.789062 637.511719 513.617188 637.488281 Z M 245.695312 177.789062 L 181.503906 241.984375 C 180.875 242.644531 180.296875 243.347656 179.769531 244.09375 C 179.238281 244.835938 178.769531 245.617188 178.351562 246.429688 C 177.9375 247.242188 177.582031 248.082031 177.289062 248.949219 C 176.996094 249.8125 176.765625 250.695312 176.601562 251.589844 C 176.433594 252.488281 176.335938 253.394531 176.300781 254.308594 C 176.265625 255.21875 176.292969 256.128906 176.390625 257.039062 C 176.488281 257.945312 176.648438 258.84375 176.875 259.726562 C 177.101562 260.613281 177.390625 261.476562 177.742188 262.316406 C 237.183594 420.851562 347.710938 531.378906 506.253906 590.828125 C 507.097656 591.179688 507.960938 591.46875 508.847656 591.695312 C 509.730469 591.921875 510.625 592.082031 511.535156 592.179688 C 512.441406 592.277344 513.351562 592.308594 514.265625 592.273438 C 515.175781 592.238281 516.082031 592.136719 516.980469 591.972656 C 517.878906 591.804688 518.757812 591.574219 519.625 591.28125 C 520.488281 590.988281 521.328125 590.632812 522.140625 590.21875 C 522.953125 589.804688 523.734375 589.332031 524.476562 588.804688 C 525.222656 588.277344 525.925781 587.699219 526.585938 587.070312 L 590.78125 522.878906 L 520.484375 452.582031 C 519.738281 451.820312 518.894531 451.195312 517.949219 450.707031 L 464.945312 488.261719 C 463.988281 488.941406 462.980469 489.542969 461.925781 490.066406 C 460.875 490.589844 459.785156 491.027344 458.664062 491.382812 C 457.542969 491.734375 456.402344 492 455.238281 492.175781 C 454.074219 492.351562 452.90625 492.4375 451.730469 492.429688 C 450.554688 492.425781 449.382812 492.328125 448.222656 492.140625 C 447.0625 491.953125 445.921875 491.675781 444.804688 491.308594 C 443.6875 490.941406 442.605469 490.492188 441.558594 489.957031 C 440.507812 489.425781 439.507812 488.8125 438.554688 488.121094 C 408.179688 466.132812 379.734375 441.878906 353.21875 415.359375 C 326.699219 388.84375 302.449219 360.394531 280.457031 330.019531 C 279.769531 329.066406 279.15625 328.066406 278.621094 327.019531 C 278.085938 325.972656 277.636719 324.890625 277.273438 323.773438 C 276.90625 322.65625 276.628906 321.515625 276.441406 320.355469 C 276.253906 319.195312 276.15625 318.027344 276.148438 316.851562 C 276.144531 315.675781 276.226562 314.507812 276.402344 313.34375 C 276.578125 312.183594 276.84375 311.039062 277.195312 309.917969 C 277.550781 308.796875 277.988281 307.710938 278.511719 306.65625 C 279.035156 305.605469 279.636719 304.597656 280.316406 303.636719 L 317.855469 250.613281 C 317.363281 249.664062 316.738281 248.820312 315.976562 248.074219 Z M 609.621094 536.078125 Z M 609.621094 536.078125 " fill-opacity="1" fill-rule="nonzero"/></svg>