<svg width="177" height="48" viewBox="0 0 177 48" fill="none" xmlns="http://www.w3.org/2000/svg">
<path fill-rule="evenodd" clip-rule="evenodd" d="M2.27035 13.8038C2.27048 13.8035 2.27062 13.8033 2.27075 13.803L2.26993 13.8024C2.27007 13.8029 2.27021 13.8034 2.27035 13.8038ZM30.3654 31.8539C30.1118 31.8429 29.8579 31.8291 29.6038 31.8126C29.2293 31.7882 28.8544 31.7576 28.479 31.721C28.1037 31.6845 27.7278 31.6419 27.3519 31.5933C26.976 31.5446 26.6001 31.4901 26.224 31.4294C25.8479 31.3687 25.472 31.3021 25.096 31.2294C24.7201 31.1567 24.344 31.0779 23.9685 30.9932C23.593 30.9085 23.2181 30.8179 22.8433 30.7212C22.4216 30.6125 22.0032 30.4968 21.5885 30.3746C21.1738 30.2524 20.7627 30.1236 20.3556 29.9883C19.9485 29.8529 19.5453 29.7109 19.1463 29.5627C18.7474 29.4145 18.3526 29.2601 17.9622 29.0994C17.5719 28.9386 17.1863 28.772 16.8052 28.5991C16.4241 28.4261 16.0476 28.2471 15.6761 28.0622C15.3047 27.8774 14.9381 27.6865 14.5769 27.49C14.2157 27.2936 13.8595 27.0917 13.5091 26.884C13.1586 26.6763 12.8139 26.4629 12.4747 26.2442C12.1355 26.0256 11.8022 25.8015 11.4749 25.5722C11.1476 25.3429 10.8262 25.1084 10.5112 24.8688C10.1963 24.6291 9.88779 24.3843 9.5857 24.1347C9.28362 23.885 8.98776 23.6305 8.6991 23.3711C8.41041 23.1117 8.12888 22.8476 7.85414 22.5788C7.5794 22.31 7.31149 22.0365 7.05124 21.7586C6.79098 21.4807 6.53801 21.1983 6.29274 20.9117C6.04333 20.6203 5.80388 20.3268 5.57393 20.031C5.344 19.7352 5.12363 19.4373 4.91329 19.1377C4.70296 18.8381 4.50258 18.5365 4.31199 18.2334C4.1214 17.9304 3.94074 17.6261 3.77003 17.3201C3.59932 17.0142 3.4385 16.7066 3.28781 16.3982C3.13712 16.0898 2.99665 15.7803 2.86612 15.4699C2.73558 15.1595 2.6152 14.8484 2.50495 14.5365C2.41877 14.2927 2.34405 14.0483 2.27035 13.8038C0.814464 16.8977 0 20.3528 0 23.9993C0 37.2546 10.7453 48 24.0013 48C36.2773 48 46.3929 38.782 47.8216 26.8907C47.793 26.9137 47.7649 26.9371 47.7368 26.9605C47.697 26.9936 47.6572 27.0267 47.616 27.0589C47.4118 27.2187 47.203 27.3749 46.9896 27.5278C46.7762 27.6806 46.5583 27.8301 46.336 27.9758C46.1137 28.1215 45.8867 28.2638 45.6557 28.4022C45.4248 28.5406 45.1896 28.6752 44.9503 28.8062C44.7109 28.9371 44.4675 29.064 44.2201 29.1874C43.9726 29.3107 43.7212 29.4302 43.4659 29.5458C43.2106 29.6613 42.9514 29.773 42.6885 29.8806C42.4256 29.9882 42.159 30.0916 41.8888 30.1911C41.6186 30.2906 41.3447 30.3863 41.0674 30.4776C40.7901 30.5688 40.5096 30.6557 40.2256 30.7385C39.9415 30.8214 39.6539 30.9 39.3633 30.9743C39.0727 31.0486 38.779 31.1186 38.4822 31.1842C38.1854 31.2497 37.8854 31.3107 37.5826 31.3673C37.2798 31.424 36.9743 31.4765 36.6657 31.5241C36.6542 31.5259 36.6427 31.5277 36.6311 31.5294C36.5244 33.1767 35.1526 34.4803 33.4795 34.4803C31.9162 34.4803 30.6182 33.3446 30.3654 31.8539Z" fill="url(#paint0_linear_1197_18978)"/>
<path fill-rule="evenodd" clip-rule="evenodd" d="M33.4795 28.165C32.0822 28.165 30.8968 29.0723 30.4803 30.3295C30.221 30.3187 29.9613 30.3048 29.7013 30.2878C29.3429 30.2644 28.9838 30.2352 28.6245 30.2002C28.2651 30.1652 27.9052 30.1242 27.5453 30.0776C27.1854 30.031 26.8255 29.9785 26.4653 29.9204C26.1051 29.8622 25.7448 29.7986 25.3846 29.729C25.0243 29.6593 24.664 29.5837 24.3042 29.5026C23.9443 29.4215 23.5846 29.3346 23.2254 29.2421C22.8224 29.1382 22.4228 29.0278 22.0267 28.9112C21.6307 28.7946 21.2384 28.6716 20.8497 28.5425C20.461 28.4135 20.0759 28.2785 19.695 28.1374C19.3142 27.9962 18.9376 27.849 18.5652 27.696C18.1927 27.543 17.8244 27.3839 17.4608 27.2193C17.0972 27.0547 16.7382 26.8846 16.384 26.7088C16.0298 26.533 15.6805 26.3517 15.3362 26.1649C14.9919 25.9782 14.6527 25.7858 14.3187 25.5884C13.9848 25.391 13.6561 25.1886 13.3331 24.9808C13.0101 24.7731 12.6925 24.56 12.3808 24.3422C12.0692 24.1244 11.7637 23.9017 11.464 23.6741C11.1642 23.4466 10.8705 23.2144 10.5832 22.9774C10.2959 22.7403 10.015 22.4985 9.74064 22.2523C9.46623 22.0061 9.19831 21.7556 8.93733 21.5005C8.67635 21.2454 8.42235 20.986 8.1753 20.7224C7.92824 20.4587 7.68796 20.191 7.45532 19.9191C7.22677 19.652 7.00704 19.3829 6.79625 19.1122C6.58545 18.8416 6.38394 18.569 6.19102 18.2952C5.99811 18.0214 5.81379 17.7461 5.63886 17.4695C5.46392 17.193 5.29811 16.9152 5.1413 16.6364C4.98449 16.3575 4.83695 16.0777 4.69838 15.7969C4.5598 15.5162 4.4303 15.2346 4.31009 14.9524C4.18988 14.6702 4.07893 14.3875 3.97721 14.1043C3.8755 13.8211 3.78322 13.5373 3.70014 13.2535C3.61705 12.9697 3.54322 12.6858 3.47888 12.4019C3.43293 12.1991 3.397 11.9964 3.36107 11.7937L3.35665 11.7687C4.69999 9.50892 6.39981 7.48518 8.38481 5.78268C8.39923 5.82109 8.41295 5.85952 8.42667 5.89794L8.4267 5.89801C8.44872 5.95968 8.47074 6.02134 8.49564 6.08293C8.5955 6.32996 8.70424 6.57679 8.82143 6.82293C8.93862 7.0691 9.06435 7.31453 9.19871 7.55941C9.33309 7.80431 9.47607 8.04834 9.62749 8.29156C9.77891 8.53481 9.93861 8.7774 10.107 9.01861C10.2753 9.25983 10.4524 9.49975 10.6375 9.73857C10.8227 9.97739 11.0161 10.215 11.218 10.4511C11.4198 10.6871 11.63 10.9216 11.8484 11.1545C12.0136 11.3308 12.1827 11.5052 12.3555 11.6776C12.1843 12.0288 12.0881 12.4234 12.0881 12.8404C12.0881 14.3101 13.2791 15.4999 14.7477 15.4999C15.3724 15.4999 15.9467 15.2847 16.4004 14.9243C16.6552 15.0901 16.914 15.2527 17.1767 15.4118C17.4675 15.588 17.7632 15.76 18.0634 15.9278C18.3635 16.0957 18.6681 16.2594 18.9771 16.4187C19.2861 16.578 19.5994 16.7331 19.9168 16.8836C20.2341 17.0341 20.5555 17.1799 20.8808 17.3214C21.2061 17.4629 21.5352 17.5999 21.868 17.7321C22.2009 17.8642 22.5373 17.9915 22.8772 18.1141C23.2171 18.2366 23.5604 18.3542 23.9069 18.467C24.2534 18.5797 24.6032 18.6877 24.9559 18.7904C25.3085 18.8931 25.6641 18.9904 26.0225 19.0828C26.7193 19.2625 27.4171 19.4203 28.1143 19.5556C28.8116 19.6908 29.5081 19.8035 30.2032 19.8939C30.8982 19.9844 31.5918 20.0525 32.2822 20.0979C32.6274 20.1206 32.9718 20.1376 33.3154 20.149C33.659 20.1603 34.0018 20.1659 34.3435 20.1659C34.895 20.1659 35.4378 20.1514 35.9717 20.1226C36.5056 20.0939 37.0305 20.0509 37.5453 19.9941C38.0601 19.9374 38.5649 19.8666 39.0592 19.7827C39.5534 19.6988 40.0371 19.6017 40.5093 19.4915C40.9816 19.3813 41.4424 19.2582 41.8911 19.1225C42.3399 18.9868 42.7768 18.8387 43.2006 18.6784C43.6244 18.518 44.0353 18.3454 44.4327 18.1612C44.8301 17.977 45.214 17.7813 45.5834 17.5741C45.9529 17.3669 46.308 17.1483 46.6481 16.9189C46.6925 16.889 46.7342 16.857 46.7758 16.8251L46.7759 16.825L46.776 16.8249C46.8099 16.7989 46.8437 16.7729 46.8792 16.748C47.6052 19.036 48.002 21.4707 48.002 23.9995C48.002 24.174 47.9961 24.3471 47.9902 24.5202C47.988 24.5848 47.9858 24.6493 47.9839 24.714L47.9503 24.7469C47.8429 24.8524 47.7354 24.958 47.6235 25.0606C47.4518 25.2182 47.2753 25.3724 47.0945 25.5239C46.9137 25.6755 46.7285 25.8239 46.5388 25.9692C46.3492 26.1145 46.1551 26.257 45.9568 26.396C45.7585 26.535 45.5562 26.6707 45.3496 26.8031C45.143 26.9356 44.932 27.0648 44.7172 27.1906C44.5025 27.3165 44.2839 27.4386 44.0613 27.5577C43.8387 27.6767 43.612 27.7926 43.3818 27.9047C43.1516 28.0168 42.9175 28.1254 42.6799 28.2305C42.4423 28.3355 42.2011 28.4368 41.9564 28.5347C41.7116 28.6325 41.4636 28.7267 41.212 28.8172C40.9604 28.9077 40.7051 28.9944 40.4468 29.0774C40.1886 29.1604 39.9271 29.2395 39.6624 29.3148C39.3978 29.3901 39.1299 29.4614 38.8591 29.5289C38.5883 29.5965 38.3144 29.6603 38.0377 29.7199C37.761 29.7795 37.4814 29.8351 37.1991 29.8866C36.9219 29.9371 36.6423 29.9838 36.3599 30.0264C35.8647 28.929 34.7604 28.165 33.4795 28.165Z" fill="url(#paint1_linear_1197_18978)"/>
<path fill-rule="evenodd" clip-rule="evenodd" d="M18.5806 0.622103C18.5805 0.622065 18.5805 0.622026 18.5805 0.621988L18.5805 0.622111C18.5805 0.622108 18.5806 0.622106 18.5806 0.622103ZM34.7523 8.3752C34.9521 8.36815 35.1507 8.35801 35.348 8.34479C35.7701 8.31653 36.1862 8.27426 36.5958 8.21864C37.0054 8.16303 37.4085 8.09398 37.8043 8.01194C38.2001 7.92989 38.5887 7.83497 38.9692 7.7274C39.3497 7.61984 39.7219 7.49957 40.0857 7.36741C40.3831 7.2594 40.6708 7.13798 40.9562 7.0141C36.6141 2.68016 30.621 0 24.0012 0C22.1361 0 20.3233 0.219621 18.5806 0.622103C18.7017 0.801458 18.8261 0.980126 18.957 1.15685C19.1036 1.35485 19.255 1.5494 19.4113 1.74084C19.5676 1.93227 19.729 2.12051 19.8947 2.30518C20.0604 2.48985 20.2304 2.67101 20.4052 2.8487C20.58 3.02639 20.7593 3.20048 20.9428 3.37099C21.1263 3.54149 21.3141 3.70856 21.506 3.87167C21.6979 4.03477 21.8939 4.19405 22.0939 4.34955C22.294 4.50505 22.4981 4.65656 22.7059 4.80425C22.9137 4.95193 23.1253 5.09571 23.3406 5.23537C23.5558 5.37502 23.7745 5.51071 23.9969 5.64212C24.2192 5.77354 24.4453 5.90076 24.6744 6.02372C24.9036 6.14668 25.136 6.26508 25.3716 6.37939C25.6072 6.49369 25.8459 6.60368 26.0876 6.70912C26.3294 6.81455 26.5742 6.91576 26.8218 7.01212C27.0694 7.10847 27.3197 7.20016 27.5728 7.28722C27.8259 7.37428 28.0817 7.45647 28.3399 7.53403C28.5982 7.61159 28.8593 7.6843 29.1224 7.75215C29.531 7.85745 29.9414 7.94993 30.3529 8.02922C30.524 8.06218 30.6952 8.09286 30.8665 8.12128C31.2216 7.44154 31.9334 6.97697 32.7538 6.97697C33.6721 6.97697 34.4547 7.55988 34.7523 8.3752Z" fill="url(#paint2_linear_1197_18978)"/>
<path fill-rule="evenodd" clip-rule="evenodd" d="M9.65056 4.76862C9.65952 4.7964 9.66768 4.82417 9.67585 4.85194C9.68659 4.88848 9.69733 4.92502 9.7099 4.96159C9.78463 5.17894 9.86731 5.39621 9.9575 5.61356C10.0477 5.83091 10.1455 6.04812 10.2511 6.26515C10.3566 6.48218 10.4699 6.69916 10.5906 6.91555C10.7114 7.13193 10.8395 7.3478 10.9754 7.56322C11.1113 7.77864 11.2548 7.99323 11.4057 8.20734C11.5566 8.42145 11.7151 8.63504 11.8809 8.84752C12.0466 9.06 12.2199 9.27168 12.4004 9.48221C12.581 9.69274 12.7687 9.90198 12.964 10.1102C13.1038 10.2593 13.2466 10.407 13.3922 10.5532C13.7892 10.3177 14.2527 10.1825 14.7477 10.1825C16.2166 10.1825 17.4068 11.3723 17.4068 12.8404C17.4068 13.1306 17.3604 13.4098 17.2746 13.6712C17.5131 13.8258 17.7555 13.9776 18.0015 14.1262C18.2771 14.2927 18.5572 14.4553 18.8418 14.6139C19.4109 14.9313 19.9979 15.2326 20.6004 15.5174C21.203 15.8023 21.8213 16.0707 22.4538 16.3211C23.0864 16.5715 23.7331 16.8041 24.3921 17.0183C25.0512 17.2324 25.7226 17.4279 26.4047 17.6038C27.0702 17.7753 27.7365 17.9255 28.402 18.0546C29.0675 18.1837 29.7322 18.2916 30.3953 18.378C31.0584 18.4644 31.72 18.5292 32.3784 18.5725C33.0368 18.6159 33.6922 18.6378 34.3434 18.6378C34.85 18.6378 35.3487 18.625 35.8388 18.5997C36.3289 18.5743 36.8104 18.5364 37.2827 18.4865C37.755 18.4366 38.218 18.3744 38.6712 18.3006C39.1243 18.2268 39.5673 18.1413 39.9999 18.0444C40.4326 17.9474 40.855 17.8391 41.2658 17.7198C41.6766 17.6004 42.076 17.4701 42.4637 17.3291C42.8513 17.1881 43.2269 17.0364 43.59 16.8744C43.9532 16.7124 44.3037 16.5403 44.6409 16.358C44.9782 16.1758 45.3024 15.9836 45.6124 15.7819C45.8707 15.6139 46.1132 15.4352 46.3517 15.2541C45.3298 12.6492 43.8682 10.265 42.0549 8.19554C42.0275 8.20847 42.001 8.22246 41.9746 8.23644L41.9745 8.2365C41.9445 8.2523 41.9146 8.2681 41.8835 8.28239C41.5015 8.45775 41.1095 8.6198 40.7076 8.76852C40.3058 8.91724 39.8944 9.05265 39.4744 9.1737C39.0543 9.29475 38.6256 9.40166 38.1889 9.49399C37.7521 9.58633 37.3072 9.66406 36.8554 9.72664C36.4035 9.78922 35.9445 9.8367 35.4791 9.86851C35.2291 9.88559 34.9774 9.89816 34.724 9.90613C34.4073 10.6834 33.6443 11.2306 32.7538 11.2306C31.765 11.2306 30.9338 10.5568 30.6952 9.64249C30.4849 9.60847 30.2748 9.5713 30.0651 9.53091C29.6219 9.44563 29.1801 9.34624 28.7402 9.23302C28.456 9.15973 28.1744 9.08112 27.8953 8.99722C27.6162 8.91331 27.3396 8.82426 27.066 8.72998C26.7924 8.6357 26.5219 8.53614 26.2541 8.43171C25.9863 8.32727 25.7214 8.21792 25.4598 8.10355C25.1983 7.98919 24.9402 7.86998 24.6852 7.74593C24.4302 7.62188 24.1783 7.49274 23.9302 7.35922C23.6822 7.2257 23.4377 7.08774 23.1969 6.945C22.9561 6.80226 22.7191 6.65503 22.4859 6.50328C22.2528 6.35152 22.0234 6.19534 21.7982 6.03483C21.573 5.87431 21.3521 5.70913 21.1352 5.54005C20.9183 5.37097 20.7055 5.19788 20.4973 5.02051C20.2891 4.84313 20.0854 4.66169 19.8862 4.47621C19.687 4.29073 19.4924 4.10127 19.3026 3.90794C19.1128 3.71462 18.9278 3.51743 18.7477 3.3165C18.5676 3.11557 18.3922 2.91059 18.2223 2.70225C18.0523 2.4939 17.8874 2.2823 17.7279 2.06678C17.566 1.8482 17.4111 1.62735 17.2625 1.40497C17.2042 1.31762 17.1494 1.22933 17.0945 1.14105L17.0945 1.14104L17.0944 1.1409C17.0719 1.10471 17.0495 1.06852 17.0267 1.0324C14.337 1.84804 11.8494 3.12583 9.65047 4.76853L9.65056 4.76862Z" fill="url(#paint3_linear_1197_18978)"/>
<path d="M70.1277 25.9548L67.4673 18.5353L64.7827 25.9548H70.1277ZM71.1466 28.7624H63.7632L62.3211 32.7226H59.0395L65.6028 15.2769H69.4312L75.9946 32.7226H72.5886L71.1466 28.7624Z" fill="#414042"/>
<path d="M70.1277 25.9548L67.4673 18.5353L64.7827 25.9548H70.1277ZM71.1466 28.7624H63.7632L62.3211 32.7226H59.0395L65.6028 15.2769H69.4312L75.9946 32.7226H72.5886L71.1466 28.7624Z" stroke="#414042" stroke-width="0.936312" stroke-miterlimit="10" stroke-linecap="round" stroke-linejoin="round"/>
<path d="M93.7944 15.2757V32.7213H90.5127L82.3092 21.1913V32.7213H79.0273V15.2757H82.3092L90.5127 26.7806V15.2757H93.7944Z" fill="#414042"/>
<path d="M93.7944 15.2757V32.7213H90.5127L82.3092 21.1913V32.7213H79.0273V15.2757H82.3092L90.5127 26.7806V15.2757H93.7944Z" stroke="#414042" stroke-width="0.936312" stroke-miterlimit="10" stroke-linecap="round" stroke-linejoin="round"/>
<path d="M102.423 18.3094H97.5002V15.2765H110.626V18.3094H105.704V32.7222H102.423V18.3094Z" fill="#414042"/>
<path d="M102.423 18.3094H97.5002V15.2765H110.626V18.3094H105.704V32.7222H102.423V18.3094Z" stroke="#414042" stroke-width="0.936312" stroke-miterlimit="10" stroke-linecap="round" stroke-linejoin="round"/>
<path d="M122.584 25.9548L119.923 18.5353L117.239 25.9548H122.584ZM123.602 28.7624H116.219L114.777 32.7226H111.496L118.059 15.2769H121.887L128.451 32.7226H125.044L123.602 28.7624Z" fill="#414042"/>
<path d="M122.584 25.9548L119.923 18.5353L117.239 25.9548H122.584ZM123.602 28.7624H116.219L114.777 32.7226H111.496L118.059 15.2769H121.887L128.451 32.7226H125.044L123.602 28.7624Z" stroke="#414042" stroke-width="0.936312" stroke-miterlimit="10" stroke-linecap="round" stroke-linejoin="round"/>
<path d="M134.765 23.1716H137.748C138.842 23.1716 139.651 22.98 140.173 22.5953C140.694 22.2111 140.955 21.5595 140.955 20.6398C140.955 19.7548 140.698 19.1279 140.185 18.7599C139.671 18.3926 138.85 18.2087 137.724 18.2087H134.765V23.1716ZM141.378 32.7217L137.848 26.0792H134.765V32.7217H131.483V15.2762H137.724C139.961 15.2762 141.635 15.7275 142.745 16.6295C143.856 17.532 144.411 18.844 144.411 20.5651C144.411 21.785 144.138 22.8208 143.591 23.6729C143.044 24.5253 142.232 25.1604 141.154 25.578L144.983 32.7217H141.378Z" fill="#414042"/>
<path d="M134.765 23.1716H137.748C138.842 23.1716 139.651 22.98 140.173 22.5953C140.694 22.2111 140.955 21.5595 140.955 20.6398C140.955 19.7548 140.698 19.1279 140.185 18.7599C139.671 18.3926 138.85 18.2087 137.724 18.2087H134.765V23.1716ZM141.378 32.7217L137.848 26.0792H134.765V32.7217H131.483V15.2762H137.724C139.961 15.2762 141.635 15.7275 142.745 16.6295C143.856 17.532 144.411 18.844 144.411 20.5651C144.411 21.785 144.138 22.8208 143.591 23.6729C143.044 24.5253 142.232 25.1604 141.154 25.578L144.983 32.7217H141.378Z" stroke="#414042" stroke-width="0.936312" stroke-miterlimit="10" stroke-linecap="round" stroke-linejoin="round"/>
<path d="M151.919 18.1851V22.5466H159.377V25.2782H151.919V29.8155H159.924V32.7231H148.637V15.2775H159.924V18.1851H151.919Z" fill="#414042"/>
<path d="M151.919 18.1851V22.5466H159.377V25.2782H151.919V29.8155H159.924V32.7231H148.637V15.2775H159.924V18.1851H151.919Z" stroke="#414042" stroke-width="0.936312" stroke-miterlimit="10" stroke-linecap="round" stroke-linejoin="round"/>
<path d="M166.711 32.6476C165.667 32.397 164.681 32.0549 163.752 31.62V28.4113C165.907 29.5815 167.83 30.1661 169.52 30.1661C170.365 30.1661 171.049 29.9824 171.571 29.6147C172.093 29.2471 172.355 28.7292 172.355 28.0607C172.355 27.5932 172.209 27.1958 171.919 26.8702C171.629 26.5441 171.268 26.277 170.838 26.068C170.407 25.8591 169.794 25.6042 168.998 25.3035C167.92 24.9024 167.042 24.5182 166.363 24.1505C165.683 23.7829 165.103 23.2606 164.623 22.5839C164.141 21.907 163.902 21.0339 163.902 19.9641C163.902 18.3936 164.44 17.1696 165.518 16.2924C166.595 15.415 168.07 14.9762 169.943 14.9762C170.821 14.9762 171.683 15.0725 172.528 15.2647C173.374 15.4568 174.152 15.7368 174.865 16.1044V19.2375C173.191 18.3019 171.575 17.8339 170.018 17.8339C169.155 17.8339 168.48 17.9886 167.992 18.2976C167.502 18.6067 167.258 19.0455 167.258 19.6133C167.258 20.1818 167.51 20.6284 168.016 20.9546C168.521 21.2803 169.304 21.6357 170.365 22.0198C171.476 22.4377 172.387 22.839 173.1 23.2227C173.812 23.6075 174.43 24.1631 174.953 24.8897C175.475 25.6166 175.752 26.5565 175.785 27.7099C175.785 29.3639 175.23 30.6635 174.119 31.6072C173.009 32.5517 171.525 33.0238 169.669 33.0238C168.741 33.0238 167.755 32.8981 166.711 32.6476Z" fill="#414042"/>
<path d="M166.711 32.6476C165.667 32.397 164.681 32.0549 163.752 31.62V28.4113C165.907 29.5815 167.83 30.1661 169.52 30.1661C170.365 30.1661 171.049 29.9824 171.571 29.6147C172.093 29.2471 172.355 28.7292 172.355 28.0607C172.355 27.5932 172.209 27.1958 171.919 26.8702C171.629 26.5441 171.268 26.277 170.838 26.068C170.407 25.8591 169.794 25.6042 168.998 25.3035C167.92 24.9024 167.042 24.5182 166.363 24.1505C165.683 23.7829 165.103 23.2606 164.623 22.5839C164.141 21.907 163.902 21.0339 163.902 19.9641C163.902 18.3936 164.44 17.1696 165.518 16.2924C166.595 15.415 168.07 14.9762 169.943 14.9762C170.821 14.9762 171.683 15.0725 172.528 15.2647C173.374 15.4568 174.152 15.7368 174.865 16.1044V19.2375C173.191 18.3019 171.575 17.8339 170.018 17.8339C169.155 17.8339 168.48 17.9886 167.992 18.2976C167.502 18.6067 167.258 19.0455 167.258 19.6133C167.258 20.1818 167.51 20.6284 168.016 20.9546C168.521 21.2803 169.304 21.6357 170.365 22.0198C171.476 22.4377 172.387 22.839 173.1 23.2227C173.812 23.6075 174.43 24.1631 174.953 24.8897C175.475 25.6166 175.752 26.5565 175.785 27.7099C175.785 29.3639 175.23 30.6635 174.119 31.6072C173.009 32.5517 171.525 33.0238 169.669 33.0238C168.741 33.0238 167.755 32.8981 166.711 32.6476V32.6476Z" stroke="#414042" stroke-width="0.936312" stroke-miterlimit="10" stroke-linecap="round" stroke-linejoin="round"/>
<defs>
<linearGradient id="paint0_linear_1197_18978" x1="33.2654" y1="3.34592" x2="16.7537" y2="40.1582" gradientUnits="userSpaceOnUse">
<stop stop-color="#F2B81A"/>
<stop offset="0.29219" stop-color="#E78C00"/>
<stop offset="0.95869" stop-color="#BE1E2D"/>
<stop offset="1" stop-color="#BE1E2D"/>
</linearGradient>
<linearGradient id="paint1_linear_1197_18978" x1="33.2654" y1="3.34597" x2="16.7537" y2="40.1583" gradientUnits="userSpaceOnUse">
<stop stop-color="#F2B81A"/>
<stop offset="0.29219" stop-color="#E78C00"/>
<stop offset="0.95869" stop-color="#BE1E2D"/>
<stop offset="1" stop-color="#BE1E2D"/>
</linearGradient>
<linearGradient id="paint2_linear_1197_18978" x1="33.2654" y1="3.34642" x2="16.7537" y2="40.1587" gradientUnits="userSpaceOnUse">
<stop stop-color="#F2B81A"/>
<stop offset="0.29219" stop-color="#E78C00"/>
<stop offset="0.95869" stop-color="#BE1E2D"/>
<stop offset="1" stop-color="#BE1E2D"/>
</linearGradient>
<linearGradient id="paint3_linear_1197_18978" x1="33.2653" y1="3.34605" x2="16.7536" y2="40.1584" gradientUnits="userSpaceOnUse">
<stop stop-color="#F2B81A"/>
<stop offset="0.29219" stop-color="#E78C00"/>
<stop offset="0.95869" stop-color="#BE1E2D"/>
<stop offset="1" stop-color="#BE1E2D"/>
</linearGradient>
</defs>
</svg>
