<?xml version="1.0" encoding="UTF-8"?>
<svg version="1.1" xmlns="http://www.w3.org/2000/svg" width="1417" height="567">
<path d="M0 0 C1.97785492 -0.00450165 1.97785492 -0.00450165 3.9956665 -0.00909424 C5.43819564 0.00291718 6.88072091 0.01540044 8.32324219 0.02832031 C9.80433968 0.03137955 11.28544006 0.03325442 12.76654053 0.03399658 C15.87360625 0.03860112 18.98041301 0.05302629 22.08740234 0.07519531 C26.05613571 0.10337903 30.02466439 0.11439725 33.99348831 0.11887741 C37.79093225 0.12405572 41.58832557 0.13859265 45.38574219 0.15332031 C46.10442726 0.15520103 46.82311234 0.15708176 47.56357574 0.15901947 C49.61667078 0.16595513 51.66961161 0.17962328 53.72265625 0.1953125 C55.47113861 0.2055545 55.47113861 0.2055545 57.25494385 0.21600342 C71.40679085 0.80661555 84.10901325 7.07106764 93.85058594 17.23535156 C96.38960324 20.27880938 98.58954623 23.49383292 99.62011719 27.35644531 C99.20996094 29.59082031 99.20996094 29.59082031 98.62011719 31.35644531 C99.28011719 31.35644531 99.94011719 31.35644531 100.62011719 31.35644531 C103.56394431 44.60366734 101.59353236 56.83855734 94.62011719 68.35644531 C90.70029384 73.29883127 85.82006137 76.85444209 80.62011719 80.35644531 C80.77351562 80.95972656 80.92691406 81.56300781 81.08496094 82.18457031 C81.67097958 84.56286496 82.1526488 86.95232218 82.62011719 89.35644531 C83.28011719 89.35644531 83.94011719 89.35644531 84.62011719 89.35644531 C85.54746127 91.21113347 86.47409047 93.06618191 87.39746094 94.92285156 C88.25233517 96.62440635 89.1206576 98.31924117 89.99902344 100.00878906 C90.45148438 100.88664062 90.90394531 101.76449219 91.37011719 102.66894531 C91.79808594 103.49007812 92.22605469 104.31121094 92.66699219 105.15722656 C93.62011719 107.35644531 93.62011719 107.35644531 93.62011719 110.35644531 C94.28011719 110.35644531 94.94011719 110.35644531 95.62011719 110.35644531 C96.4612589 111.78939029 97.29277406 113.22798936 98.12011719 114.66894531 C98.81621094 115.86970703 98.81621094 115.86970703 99.52636719 117.09472656 C100.62011719 119.35644531 100.62011719 119.35644531 100.62011719 122.35644531 C101.28011719 122.35644531 101.94011719 122.35644531 102.62011719 122.35644531 C102.81503171 123.81380618 103.00081077 125.27239124 103.18261719 126.73144531 C103.28703125 127.54355469 103.39144531 128.35566406 103.49902344 129.19238281 C103.62011719 131.35644531 103.62011719 131.35644531 102.62011719 133.35644531 C97.86968615 133.5051465 93.12061863 133.61382043 88.3684082 133.68603516 C86.75325923 133.71614618 85.13827296 133.75704595 83.52368164 133.80908203 C81.19734556 133.88216065 78.8731757 133.91595411 76.54589844 133.94238281 C75.82799637 133.97335052 75.1100943 134.00431824 74.37043762 134.03622437 C71.53679358 134.03811194 69.29654139 133.90407239 67.04574585 132.08184814 C64.39664689 129.02263121 62.97625034 126.39262104 62.62011719 122.35644531 C61.96011719 122.35644531 61.30011719 122.35644531 60.62011719 122.35644531 C57.62011719 115.73144531 57.62011719 115.73144531 57.62011719 112.35644531 C56.96011719 112.35644531 56.30011719 112.35644531 55.62011719 112.35644531 C54.11065838 109.25679128 52.61421052 106.15103129 51.12011719 103.04394531 C50.69085937 102.16287109 50.26160156 101.28179687 49.81933594 100.37402344 C49.41328125 99.52646484 49.00722656 98.67890625 48.58886719 97.80566406 C48.21181641 97.02537842 47.83476563 96.24509277 47.44628906 95.44116211 C46.62011719 93.35644531 46.62011719 93.35644531 46.62011719 90.35644531 C45.96011719 90.35644531 45.30011719 90.35644531 44.62011719 90.35644531 C44.62011719 89.03644531 44.62011719 87.71644531 44.62011719 86.35644531 C39.01011719 86.35644531 33.40011719 86.35644531 27.62011719 86.35644531 C27.625354 87.67362549 27.63059082 88.99080566 27.63598633 90.34790039 C27.65406868 95.22875287 27.66556108 100.10960238 27.67504883 104.99047852 C27.68008162 107.10409035 27.68690839 109.2176987 27.69555664 111.33129883 C27.70766823 114.36703349 27.713356 117.40272217 27.71777344 120.43847656 C27.72293472 121.385439 27.72809601 122.33240143 27.7334137 123.30805969 C27.73348923 124.18874619 27.73356476 125.06943268 27.73364258 125.97680664 C27.73586319 126.75180008 27.7380838 127.52679352 27.7403717 128.32527161 C27.62011719 130.35644531 27.62011719 130.35644531 26.62011719 133.35644531 C21.97537737 133.43060598 17.33098219 133.48505146 12.68579102 133.52124023 C11.10565182 133.53632626 9.5255545 133.55679782 7.94555664 133.58276367 C5.67421134 133.61915657 3.4034196 133.63617294 1.13183594 133.64941406 C0.07230965 133.67263985 0.07230965 133.67263985 -1.00862122 133.69633484 C-5.89921469 133.69801273 -5.89921469 133.69801273 -8.06669044 132.15778351 C-9.83284247 129.73510943 -9.75720181 128.18033687 -9.76083374 125.19445801 C-9.76929321 124.12607193 -9.77775269 123.05768585 -9.78646851 121.95692444 C-9.78039581 120.78487961 -9.77432312 119.61283478 -9.76806641 118.40527344 C-9.77332336 117.17095078 -9.77858032 115.93662811 -9.78399658 114.66490173 C-9.79494971 111.27842921 -9.79236618 107.89250542 -9.78285933 104.50606346 C-9.77526985 100.96403636 -9.78230635 97.42203289 -9.78701782 93.88000488 C-9.79247747 87.93151636 -9.78527835 81.98313954 -9.77099609 76.03466797 C-9.75466909 69.15507509 -9.75995745 62.27574892 -9.77647531 55.39616251 C-9.79008429 49.4920468 -9.79201275 43.58801143 -9.7841593 37.6838851 C-9.77947951 34.15648622 -9.77886622 30.62921275 -9.78876877 27.1018219 C-9.79903463 23.17031466 -9.78481055 19.23910675 -9.76806641 15.30761719 C-9.7741391 14.13557236 -9.78021179 12.96352753 -9.78646851 11.75596619 C-9.77800903 10.68758011 -9.76954956 9.61919403 -9.76083374 8.51843262 C-9.75970266 7.58855278 -9.75857159 6.65867294 -9.75740623 5.70061493 C-8.83954571 0.00131095 -5.06448737 -0.01588274 0 0 Z M27.62011719 28.35644531 C27.62011719 38.25644531 27.62011719 48.15644531 27.62011719 58.35644531 C31.64199219 58.41832031 35.66386719 58.48019531 39.80761719 58.54394531 C41.06727295 58.57125732 42.32692871 58.59856934 43.62475586 58.62670898 C44.62740479 58.63420166 45.63005371 58.64169434 46.66308594 58.64941406 C48.19485474 58.67297974 48.19485474 58.67297974 49.75756836 58.69702148 C55.41570917 58.02383543 58.9212122 54.46633974 62.62011719 50.35644531 C64.17555956 45.69011821 64.74706348 41.61838751 62.52636719 37.16113281 C59.33530787 32.56125475 56.15882189 29.75302238 50.62011719 28.35644531 C46.62893176 28.01438464 42.68442631 28.07282023 38.68261719 28.16894531 C33.20667969 28.26175781 33.20667969 28.26175781 27.62011719 28.35644531 Z " fill="#EF5350" transform="translate(899.3798828125,211.6435546875)"/>
<path d="M0 0 C2.11380425 0.00316292 4.22621221 -0.0203163 6.33984375 -0.0456543 C7.68359199 -0.04792712 9.02734398 -0.04863086 10.37109375 -0.04760742 C11.593125 -0.05058838 12.81515625 -0.05356934 14.07421875 -0.05664062 C17.12109375 0.31567383 17.12109375 0.31567383 18.787714 1.51157379 C20.59191167 3.95270362 20.49842598 5.53139913 20.50204468 8.55358887 C20.51050415 9.63880325 20.51896362 10.72401764 20.52767944 11.84211731 C20.52160675 13.03286362 20.51553406 14.22360992 20.50927734 15.45043945 C20.5145343 16.70426926 20.51979126 17.95809906 20.52520752 19.24992371 C20.53616114 22.69011049 20.53357678 26.12975715 20.52407026 29.56991386 C20.5164812 33.16799528 20.52351717 36.76605343 20.52822876 40.36413574 C20.53368853 46.4067805 20.52648897 52.44931529 20.51220703 58.49194336 C20.49588001 65.48059796 20.50116836 72.46899002 20.51768625 79.45763826 C20.53129488 85.4551711 20.53322385 91.45262485 20.52537024 97.45016813 C20.52069026 101.03345767 20.52007768 104.61662376 20.52997971 108.1999054 C20.54024493 112.19367703 20.52602204 116.18715397 20.50927734 120.1809082 C20.51535004 121.37165451 20.52142273 122.56240082 20.52767944 123.78923035 C20.51921997 124.87444473 20.5107605 125.95965912 20.50204468 127.07775879 C20.5009136 128.02238731 20.49978252 128.96701584 20.49861717 129.94026947 C20.12109375 132.31567383 20.12109375 132.31567383 18.78296852 134.11977386 C16.14826892 136.01572729 13.75243113 135.68698906 10.5546875 135.67895508 C9.26498047 135.67831055 7.97527344 135.67766602 6.64648438 135.67700195 C5.97593018 135.66870361 5.30537598 135.66040527 4.61450195 135.65185547 C2.56226487 135.62821612 0.51132342 135.63130235 -1.54101562 135.63793945 C-11.61205907 135.582521 -11.61205907 135.582521 -13.87890625 133.31567383 C-13.50390625 129.69067383 -13.50390625 129.69067383 -12.87890625 126.31567383 C-13.53890625 126.31567383 -14.19890625 126.31567383 -14.87890625 126.31567383 C-15.14703125 126.95504883 -15.41515625 127.59442383 -15.69140625 128.25317383 C-16.87890625 130.31567383 -16.87890625 130.31567383 -19.87890625 131.31567383 C-20.20890625 131.97567383 -20.53890625 132.63567383 -20.87890625 133.31567383 C-23.34765625 134.13208008 -23.34765625 134.13208008 -26.37890625 134.87817383 C-29.92679442 135.52407995 -29.92679442 135.52407995 -32.87890625 137.31567383 C-45.42701086 138.0010745 -55.3816033 137.88349689 -65.87890625 130.31567383 C-66.60078125 129.96504883 -67.32265625 129.61442383 -68.06640625 129.25317383 C-72.6209971 126.89735097 -74.52465306 122.68516774 -76.87890625 118.31567383 C-77.41515625 117.38754883 -77.95140625 116.45942383 -78.50390625 115.50317383 C-80.08767815 111.83170261 -80.77992224 108.31760632 -81.44921875 104.38989258 C-81.6770793 102.33451087 -81.6770793 102.33451087 -82.87890625 101.31567383 C-83.09848903 97.14913673 -83.06469442 92.97921053 -83.06420898 88.80737305 C-83.06637572 86.72008266 -83.08446916 84.63333794 -83.10351562 82.54614258 C-83.10645357 81.20630063 -83.10843568 79.86645617 -83.109375 78.52661133 C-83.11348389 77.31279785 -83.11759277 76.09898437 -83.12182617 74.84838867 C-82.68636445 68.51559358 -80.49277641 63.04608149 -77.87890625 57.31567383 C-77.57984375 56.64149414 -77.28078125 55.96731445 -76.97265625 55.27270508 C-72.7670158 46.23396975 -65.05007701 40.20867422 -55.87890625 36.44067383 C-46.23560989 33.58843124 -33.95603787 33.97443697 -24.87890625 38.31567383 C-23.17734375 39.08911133 -23.17734375 39.08911133 -21.44140625 39.87817383 C-18.87890625 41.31567383 -18.87890625 41.31567383 -16.87890625 43.31567383 C-16.86432373 42.08413574 -16.84974121 40.85259766 -16.8347168 39.58374023 C-16.77684973 35.02501024 -16.69961693 30.46678026 -16.61645508 25.90844727 C-16.58315097 23.93359477 -16.55513628 21.95864582 -16.5324707 19.98364258 C-16.49902503 17.14858806 -16.44671579 14.31442183 -16.390625 11.47973633 C-16.38423508 10.59323395 -16.37784515 9.70673157 -16.3712616 8.79336548 C-16.35146744 7.97266571 -16.33167328 7.15196594 -16.3112793 6.30639648 C-16.30017624 5.58247711 -16.28907318 4.85855774 -16.27763367 4.11270142 C-14.92164138 -1.99863041 -4.88191664 -0.01534122 0 0 Z M-41.87890625 66.31567383 C-47.10401697 72.74657932 -47.06068045 78.25471347 -47.06640625 86.19067383 C-47.07865234 87.07625977 -47.09089844 87.9618457 -47.10351562 88.87426758 C-47.11444719 93.76432266 -46.79454395 97.72722938 -44.87890625 102.31567383 C-44.21890625 102.31567383 -43.55890625 102.31567383 -42.87890625 102.31567383 C-42.83765625 102.91379883 -42.79640625 103.51192383 -42.75390625 104.12817383 C-42.01109825 106.57440859 -42.01109825 106.57440859 -39.31640625 108.06567383 C-33.72602263 110.0985406 -29.66706486 109.88192405 -24.12890625 108.12817383 C-20.27142587 105.97688669 -17.66053342 103.77170712 -16.29003906 99.46533203 C-15.47277808 95.19218299 -15.65162764 90.84011989 -15.62890625 86.50317383 C-15.60828125 85.53057617 -15.58765625 84.55797852 -15.56640625 83.5559082 C-15.53453902 77.67242015 -16.01075234 73.49067229 -18.87890625 68.31567383 C-21.17958644 65.82356861 -21.17958644 65.82356861 -23.87890625 64.31567383 C-25.19890625 64.31567383 -26.51890625 64.31567383 -27.87890625 64.31567383 C-27.87890625 63.65567383 -27.87890625 62.99567383 -27.87890625 62.31567383 C-33.41207023 61.76235743 -37.38862248 63.19449577 -41.87890625 66.31567383 Z " fill="#EF5350" transform="translate(1317.87890625,209.684326171875)"/>
<path d="M0 0 C2.19130534 0.69579454 2.19130534 0.69579454 4 1 C4 1.66 4 2.32 4 3 C4.85078125 3.35771484 4.85078125 3.35771484 5.71875 3.72265625 C13.12937986 7.87210139 17.91022262 15.4174023 20.359375 23.34375 C21.93118317 29.86100341 22.1072093 36.15363366 21.9375 42.8359375 C21.90111154 45.18451561 21.90111154 45.18451561 23 48 C25.28891028 49.37334617 27.45752447 50.15250816 30 51 C30.71542969 51.72058594 31.43085938 52.44117188 32.16796875 53.18359375 C35.60990146 56.60653648 39.3534153 59.27295261 43.3125 62.0625 C44.92400798 63.21237809 46.53466776 64.3634457 48.14453125 65.515625 C48.95486816 66.09505859 49.76520508 66.67449219 50.60009766 67.27148438 C58.50142874 72.96237187 66.32875891 78.78203372 73.875 84.9375 C79.76721926 89.70832862 85.95825507 94.06275584 92.11328125 98.484375 C97.13392416 102.09185251 102.13671164 105.72292178 107.125 109.375 C107.89384521 109.9333252 108.66269043 110.49165039 109.45483398 111.06689453 C113.87805215 114.31261221 118.03166487 117.73661799 122.12841797 121.38378906 C124.79951987 123.69042807 127.60113583 125.67166363 130.5 127.6875 C131.70519193 128.54058716 132.90958446 129.39480451 134.11328125 130.25 C136.12266401 131.67337744 138.13385798 133.09387996 140.14990234 134.5078125 C142.34071832 136.05210253 144.51492913 137.61767904 146.6875 139.1875 C147.71230469 139.89942505 147.71230469 139.89942505 148.7578125 140.62573242 C153.3068932 143.94658422 155.32597455 146.58773726 157 152 C156.90521359 157.40282547 155.58603901 160.94211375 152 165 C147.81040052 167.01423052 145.70967236 167.1745096 141.1875 166.0625 C135.09142185 163.3939833 129.37155941 159.43709473 124.73828125 154.67578125 C121.21538204 151.23329059 117.36082168 148.4439491 113.375 145.5625 C111.67702585 144.32299541 109.97911094 143.08340966 108.28125 141.84375 C107.41113281 141.21082031 106.54101562 140.57789063 105.64453125 139.92578125 C101.37773943 136.81864925 97.12604782 133.69111831 92.875 130.5625 C92.11880371 130.00828369 91.36260742 129.45406738 90.58349609 128.88305664 C85.31697468 125.01177471 80.146155 121.02949108 75 117 C68.15140407 111.67384523 61.26895284 106.41728063 54.23046875 101.34375 C51.57734911 99.41887481 48.93639533 97.47992489 46.30078125 95.53125 C45.4598291 94.90959961 44.61887695 94.28794922 43.75244141 93.64746094 C42.07556612 92.40696267 40.39942773 91.1654675 38.72412109 89.92285156 C35.38232116 87.45249605 32.05111488 84.99833332 28.5703125 82.7265625 C26 81 26 81 23.6875 78.625 C19.22080724 74.26218382 14.31520211 69.72421671 7.8125 69.3125 C2.33943778 69.67930135 -2.69943736 71.83278057 -7.765625 73.80859375 C-19.93196051 78.29015454 -34.2812294 77.14706787 -46 72 C-46 71.34 -46 70.68 -46 70 C-46.5671875 69.7628125 -47.134375 69.525625 -47.71875 69.28125 C-55.67626454 64.81196101 -60.4927171 56.50685269 -63 48 C-63.18949219 47.39027344 -63.37898438 46.78054687 -63.57421875 46.15234375 C-65.66860117 35.56514455 -64.38993998 24.61148346 -58.38671875 15.5703125 C-56.66584216 13.30379211 -54.86359316 11.14998951 -53 9 C-52.44570313 8.30261719 -51.89140625 7.60523438 -51.3203125 6.88671875 C-48.36949414 3.223887 -48.36949414 3.223887 -47 2 C-46.01 2 -45.02 2 -44 2 C-43.67 1.34 -43.34 0.68 -43 0 C-30.07565102 -8.44039117 -12.9307897 -8.13424036 0 0 Z M-35.3125 27.625 C-38.63558445 32.30193368 -38.58054551 36.37650689 -38 42 C-35.71100861 47.51438835 -31.8443913 49.74920001 -26.59765625 52.15234375 C-21.67803828 53.75769277 -18.10088141 52.83058102 -13.3125 50.9375 C-9.36195842 47.62758678 -6.55196332 43.81691623 -5.546875 38.6875 C-5.29398832 33.34075305 -6.43948418 30.13789676 -10 26 C-14.76738681 21.6977241 -18.43747295 20.63717497 -24.71875 20.71875 C-29.49979486 21.30819389 -32.24961178 24.14820797 -35.3125 27.625 Z " fill="#EF5350" transform="translate(387,41)"/>
<path d="M0 0 C3.07698536 1.6524551 5.2628237 3.0282676 7.375 5.8125 C8.34853581 9.21987534 8.54073016 11.4552134 8 15 C6.05836065 17.78387364 3.59104674 19.82948964 1 22 C0.18917969 22.70125 -0.62164062 23.4025 -1.45703125 24.125 C-7.72555972 29.4114896 -14.32476644 34.09459118 -21.10058594 38.70214844 C-24.83552357 41.2541958 -28.54425437 43.84332265 -32.25 46.4375 C-33.37752686 47.21830933 -33.37752686 47.21830933 -34.52783203 48.01489258 C-35.22505371 48.50368896 -35.92227539 48.99248535 -36.640625 49.49609375 C-37.26485352 49.93107178 -37.88908203 50.3660498 -38.53222656 50.81420898 C-40.1492518 51.95291597 -40.1492518 51.95291597 -41 54 C-42.62169226 54.89710636 -44.24372139 55.79360773 -45.8671875 56.6875 C-48.27017575 58.166262 -50.3790284 59.83786813 -52.5625 61.625 C-56.46587967 64.81119244 -60.45554697 67.83287932 -64.5625 70.75 C-65.13774414 71.15879395 -65.71298828 71.56758789 -66.30566406 71.98876953 C-69.73971026 74.41974701 -73.18831377 76.82942612 -76.640625 79.234375 C-77.41720459 79.77739258 -78.19378418 80.32041016 -78.99389648 80.87988281 C-80.51926733 81.94573107 -82.0473604 83.00769582 -83.57836914 84.06542969 C-84.27051514 84.54915039 -84.96266113 85.03287109 -85.67578125 85.53125 C-86.29364502 85.95986328 -86.91150879 86.38847656 -87.5480957 86.83007812 C-89.15121272 87.95587363 -89.15121272 87.95587363 -90 90 C-91.485 90.495 -91.485 90.495 -93 91 C-93.66 91.66 -94.32 92.32 -95 93 C-95.78375 93.45375 -96.5675 93.9075 -97.375 94.375 C-99.98162525 95.83426619 -99.98162525 95.83426619 -101.62890625 97.71875 C-104.98219037 100.94497393 -108.74538141 103.47717596 -112.5625 106.125 C-113.33013672 106.66253906 -114.09777344 107.20007813 -114.88867188 107.75390625 C-117.90794899 109.86503114 -120.93448399 111.95632266 -124 114 C-125.05857177 117.17571532 -125.08621545 119.3339837 -125.02734375 122.6640625 C-125.01509766 123.78683594 -125.00285156 124.90960938 -124.99023438 126.06640625 C-124.95542445 128.41543145 -124.91644727 130.76439906 -124.87304688 133.11328125 C-124.74078209 146.75989495 -127.73863494 158.49279868 -137.1875 168.9375 C-146.16875595 177.12269008 -156.45874075 179.42299405 -168.17578125 179.20703125 C-179.78469278 178.57856106 -188.32070368 173.11866402 -196.25 164.8125 C-205.40391944 154.00604743 -207.93577923 142.8930566 -207.2265625 129.13720703 C-206.32954379 120.67545946 -201.49783554 113.25803009 -196 107 C-195.23236328 106.09314453 -195.23236328 106.09314453 -194.44921875 105.16796875 C-192.73150076 103.28626814 -190.94804968 101.64187291 -189 100 C-188.31292969 99.41605469 -187.62585938 98.83210938 -186.91796875 98.23046875 C-177.95051744 92.04452092 -165.48740034 92.65048075 -155 94 C-153.32381022 94.64234728 -151.65553276 95.3061459 -150 96 C-147.46181624 96.14056122 -147.46181624 96.14056122 -144.9375 95.8125 C-144.10089844 95.73644531 -143.26429688 95.66039062 -142.40234375 95.58203125 C-139.65794473 94.91712807 -138.18484232 93.74317527 -136 92 C-135.34 92 -134.68 92 -134 92 C-133.505 90.515 -133.505 90.515 -133 89 C-131.50048828 87.68481445 -131.50048828 87.68481445 -129.5703125 86.36328125 C-128.86261719 85.87230957 -128.15492188 85.38133789 -127.42578125 84.87548828 C-126.66652344 84.35970215 -125.90726562 83.84391602 -125.125 83.3125 C-123.56464722 82.23373356 -122.00475137 81.1543059 -120.4453125 80.07421875 C-119.68250977 79.54876465 -118.91970703 79.02331055 -118.13378906 78.48193359 C-115.38748282 76.57460191 -112.69231191 74.60779951 -110 72.625 C-105.98253397 69.67640108 -101.88256403 66.90383972 -97.6796875 64.2265625 C-95.85404956 63.0902659 -95.85404956 63.0902659 -95 61 C-94.01 60.67 -93.02 60.34 -92 60 C-91.505 59.01 -91.505 59.01 -91 58 C-89.34166309 56.98624634 -87.67324707 55.98894995 -86 55 C-84.10839632 53.56326876 -82.23510416 52.10228589 -80.375 50.625 C-73.27862912 45.06579089 -65.84828557 40.02682185 -58.3828125 34.98046875 C-51.06258295 30.14231562 -51.06258295 30.14231562 -44.4375 24.4375 C-42.32772746 22.32772746 -40.2887814 20.82617367 -37.80834961 19.20678711 C-34.1513884 16.76634438 -30.61950991 14.14539102 -27.0625 11.5625 C-24.76145831 9.89477254 -22.46010596 8.22750208 -20.15673828 6.56298828 C-18.76053745 5.55116151 -17.3680192 4.53422541 -15.97998047 3.51123047 C-10.43496956 -0.5422934 -6.73628953 -1.65542087 0 0 Z M-180 130 C-181.75847956 133.51695911 -181.53258657 137.1617037 -181 141 C-179.00658976 146.10420291 -175.89938187 149.92876992 -170.97265625 152.38671875 C-166.81987316 153.67778201 -161.94046743 153.97023371 -158 152 C-158 151.34 -158 150.68 -158 150 C-156.35 149.34 -154.7 148.68 -153 148 C-153 147.34 -153 146.68 -153 146 C-152.01 145.67 -151.02 145.34 -150 145 C-147.38559146 140.68622591 -147.92589756 136.72013825 -149 132 C-149.93786348 129.61259459 -149.93786348 129.61259459 -151 128 C-151.66 128 -152.32 128 -153 128 C-153.185625 127.4225 -153.37125 126.845 -153.5625 126.25 C-155.67193893 122.94826951 -158.44461923 121.52151666 -162 120 C-169.62945634 118.43498331 -175.89967923 124.28440135 -180 130 Z " fill="#EF5350" transform="translate(322,96)"/>
<path d="M0 0 C4.6182662 2.93055119 6.05069757 5.74398942 7.75 10.875 C8.15734375 12.06867188 8.5646875 13.26234375 8.984375 14.4921875 C10 18 10 18 10.43334961 20.81274414 C11.0343738 24.19334336 11.97715775 27.25360174 13.08203125 30.50390625 C13.29232468 31.12771683 13.5026181 31.7515274 13.71928406 32.39424133 C14.17489985 33.74480969 14.63247059 35.09471982 15.09179688 36.44403076 C16.33858663 40.10890421 17.56874427 43.77936505 18.80078125 47.44921875 C19.0596109 48.21909119 19.31844055 48.98896362 19.58511353 49.78216553 C22.34156351 57.99245851 25.0381517 66.22197801 27.71444702 74.45870972 C28.23257671 76.05243002 28.7517792 77.645802 29.27212524 79.23880005 C33.85081789 93.25897434 33.85081789 93.25897434 35.53125 99.66796875 C37.63986001 107.6583319 40.56230663 115.39293027 43.328125 123.17382812 C45.68116786 129.88212652 47.72882469 136.53526544 49.36962891 143.45239258 C50.10688452 146.43196744 51.07376992 149.26599941 52.1875 152.125 C54 156.80898876 54 156.80898876 54 159 C56.75452742 160.47365075 59.34368734 161.4600114 62.37109375 162.21875 C63.60375977 162.53392578 63.60375977 162.53392578 64.86132812 162.85546875 C65.71146484 163.06816406 66.56160156 163.28085937 67.4375 163.5 C77.62970817 166.06163648 77.62970817 166.06163648 82 168 C82 168.66 82 169.32 82 170 C82.66 170.185625 83.32 170.37125 84 170.5625 C91.93032644 174.36244809 97.8085368 181.38739657 102 189 C105.24162903 198.2510277 105.4661103 209.29163244 102.16796875 218.59765625 C96.92436566 229.3829937 88.31150134 238.66837244 77 243 C67.50121576 246.24834967 54.84467336 246.93842929 45.3125 243.375 C32.91260655 237.26146368 24.73280201 227.6115525 19.98828125 214.7734375 C17.21355366 204.17902307 17.96189751 193.7524715 23 184 C23.33 183.01 23.66 182.02 24 181 C25.6459651 179.31288577 27.31237149 177.6454378 29 176 C31.23691633 171.52616733 30.26380493 166.29388511 28.79296875 161.703125 C28.27007538 160.21438598 27.73472591 158.72996796 27.1875 157.25 C25.39473838 152.29223948 23.80736183 147.38887129 22.578125 142.2578125 C20.95627674 135.57383179 18.79020197 129.12792414 16.5625 122.625 C15.6634324 119.97157027 14.770057 117.31625453 13.87890625 114.66015625 C13.64611969 113.96637375 13.41333313 113.27259125 13.17349243 112.55778503 C10.3454945 104.0922942 7.67363909 95.57772337 5 87.0625 C3.99117968 83.85277203 2.98201563 80.64315224 1.97265625 77.43359375 C1.72519653 76.64657074 1.47773682 75.85954773 1.22277832 75.04867554 C-1.13135099 67.56865992 -3.51348282 60.09779577 -5.91625977 52.63327026 C-6.34049061 51.31492121 -6.76401636 49.99634502 -7.18676758 48.67752075 C-9.78210508 40.5506973 -9.78210508 40.5506973 -12.67578125 32.52734375 C-19.51811108 14.30131473 -19.51811108 14.30131473 -16.875 6.8125 C-12.3898145 0.08472175 -7.81187886 -1.75093836 0 0 Z M48.2578125 193.80078125 C46.67400172 196.56999078 46.38902417 198.76520957 46.125 201.9375 C46.02445312 202.95714844 45.92390625 203.97679687 45.8203125 205.02734375 C46.1010583 209.67185585 48.33516775 212.20589481 51.25 215.6875 C55.02372288 218.86085788 58.24193333 220.19253519 63.23828125 219.84375 C68.79775552 218.87200996 72.06966188 217.02620002 76 213 C78.55545549 208.73212588 78.64609846 204.85770323 78 200 C76.26331281 194.65851345 73.74545737 191.12201143 69 188 C62.02140528 184.51070264 53.30051166 188.58848459 48.2578125 193.80078125 Z " fill="#EF5350" transform="translate(176,276)"/>
<path d="M0 0 C0.6290625 0.41636719 1.258125 0.83273438 1.90625 1.26171875 C2.6590625 1.70902344 3.411875 2.15632812 4.1875 2.6171875 C12.74449849 7.93678823 18.65910098 14.09845586 22.90625 23.26171875 C23.22722656 23.94878906 23.54820312 24.63585937 23.87890625 25.34375 C27.90304685 35.4321769 26.86728811 47.31411168 22.90625 57.26171875 C18.29430809 67.18035022 10.78017125 74.58459816 0.90625 79.26171875 C0.09929687 79.42027344 -0.70765625 79.57882812 -1.5390625 79.7421875 C-5.5817108 80.54468336 -8.23123396 81.17353333 -10.85546875 84.484375 C-15.41966687 93.19348795 -18.1734725 102.89845139 -21.09375 112.26171875 C-21.40844238 113.2674292 -21.40844238 113.2674292 -21.72949219 114.29345703 C-22.5368486 116.87738758 -23.34173535 119.46206297 -24.14233398 122.0480957 C-26.62815392 130.0474236 -29.31087166 137.98060959 -31.97509766 145.921875 C-34.0443993 152.09997333 -36.10193538 158.28199843 -38.16131592 164.46340942 C-39.35325499 168.04083802 -40.54578588 171.61806931 -41.73828125 175.1953125 C-42.14409424 176.41275146 -42.54990723 177.63019043 -42.96801758 178.88452148 C-43.69440991 181.06369849 -44.42369103 183.24191571 -45.15649414 185.41894531 C-45.96575852 187.87351015 -46.72155185 190.33176847 -47.4453125 192.8125 C-49.31076973 199.07243145 -51.38961668 205.25760507 -53.46875 211.44921875 C-54.26826783 213.83722664 -55.06774724 216.22524739 -55.8671875 218.61328125 C-56.2497168 219.75442383 -56.63224609 220.89556641 -57.02636719 222.07128906 C-57.94183252 224.8076342 -58.85220074 227.54553828 -59.7578125 230.28515625 C-59.98936035 230.98487549 -60.2209082 231.68459473 -60.45947266 232.40551758 C-61.04659479 234.18157334 -61.63271614 235.95795985 -62.21875 237.734375 C-63.09375 240.26171875 -63.09375 240.26171875 -64.09375 242.26171875 C-64.75375 242.26171875 -65.41375 242.26171875 -66.09375 242.26171875 C-66.09375 242.92171875 -66.09375 243.58171875 -66.09375 244.26171875 C-71.04551918 245.68316778 -75.98979793 245.92712287 -81.09375 245.26171875 C-84.41461709 243.00352913 -85.68774883 241.55172248 -86.88671875 237.7421875 C-87.18681827 232.69711826 -85.76297633 228.49195347 -84.28125 223.69921875 C-83.96502686 222.64766602 -83.64880371 221.59611328 -83.32299805 220.51269531 C-80.1055323 209.98168541 -76.48462338 199.5923679 -72.8515625 189.19921875 C-70.02275205 181.10437784 -67.28003485 172.98134767 -64.56259155 164.84851074 C-64.05232998 163.32244938 -63.54084818 161.79679532 -63.02798462 160.27160645 C-60.12559583 151.63799599 -57.38927328 142.98015137 -54.8563385 134.23083496 C-53.16539503 128.4208026 -51.25696414 122.70945374 -49.21875 117.01171875 C-48.53307611 115.05886676 -47.84819943 113.10573471 -47.1640625 111.15234375 C-46.12700926 108.20080602 -45.08943097 105.24946063 -44.04980469 102.29882812 C-43.0534806 99.45679233 -42.07199991 96.61001848 -41.09375 93.76171875 C-40.79098145 92.90803711 -40.48821289 92.05435547 -40.17626953 91.17480469 C-38.29857531 85.66176229 -36.63785891 80.44196311 -39.1953125 74.85546875 C-39.69804688 74.16453125 -40.20078125 73.47359375 -40.71875 72.76171875 C-41.26660156 71.99988281 -41.81445312 71.23804688 -42.37890625 70.453125 C-44.38311711 67.89193526 -46.49406663 65.45004084 -48.64453125 63.01171875 C-57.50931926 52.30706907 -58.11225525 41.30581979 -57.37939453 27.86621094 C-56.56957085 20.48228015 -53.00882917 14.64368916 -47.46875 9.76171875 C-46.34552218 8.92599827 -45.22077784 8.09230751 -44.09375 7.26171875 C-43.495625 6.58109375 -42.8975 5.90046875 -42.28125 5.19921875 C-32.04185328 -3.8699612 -12.12246341 -6.85496443 0 0 Z M-29.578125 27.95703125 C-32.84319735 32.48777772 -33.81970891 36.3557235 -33.51953125 41.921875 C-32.87535213 45.46190523 -31.51383853 47.63995618 -29.09375 50.26171875 C-26.97255872 51.21403472 -26.97255872 51.21403472 -25.09375 51.26171875 C-25.09375 51.92171875 -25.09375 52.58171875 -25.09375 53.26171875 C-19.85351858 55.11763404 -15.50639773 55.94492018 -10.09375 54.26171875 C-5.08252569 51.04697108 -2.80022217 47.94995931 -1.09375 42.26171875 C-0.42698729 37.54498994 -0.60221653 34.26369081 -2.71875 29.94921875 C-7.39639355 24.65609579 -11.63125049 22.58232056 -18.46875 21.94921875 C-23.54982239 22.38724223 -26.23022041 24.1333718 -29.578125 27.95703125 Z " fill="#EF5350" transform="translate(591.09375,192.73828125)"/>
<path d="M0 0 C1.15048828 0.67095703 1.15048828 0.67095703 2.32421875 1.35546875 C12.03901596 7.34492223 18.78519115 16.20611568 21.92578125 27.2578125 C24.0961532 38.94852769 22.33957903 51.41375774 16.5234375 61.8828125 C13.87629801 65.56165764 10.60670261 68.29676564 7 71 C6.30003906 71.55816406 5.60007812 72.11632812 4.87890625 72.69140625 C3 74 3 74 1 74 C1 74.66 1 75.32 1 76 C-11.77303383 81.00903287 -23.43159517 83.6689529 -36.671875 78.1328125 C-39.69657745 76.66106131 -42.33563086 75.0588307 -45 73 C-45.57363281 72.55785156 -46.14726562 72.11570312 -46.73828125 71.66015625 C-51.00295688 68.21736671 -54.06137404 64.63056212 -57 60 C-57 59.34 -57 58.68 -57 58 C-61.35961657 57.16505696 -65.47780892 56.87335622 -69.91395569 56.86869812 C-70.92090765 56.86552455 -70.92090765 56.86552455 -71.94820207 56.86228687 C-74.18431612 56.85632362 -76.42037314 56.85728436 -78.65649414 56.8581543 C-80.26501053 56.85512048 -81.87352606 56.8515984 -83.48204041 56.84762573 C-86.93925636 56.83975547 -90.39646208 56.83459899 -93.85368538 56.83133507 C-99.32057461 56.82541279 -104.78739917 56.80886249 -110.2542572 56.78999329 C-112.12736984 56.7836566 -114.00048252 56.77733097 -115.87359524 56.77101612 C-116.81138754 56.76785031 -117.74917984 56.7646845 -118.71539009 56.76142275 C-131.43825989 56.71936552 -144.16109845 56.68635066 -156.8840332 56.67407227 C-165.47349444 56.66569791 -174.06279436 56.64323515 -182.65217489 56.6047166 C-187.19571838 56.58494387 -191.73902067 56.5725556 -196.28260994 56.57755089 C-200.55338515 56.58218962 -204.8237023 56.56843476 -209.09438515 56.54053879 C-210.66129299 56.53361539 -212.22824809 56.53351281 -213.79515457 56.54073906 C-215.93499214 56.54961107 -218.07331356 56.53396392 -220.21302795 56.51225281 C-222.00851373 56.50867028 -222.00851373 56.50867028 -223.84027195 56.50501537 C-227.64729762 55.89654323 -229.26872739 54.66984187 -232 52 C-235.17513776 47.18254961 -235.71204395 43.60734613 -235 38 C-232.46546343 34.78045355 -230.88702695 33.29567565 -227 32 C-224.84477116 31.90676023 -222.68670949 31.87535156 -220.52946472 31.87542725 C-219.86959936 31.8740171 -219.209734 31.87260695 -218.52987272 31.87115407 C-216.31440879 31.8674984 -214.09900877 31.87083875 -211.88354492 31.87402344 C-210.2967982 31.87262877 -208.71005185 31.87072951 -207.12330627 31.86836243 C-203.70368844 31.86386367 -200.28408261 31.8620093 -196.8644619 31.86190033 C-191.45634795 31.86076064 -186.04830237 31.84792707 -180.64021301 31.83233643 C-179.72770458 31.82976357 -178.81519615 31.82719072 -177.87503594 31.8245399 C-176.00897402 31.81927328 -174.14291216 31.8139878 -172.27685034 31.80868387 C-159.68512598 31.77356548 -147.09348638 31.74702263 -134.50170898 31.74951172 C-126.00965639 31.75110016 -117.51783664 31.73506838 -109.0258587 31.69880509 C-104.53192748 31.68034082 -100.03838505 31.67100618 -95.54442406 31.68328094 C-91.31628644 31.6947176 -87.08884483 31.68301463 -82.86079979 31.65364647 C-81.3104376 31.64700604 -79.76001171 31.64887256 -78.20967484 31.65994453 C-69.15772835 32.09812333 -69.15772835 32.09812333 -61.15229797 28.64337158 C-58.8915063 25.86675211 -57.1127234 23.16475939 -55.4375 20 C-53.01974398 15.65866667 -50.78564652 12.28753513 -47 9 C-46.236875 8.175 -45.47375 7.35 -44.6875 6.5 C-32.94448916 -4.42373101 -14.21092615 -9.05350916 0 0 Z M-31.9375 26.5625 C-35.68271523 31.64890717 -35.31924718 37.83621352 -34.4375 43.8125 C-32.28783001 48.57915954 -29.0668102 50.80342567 -24.625 53.375 C-19.68583149 54.5509925 -15.42470172 53.49316598 -10.75 51.875 C-6.09634701 48.70205478 -4.4906032 44.7988784 -3.0625 39.5625 C-2.95939412 33.68546502 -4.64869971 29.67999495 -8.3125 25.125 C-16.13050098 18.9433248 -24.77801121 20.3169885 -31.9375 26.5625 Z " fill="#EF5350" transform="translate(517,442)"/>
<path d="M0 0 C8.25 0 16.5 0 25 0 C25 0.66 25 1.32 25 2 C25.969375 1.938125 26.93875 1.87625 27.9375 1.8125 C36.86145571 1.88432258 43.63729785 6.00875504 50 12 C58.91872072 21.71538205 59.44682871 31.38523463 59.36328125 44.0234375 C59.36276195 45.57662963 59.36328234 47.12982243 59.36479187 48.68301392 C59.36470256 51.92240329 59.35435146 55.16154163 59.33618164 58.40087891 C59.31338159 62.55723648 59.31297521 66.71323156 59.31969929 70.86963463 C59.32303418 74.06946044 59.31642018 77.26920315 59.30657005 80.46901321 C59.30271799 82.00245352 59.30156986 83.53590306 59.3031559 85.06934738 C59.30352551 87.20445292 59.29094014 89.33908632 59.2746582 91.47412109 C59.26774712 93.29657852 59.26774712 93.29657852 59.26069641 95.15585327 C59 98 59 98 57 100 C54.05078125 100.25878906 54.05078125 100.25878906 50.3125 100.265625 C49.65419189 100.26753845 48.99588379 100.2694519 48.31762695 100.27142334 C46.9256146 100.2727845 45.53358953 100.26909283 44.14160156 100.26074219 C42.00817411 100.250041 39.87558869 100.26063906 37.7421875 100.2734375 C36.39062314 100.27211589 35.0390593 100.26955347 33.6875 100.265625 C32.45386719 100.26336914 31.22023438 100.26111328 29.94921875 100.25878906 C27 100 27 100 25 98 C25.375 94.375 25.375 94.375 26 91 C25.34 91 24.68 91 24 91 C23.505 92.485 23.505 92.485 23 94 C20.70703125 95.53515625 20.70703125 95.53515625 17.8125 97.0625 C16.87019531 97.56910156 15.92789062 98.07570313 14.95703125 98.59765625 C5.44701146 103.10769205 -5.21873987 103.57846281 -15.45703125 101.1953125 C-23.92783528 97.97574085 -32.82223314 92.21064031 -37.6875 84.375 C-40.18644542 78.45962195 -39.29534561 71.30070633 -39 65 C-38.34 65 -37.68 65 -37 65 C-36.896875 64.113125 -36.79375 63.22625 -36.6875 62.3125 C-35.98284093 58.9173245 -35.0445434 56.78057902 -33 54 C-32.34 54 -31.68 54 -31 54 C-31 53.34 -31 52.68 -31 52 C-19.75546266 45.44068655 -9.60274885 40.88790956 3.4375 39.375 C5.41580491 39.13643597 7.39370027 38.89444183 9.37109375 38.6484375 C10.23661865 38.54708496 11.10214355 38.44573242 11.99389648 38.34130859 C13.99254438 38.20028574 13.99254438 38.20028574 15 37 C16.51469448 36.76807135 18.03754562 36.58784762 19.5625 36.4375 C20.38878906 36.35371094 21.21507812 36.26992188 22.06640625 36.18359375 C22.70449219 36.12300781 23.34257813 36.06242187 24 36 C22.79319695 29.32602183 22.79319695 29.32602183 18.6875 24.4375 C17.800625 24.293125 16.91375 24.14875 16 24 C15.071875 23.71125 14.14375 23.4225 13.1875 23.125 C6.72772975 22.87167568 1.74487233 26.95290301 -3 31 C-7.22763409 33.11381704 -12.792588 32.2293903 -17.4375 32.25 C-18.59572266 32.270625 -19.75394531 32.29125 -20.94726562 32.3125 C-22.61112305 32.32023437 -22.61112305 32.32023437 -24.30859375 32.328125 C-25.83697876 32.34214355 -25.83697876 32.34214355 -27.39624023 32.35644531 C-30 32 -30 32 -31.82446289 30.61621094 C-33 29 -33 29 -33.5 26.8125 C-32.00291388 18.39139056 -24.67817179 11.7450168 -18 7 C-17.01 7 -16.02 7 -15 7 C-15 6.34 -15 5.68 -15 5 C-13.44033782 4.491217 -11.87710759 3.99336531 -10.3125 3.5 C-9.44238281 3.2215625 -8.57226562 2.943125 -7.67578125 2.65625 C-5.00608323 2.00149195 -2.73603316 1.88168505 0 2 C0 1.34 0 0.68 0 0 Z M12 58 C11.21625 58.103125 10.4325 58.20625 9.625 58.3125 C4.36170037 59.69098324 -1.51669654 61.62943999 -5 66 C-5.25265405 69.09501208 -5.39935013 71.20129973 -4 74 C-3.34 74 -2.68 74 -2 74 C-1.67 74.99 -1.34 75.98 -1 77 C4.53158332 79.34028525 10.62244753 78.09855706 16 76 C16 75.34 16 74.68 16 74 C16.598125 73.95875 17.19625 73.9175 17.8125 73.875 C20.2352551 73.13934246 20.2352551 73.13934246 21.6875 70.5625 C23.3495584 66.05119864 23.72640753 61.77371683 24 57 C19.89428176 56.95078762 16.0592529 57.34762007 12 58 Z " fill="#EF5350" transform="translate(1052,245)"/>
<path d="M0 0 C1.03382813 -0.01224609 2.06765625 -0.02449219 3.1328125 -0.03710938 C8.81876994 -0.04798812 13.51081856 0.30022809 18.875 2.1875 C20.29619141 2.60902344 20.29619141 2.60902344 21.74609375 3.0390625 C22.59300781 3.29429687 23.43992187 3.54953125 24.3125 3.8125 C25.17746094 4.07289063 26.04242187 4.33328125 26.93359375 4.6015625 C27.57425781 4.79492188 28.21492187 4.98828125 28.875 5.1875 C28.875 5.8475 28.875 6.5075 28.875 7.1875 C29.555625 7.22875 30.23625 7.27 30.9375 7.3125 C37.78967809 9.35357432 42.22557638 15.32630449 45.875 21.1875 C45.875 22.1775 45.875 23.1675 45.875 24.1875 C46.535 24.1875 47.195 24.1875 47.875 24.1875 C50.04962597 30.49254762 51.27148091 36.37061646 51.6640625 43.03515625 C51.64311816 45.16720704 51.64311816 45.16720704 52.875 46.1875 C52.97351171 48.01865883 53.00472629 49.85369933 53 51.6875 C53.00386719 53.18796875 53.00386719 53.18796875 53.0078125 54.71875 C52.875 57.1875 52.875 57.1875 51.875 58.1875 C51.42612921 61.24661104 51.05756669 64.30484038 50.71289062 67.37695312 C50.20818194 71.53361899 49.33339597 75.26386564 47.875 79.1875 C47.215 79.1875 46.555 79.1875 45.875 79.1875 C45.77703125 79.765 45.6790625 80.3425 45.578125 80.9375 C43.59438591 87.28546509 36.60518629 93.14044655 30.953125 96.2421875 C25.76820775 98.7611012 20.75162883 99.94750099 15.0625 100.79296875 C12.90499896 100.96737687 12.90499896 100.96737687 11.875 102.1875 C8.17376901 102.4418581 4.45892296 102.37273846 0.75 102.375 C-0.28382813 102.38724609 -1.31765625 102.39949219 -2.3828125 102.41210938 C-8.06146569 102.42297415 -12.76765355 102.07914037 -18.125 100.1875 C-18.89585937 99.96449219 -19.66671875 99.74148438 -20.4609375 99.51171875 C-31.7083272 95.99960281 -39.41570153 90.76515079 -45.21875 80.1953125 C-45.94416145 78.56313675 -46.54074176 76.87535715 -47.125 75.1875 C-47.5375 74.094375 -47.95 73.00125 -48.375 71.875 C-49.125 69.1875 -49.125 69.1875 -48.125 67.1875 C-48.785 67.1875 -49.445 67.1875 -50.125 67.1875 C-50.14973064 62.96997482 -50.16787453 58.75248814 -50.17993164 54.53491211 C-50.18495842 53.10033432 -50.19178079 51.66576164 -50.20043945 50.23120117 C-50.21257752 48.16844418 -50.21824486 46.10575496 -50.22265625 44.04296875 C-50.22789307 42.80184326 -50.23312988 41.56071777 -50.23852539 40.28198242 C-50.125 37.1875 -50.125 37.1875 -49.125 34.1875 C-48.78909701 32.85481171 -48.45599056 31.52141684 -48.125 30.1875 C-46.37489592 23.33602872 -43.23548728 18.73776468 -38.3125 13.8125 C-37.81516357 13.31298828 -37.31782715 12.81347656 -36.80541992 12.29882812 C-31.32256168 7.05227709 -25.7866158 4.0055826 -18.25 2.5 C-6.00539152 0.00366182 -6.00539152 0.00366182 0 0 Z M-10.125 29.1875 C-10.125 30.1775 -10.125 31.1675 -10.125 32.1875 C-10.785 32.1875 -11.445 32.1875 -12.125 32.1875 C-14.0480397 38.65105011 -14.42969968 44.52649773 -14.375 51.25 C-14.38273438 52.20455078 -14.39046875 53.15910156 -14.3984375 54.14257812 C-14.37798885 61.55010155 -13.68519555 68.04877522 -9.125 74.1875 C-4.28350187 77.28431412 1.35115843 76.91859668 6.875 76.1875 C10.7715881 74.32100455 13.4269919 71.2682501 14.875 67.1875 C16.39170082 62.05119232 16.13951256 56.81380881 16.1875 51.5 C16.21650391 50.44876953 16.24550781 49.39753906 16.27539062 48.31445312 C16.34100921 40.20298665 14.91164141 34.07819681 9.875 27.625 C3.47259376 24.55718034 -4.4484572 24.75270094 -10.125 29.1875 Z " fill="#EF5350" transform="translate(820.125,244.8125)"/>
<path d="M0 0 C0.70128525 -0.0004985 1.4025705 -0.00099701 2.12510681 -0.00151062 C3.60532469 0.00082705 5.08554676 0.01053762 6.56567383 0.02709961 C8.8351581 0.05073246 11.10347051 0.04765397 13.37304688 0.04101562 C24.49820941 0.08414691 24.49820941 0.08414691 26.77734375 2.36328125 C27.03905678 4.17111397 27.03905678 4.17111397 27.05581665 6.400177 C27.06698013 7.24434174 27.07814362 8.08850647 27.08964539 8.95825195 C27.09180557 9.88613525 27.09396576 10.81401855 27.09619141 11.77001953 C27.10623703 12.74566864 27.11628265 13.72131775 27.12663269 14.72653198 C27.1576064 17.96221305 27.17453918 21.19781087 27.19140625 24.43359375 C27.21010649 26.67276737 27.22967902 28.91193386 27.25009155 31.15109253 C27.30153964 37.0529562 27.3410974 42.95484276 27.37823486 48.85681152 C27.41819522 54.87595335 27.4693238 60.89499897 27.51953125 66.9140625 C27.61644056 78.73040129 27.70079716 90.54679424 27.77734375 102.36328125 C28.83517059 102.34995758 28.83517059 102.34995758 29.91436768 102.33636475 C36.56474083 102.25617202 43.2149788 102.19529344 49.86572647 102.15603256 C53.28488055 102.13516924 56.70363469 102.1068762 60.12255859 102.06152344 C64.05431306 102.00969507 67.98590632 101.99032547 71.91796875 101.97265625 C73.14412903 101.95201111 74.37028931 101.93136597 75.63360596 101.91009521 C76.77448669 101.90979309 77.91536743 101.90949097 79.09082031 101.90917969 C80.59639496 101.89585602 80.59639496 101.89585602 82.13238525 101.88226318 C85.50936198 102.49640772 86.68383597 103.69670109 88.77734375 106.36328125 C89.27905273 108.97290039 89.27905273 108.97290039 89.2734375 111.8984375 C89.27408203 112.95482422 89.27472656 114.01121094 89.27539062 115.09960938 C89.25541016 116.19724609 89.23542969 117.29488281 89.21484375 118.42578125 C89.22193359 119.52728516 89.22902344 120.62878906 89.23632812 121.76367188 C89.17201952 129.86160917 89.17201952 129.86160917 87.49404144 131.99448586 C84.48197101 134.39613651 80.64248146 133.7777374 76.94726562 133.75146484 C76.04456436 133.7567218 75.1418631 133.76197876 74.21180725 133.76739502 C71.22306091 133.7806164 68.23484566 133.77184932 65.24609375 133.76171875 C63.17248431 133.76373887 61.09887556 133.76664979 59.02526855 133.77041626 C54.67742149 133.77484251 50.3297592 133.76839879 45.98193359 133.75439453 C40.40293419 133.73730257 34.82436773 133.74714213 29.24538422 133.76511192 C24.96291835 133.77594157 20.68055548 133.77250717 16.39808655 133.76472855 C14.3407435 133.76272427 12.28339116 133.76519374 10.22605896 133.77216721 C7.35292718 133.77976814 4.48050097 133.76819647 1.60742188 133.75146484 C0.75330215 133.75753754 -0.10081757 133.76361023 -0.9808197 133.76986694 C-6.73001235 133.70769791 -6.73001235 133.70769791 -8.94079781 132.16209602 C-10.6669379 129.73982677 -10.60000242 128.16483666 -10.60360718 125.20129395 C-10.61206665 124.13290787 -10.62052612 123.06452179 -10.62924194 121.96376038 C-10.62316925 120.79171555 -10.61709656 119.61967072 -10.61083984 118.41210938 C-10.6160968 117.17778671 -10.62135376 115.94346405 -10.62677002 114.67173767 C-10.63772314 111.28526514 -10.63513962 107.89934136 -10.62563276 104.5128994 C-10.61804329 100.9708723 -10.62507979 97.42886883 -10.62979126 93.88684082 C-10.63525091 87.9383523 -10.62805179 81.98997547 -10.61376953 76.04150391 C-10.59744252 69.16191103 -10.60273089 62.28258486 -10.61924875 55.40299845 C-10.63285773 49.49888273 -10.63478619 43.59484736 -10.62693274 37.69072104 C-10.62225295 34.16332216 -10.62163966 30.63604869 -10.63154221 27.10865784 C-10.64180806 23.1771506 -10.62758399 19.24594269 -10.61083984 15.31445312 C-10.61691254 14.14240829 -10.62298523 12.97036346 -10.62924194 11.76280212 C-10.62078247 10.69441605 -10.612323 9.62602997 -10.60360718 8.52526855 C-10.6024761 7.59538872 -10.60134502 6.66550888 -10.60017967 5.70745087 C-10.22265625 3.36328125 -10.22265625 3.36328125 -8.90174294 1.5639267 C-6.11485923 -0.42885858 -3.36084061 -0.00763499 0 0 Z " fill="#EF5350" transform="translate(674.22265625,211.63671875)"/>
<path d="M0 0 C2.28144162 1.42420014 3.73502361 2.98293538 5.46484375 5.0390625 C6.06683594 5.74804688 6.66882813 6.45703125 7.2890625 7.1875 C8.63881617 8.82985762 9.96238822 10.49371359 11.27734375 12.1640625 C12.80358133 14.31637125 12.80358133 14.31637125 14.96484375 15.2265625 C14.96484375 16.2165625 14.96484375 17.2065625 14.96484375 18.2265625 C15.62484375 18.2265625 16.28484375 18.2265625 16.96484375 18.2265625 C35.36298726 49.45129844 43.25075128 84.40420061 34.96484375 120.2265625 C34.68278076 121.47518066 34.68278076 121.47518066 34.39501953 122.74902344 C31.42057162 135.47502254 26.88058783 146.33729973 20.01464844 157.45336914 C18.90766962 159.25770376 18.90766962 159.25770376 17.95410156 161.38842773 C16.96484375 163.2265625 16.96484375 163.2265625 14.96484375 164.2265625 C14.63484375 165.2165625 14.30484375 166.2065625 13.96484375 167.2265625 C12.3356077 168.95454013 10.6816115 170.58915871 8.96484375 172.2265625 C7.54391446 173.61805634 6.12745832 175.01412849 4.71484375 176.4140625 C4.0290625 177.08824219 3.34328125 177.76242187 2.63671875 178.45703125 C0.89035264 180.13455245 0.89035264 180.13455245 -0.03515625 182.2265625 C-3.79086871 183.72884748 -8.08172603 183.97470699 -12.03515625 183.2265625 C-15.06775155 181.73025371 -17.13974653 180.03521508 -19.03515625 177.2265625 C-20.45138231 171.4692957 -18.90388128 167.27943046 -16.03515625 162.2265625 C-14.70651462 160.54308284 -13.32832617 158.89784665 -11.91015625 157.2890625 C-8.24486736 152.91224118 -5.14211169 148.44303647 -2.22265625 143.5390625 C-1.86220215 142.93392822 -1.50174805 142.32879395 -1.13037109 141.70532227 C-0.07233998 139.89243137 0.95388892 138.06609717 1.96484375 136.2265625 C2.47857544 135.29662476 2.47857544 135.29662476 3.00268555 134.34790039 C5.77164176 129.10093618 7.51862613 123.72949193 9.15234375 118.0390625 C9.41208984 117.16314453 9.67183594 116.28722656 9.93945312 115.38476562 C15.0563342 97.94505985 14.59176825 79.48378518 8.96484375 62.2265625 C8.60132813 60.77443359 8.60132813 60.77443359 8.23046875 59.29296875 C4.25397279 44.66514431 -5.76715965 31.2321468 -15.171875 19.5625 C-18.15942157 15.81710618 -18.42847822 13.24848653 -18.390625 8.5546875 C-17.78663207 4.59886569 -15.9305782 2.91997827 -13.03515625 0.2265625 C-8.75860489 -1.19895462 -4.25673684 -1.61772341 0 0 Z " fill="#EF5350" transform="translate(453.03515625,204.7734375)"/>
<path d="M0 0 C2.35388126 4.60076793 2.56773788 9.10081913 1 14 C-0.22332389 16.04906751 -1.61125441 17.82368612 -3.12109375 19.671875 C-5.40463739 22.50138022 -7.49304561 25.45043708 -9.5625 28.4375 C-9.94849365 28.99356934 -10.3344873 29.54963867 -10.73217773 30.12255859 C-13.79761518 34.59268805 -16.52253857 39.18202225 -19 44 C-19.66 44 -20.32 44 -21 44 C-23.08473785 50.9044133 -25.12906512 57.81939194 -27.125 64.75 C-27.38925781 65.65621094 -27.65351563 66.56242187 -27.92578125 67.49609375 C-34.46128029 90.22105233 -30.75649347 114.92364353 -19.83984375 135.8125 C-15.51742395 143.30102348 -10.83933943 150.75590723 -5.19140625 157.3203125 C-3 160 -3 160 -3 162 C-2.34 162 -1.68 162 -1 162 C1.3615963 165.68999422 1.58419761 168.69154264 1 173 C-1.37021386 177.32215468 -4.30053117 180.15288494 -9.0625 181.5625 C-14.71428571 182.19047619 -14.71428571 182.19047619 -18 180 C-21.3754796 176.57081959 -24.33902579 172.83961589 -27.3125 169.0625 C-28.83873758 166.91019125 -28.83873758 166.91019125 -31 166 C-31.33 165.01 -31.66 164.02 -32 163 C-32.66 162.67 -33.32 162.34 -34 162 C-36.22031685 158.45986632 -38.0631124 154.70091795 -40 151 C-40.57363281 149.97519531 -41.14726562 148.95039063 -41.73828125 147.89453125 C-51.46531867 129.84235758 -55.40183725 109.61759728 -55.3125 89.25 C-55.31067719 88.58980865 -55.30885437 87.92961731 -55.30697632 87.24942017 C-55.25995374 77.12241008 -54.6580363 67.80686781 -52 58 C-51.83371094 57.32791504 -51.66742188 56.65583008 -51.49609375 55.96337891 C-48.74232844 44.83357746 -44.41454591 35.0760755 -39 25 C-38.327399 23.66965038 -37.65721306 22.33801839 -37 21 C-36.34 21 -35.68 21 -35 21 C-34.773125 20.113125 -34.54625 19.22625 -34.3125 18.3125 C-32.77293279 14.4269256 -31.04946608 12.85058786 -28 10 C-25.96348057 7.74889701 -23.96405238 5.46783807 -21.96484375 3.18359375 C-15.55090467 -3.94442205 -8.54951316 -7.08388233 0 0 Z " fill="#EF5350" transform="translate(296,206)"/>
<path d="M0 0 C8.36199321 6.07948278 15.22195354 15.82467185 17.01953125 26.1953125 C18.03662393 39.28412809 15.44998793 49.98509274 7.01953125 60.1953125 C-0.78607415 68.33965172 -9.52925874 74.27587228 -20.98046875 75.1953125 C-33.17619784 75.17953536 -42.32082036 71.6313647 -51.98046875 64.1953125 C-60.89811593 55.17727905 -65.29296875 44.64410258 -65.29296875 32.11425781 C-65.0590873 21.05272822 -60.33289142 12.30312106 -52.98046875 4.1953125 C-36.63355732 -9.62892742 -17.91882642 -11.95294241 0 0 Z M-34.98046875 20.1953125 C-35.31046875 21.1853125 -35.64046875 22.1753125 -35.98046875 23.1953125 C-36.97046875 23.5253125 -37.96046875 23.8553125 -38.98046875 24.1953125 C-41.73396763 29.51241378 -42.54528038 33.21916353 -40.90234375 39.01953125 C-38.70613904 44.2029466 -35.43477599 47.3172402 -30.66796875 50.1953125 C-25.98914458 51.46414617 -22.57457731 51.93201913 -17.98046875 50.1953125 C-13.45658454 46.95756793 -8.7771617 43.58539134 -6.98046875 38.1953125 C-6.47553571 32.13611604 -7.11502281 28.09001919 -10.98046875 23.1953125 C-14.28614122 19.39293277 -17.37461047 16.93985703 -22.41796875 16.0703125 C-27.18470348 15.82502598 -31.2244482 17.2441535 -34.98046875 20.1953125 Z " fill="#EF5350" transform="translate(390.98046875,260.8046875)"/>
<path d="M0 0 C3.04101562 -0.38818359 3.04101562 -0.38818359 6.90625 -0.3984375 C7.58675415 -0.40130768 8.2672583 -0.40417786 8.96838379 -0.40713501 C10.40747916 -0.40917695 11.84660221 -0.40363786 13.28564453 -0.39111328 C15.4918406 -0.37505937 17.69620484 -0.39095531 19.90234375 -0.41015625 C21.29948322 -0.40817384 22.69662155 -0.4043302 24.09375 -0.3984375 C25.36927734 -0.39505371 26.64480469 -0.39166992 27.95898438 -0.38818359 C28.96251953 -0.26008301 29.96605469 -0.13198242 31 0 C33.5906379 3.88595685 33.28066756 7.12438022 33.25878906 11.63061523 C33.2622937 12.51220306 33.26579834 13.39379089 33.26940918 14.30209351 C33.27822319 17.22100665 33.27237798 20.13967807 33.265625 23.05859375 C33.26697187 25.0849665 33.26891258 27.11133893 33.27142334 29.13771057 C33.27437426 33.38716708 33.27007842 37.63653957 33.26074219 41.88598633 C33.24935497 47.33476937 33.25590274 52.78335522 33.26788712 58.232131 C33.27511276 62.41768378 33.2728144 66.60318979 33.26763153 70.78874397 C33.26629661 72.79781174 33.26793724 74.80688375 33.27259064 76.81594658 C33.27766658 79.62407558 33.26993018 82.43188504 33.25878906 85.23999023 C33.26283752 86.0718132 33.26688599 86.90363617 33.27105713 87.76066589 C33.24013405 91.96543211 32.92571747 94.14856505 31 98 C20.77 98 10.54 98 0 98 C-2.24765278 93.50469443 -2.28254167 90.12035339 -2.25878906 85.23999023 C-2.2622937 84.35665009 -2.26579834 83.47330994 -2.26940918 82.5632019 C-2.27820801 79.64491913 -2.27238434 76.72687897 -2.265625 73.80859375 C-2.26697206 71.78125461 -2.26891293 69.75391579 -2.27142334 67.72657776 C-2.274372 63.47890139 -2.27008477 59.23130916 -2.26074219 54.98364258 C-2.24934057 49.53366886 -2.25591329 44.08389196 -2.26788712 38.63392544 C-2.27510646 34.44841523 -2.27281756 30.26295186 -2.26763153 26.07744026 C-2.26629562 24.06754597 -2.26794071 22.05764746 -2.27259064 20.0477581 C-2.27765784 17.24192879 -2.26994318 14.43642057 -2.25878906 11.63061523 C-2.26283752 10.79676804 -2.26688599 9.96292084 -2.27105713 9.10380554 C-2.24236056 5.21613753 -2.20646841 3.30970261 0 0 Z " fill="#EF5350" transform="translate(1186,247)"/>
<path d="M0 0 C3.56912018 2.47092935 6.70972464 4.7420913 8 9 C8.41575581 13.8415435 7.70272569 16.11012238 4.75 19.9375 C1.83991995 23.85648555 -0.67499402 27.71987536 -3 32 C-3.4846875 32.83273437 -3.969375 33.66546875 -4.46875 34.5234375 C-11.88191561 47.49647731 -14.75435743 61.30692027 -11.12109375 76.10546875 C-8.48801346 84.49135152 -4.75664216 92.59545376 0 100 C0.99 100.495 0.99 100.495 2 101 C3.05226728 102.97300116 4.04788888 104.97676387 5 107 C5.5878125 107.9590625 5.5878125 107.9590625 6.1875 108.9375 C7.50755143 112.28839979 7.53784918 114.41433882 7 118 C4.77994053 121.96141862 2.19658846 125.14892329 -2.1171875 126.8203125 C-6.02748712 127.25169787 -8.28977642 126.47855801 -11.55078125 124.28125 C-18.37278277 118.40128511 -24.94153373 111.11693254 -29 103 C-29 102.01 -29 101.02 -29 100 C-29.66 100 -30.32 100 -31 100 C-31.82136504 97.00235701 -32.63042488 94.00151902 -33.4375 91 C-33.66759766 90.16082031 -33.89769531 89.32164062 -34.13476562 88.45703125 C-38.51635092 72.07371231 -38.17306656 55.38026125 -34 39 C-33.70996094 37.68515625 -33.70996094 37.68515625 -33.4140625 36.34375 C-30.18464981 23.42609925 -21.81642574 11.78386223 -12 3 C-7.78756014 0.59065164 -4.88139106 -0.81356518 0 0 Z " fill="#EF5350" transform="translate(319,232)"/>
<path d="M0 0 C10.41979151 4.77573778 18.92319793 19.38717723 23.0625 29.62890625 C23.81503772 32.07073437 24.42157489 34.51160743 25 37 C25.39638672 38.34771484 25.39638672 38.34771484 25.80078125 39.72265625 C31.18917173 58.69694122 29.99416482 81.74020661 21.34765625 99.625 C15.95083322 109.1359229 8.48816191 121.70647547 -2 126 C-5.82034235 126.49830552 -7.70403054 126.14508307 -11.1875 124.4375 C-14.61402811 121.46784231 -15.81438565 119.37195293 -17 115 C-16.18431465 109.18824191 -13.75226949 106.23332969 -10 102 C-9.67 101.01 -9.34 100.02 -9 99 C-8.34 99 -7.68 99 -7 99 C-6.73058594 98.2884375 -6.46117187 97.576875 -6.18359375 96.84375 C-4.97672886 93.94408783 -3.55396721 91.26281966 -2.0625 88.5 C5.46633267 73.46074257 5.66101804 58.76092666 0.5078125 43.046875 C-1.1167171 38.463765 -3.26279038 34.26865313 -5.765625 30.1015625 C-7 28 -7 28 -8 25 C-8.66 25 -9.32 25 -10 25 C-10.45375 24.071875 -10.9075 23.14375 -11.375 22.1875 C-12.9421633 18.96078611 -12.9421633 18.96078611 -15 16 C-15.73024382 11.46569532 -15.61755802 8.0008699 -13.1875 4.0625 C-8.97385576 0.08963543 -5.66571806 -0.82331658 0 0 Z " fill="#EF5350" transform="translate(421,233)"/>
<path d="M0 0 C0.70744354 0.00141495 1.41488708 0.0028299 2.14376831 0.00428772 C4.40578419 0.00989025 6.66770148 0.02244307 8.9296875 0.03515625 C10.46223815 0.04017093 11.99479036 0.04473389 13.52734375 0.04882812 C17.28649638 0.05986048 21.04557522 0.07712673 24.8046875 0.09765625 C24.8046875 0.75765625 24.8046875 1.41765625 24.8046875 2.09765625 C25.4646875 2.09765625 26.1246875 2.09765625 26.8046875 2.09765625 C26.87887884 6.31514844 26.9333079 10.53229436 26.96948242 14.75024414 C26.98456339 16.18488177 27.0050313 17.61947333 27.03100586 19.05395508 C27.06742187 21.11681484 27.08441993 23.17906483 27.09765625 25.2421875 C27.1133667 26.48331299 27.12907715 27.72443848 27.14526367 29.00317383 C26.8046875 32.09765625 26.8046875 32.09765625 25.72412109 34.00341797 C22.76374801 35.69107914 20.18412552 35.4688771 16.80078125 35.4609375 C15.78214745 35.46168526 15.78214745 35.46168526 14.74293518 35.46244812 C13.3097948 35.46011078 11.87665007 35.45040211 10.44360352 35.43383789 C8.24653581 35.41020303 6.0506785 35.41328392 3.85351562 35.41992188 C-6.91616617 35.37680258 -6.91616617 35.37680258 -9.1953125 33.09765625 C-9.37019504 30.66020728 -9.42708655 28.33829545 -9.390625 25.90234375 C-9.3877951 25.19490021 -9.38496521 24.48745667 -9.38204956 23.75857544 C-9.37084387 21.49643115 -9.34573929 19.2346811 -9.3203125 16.97265625 C-9.31028317 15.44010988 -9.30115724 13.90755731 -9.29296875 12.375 C-9.27090336 8.61573324 -9.23637146 4.85676161 -9.1953125 1.09765625 C-6.23720774 -0.38139613 -3.240597 -0.02425278 0 0 Z " fill="#EF5350" transform="translate(1138.1953125,309.90234375)"/>
<path d="M0 0 C3.07275391 -0.34057617 3.07275391 -0.34057617 6.9765625 -0.29296875 C7.66181 -0.28872391 8.3470575 -0.28447906 9.05307007 -0.28010559 C11.24411129 -0.26329753 13.43423632 -0.22564405 15.625 -0.1875 C17.10936173 -0.17245579 18.59373785 -0.15876693 20.078125 -0.14648438 C23.71904833 -0.1133879 27.35943478 -0.06159207 31 0 C32.45842326 3.29014205 33.25471951 5.90548442 33.265625 9.50390625 C33.26949219 10.73850586 33.26949219 10.73850586 33.2734375 11.99804688 C33.26570313 12.84431641 33.25796875 13.69058594 33.25 14.5625 C33.26160156 15.83770508 33.26160156 15.83770508 33.2734375 17.13867188 C33.27085938 17.96044922 33.26828125 18.78222656 33.265625 19.62890625 C33.26336914 20.37213135 33.26111328 21.11535645 33.25878906 21.88110352 C33 24 33 24 31 28 C20.77 28 10.54 28 0 28 C-1.8691839 24.2616322 -2.25506466 23.05218095 -2.265625 19.12109375 C-2.26820312 18.20005859 -2.27078125 17.27902344 -2.2734375 16.33007812 C-2.26570313 15.37552734 -2.25796875 14.42097656 -2.25 13.4375 C-2.25773437 12.47908203 -2.26546875 11.52066406 -2.2734375 10.53320312 C-2.27085938 9.61345703 -2.26828125 8.69371094 -2.265625 7.74609375 C-2.26336914 6.90747803 -2.26111328 6.0688623 -2.25878906 5.20483398 C-2 3 -2 3 0 0 Z " fill="#EF5350" transform="translate(1186,205)"/>
<path d="M0 0 C0.33 0 0.66 0 1 0 C1 2.97 1 5.94 1 9 C0.67 9 0.34 9 0 9 C0 6.03 0 3.06 0 0 Z " fill="#EF5350" transform="translate(64,260)"/>
</svg>
