<svg xmlns="http://www.w3.org/2000/svg" xmlns:xlink="http://www.w3.org/1999/xlink" width="1024" zoomAndPan="magnify" viewBox="0 0 768 767.999994" height="1024" preserveAspectRatio="xMidYMid meet" version="1.0"><defs><clipPath id="07b4440e94"><path d="M 0 14.398438 L 768 14.398438 L 768 753.898438 L 0 753.898438 Z M 0 14.398438 " clip-rule="nonzero"/></clipPath></defs><g clip-path="url(#07b4440e94)"><path fill="#155dfb" d="M 38.78125 200.722656 L 5.894531 181.714844 C 0.332031 178.5 -1.570312 171.386719 1.636719 165.832031 C 4.851562 160.277344 11.96875 158.324219 17.53125 161.542969 L 50.417969 180.546875 C 60.78125 186.539062 56.296875 202.28125 44.589844 202.28125 C 42.617188 202.28125 40.613281 201.695312 38.78125 200.722656 Z M 74.039062 113.886719 C 70.824219 108.328125 72.734375 101.214844 78.296875 98 C 83.871094 94.785156 90.976562 96.636719 94.195312 102.191406 L 112.789062 134.449219 C 117.285156 142.230469 111.613281 151.898438 102.722656 151.898438 C 98.707031 151.898438 94.789062 149.851562 92.636719 146.050781 Z M 163.742188 107.355469 L 163.742188 68.953125 C 163.742188 62.523438 168.957031 57.257812 175.378906 57.257812 C 181.8125 57.257812 187.015625 62.523438 187.015625 68.953125 L 187.015625 107.355469 C 187.015625 113.789062 181.8125 118.953125 175.378906 118.953125 C 168.957031 118.953125 163.742188 113.789062 163.742188 107.355469 Z M 667.652344 402.464844 L 657.34375 392.136719 L 729.667969 319.722656 L 740.007812 330.050781 Z M 599.714844 320.015625 L 653.445312 363.09375 L 702.71875 313.777344 L 657.632812 268.75 C 655.957031 267.09375 654.835938 264.949219 654.425781 262.609375 C 649.066406 233.078125 640.605469 203.257812 629.300781 173.726562 C 625.207031 163.003906 619.320312 155.011719 610.246094 147.996094 C 557.289062 106.964844 500.507812 70.90625 441.453125 40.496094 C 428.503906 33.941406 412.34375 41.175781 409.632812 56.675781 C 462.390625 71.78125 508.28125 106.769531 536.734375 155.308594 C 548.847656 160.863281 561.175781 167.292969 573.398438 174.507812 C 578.953125 177.722656 580.8125 184.839844 577.558594 190.394531 C 574.25 196.035156 566.996094 197.726562 561.632812 194.582031 C 544.730469 184.679688 528.386719 176.445312 510.902344 169.4375 C 501.691406 165.746094 493.101562 177.375 499.265625 185.226562 C 511.695312 201.015625 529.175781 217.097656 554.261719 236.101562 C 557.664062 238.632812 559.390625 242.824219 558.765625 247.113281 C 555.65625 268.066406 557.722656 283.855469 565.050781 295.355469 C 565.050781 295.355469 565.050781 295.355469 565.0625 295.355469 C 571.242188 305.003906 581.550781 312.511719 596.570312 318.257812 C 597.71875 318.648438 598.769531 319.234375 599.714844 320.015625 Z M 486.542969 289.898438 C 486.796875 263.273438 465.425781 240.972656 438.046875 240.972656 C 410.667969 240.972656 389.332031 263.21875 389.539062 289.898438 L 337.886719 289.898438 L 337.886719 224.597656 C 337.886719 216.574219 329.933594 211.039062 322.417969 213.585938 C 305.542969 219.308594 288.875 206.753906 288.875 189.804688 C 288.875 172.441406 306.054688 160.167969 322.417969 165.925781 C 330.03125 168.605469 337.886719 162.929688 337.886719 154.914062 L 337.886719 71.878906 C 341.96875 71.683594 346.035156 71.488281 350.066406 71.488281 C 409.949219 71.488281 466.015625 99.457031 502.292969 145.847656 C 478.117188 149.601562 464.84375 179.023438 480.988281 199.550781 C 493.757812 215.824219 510.96875 232.101562 534.875 250.519531 C 533.316406 265.53125 534.132812 278.589844 537.417969 289.894531 L 486.542969 289.894531 Z M 764.695312 321.867188 L 737.914062 295.0625 C 733.351562 290.550781 726.113281 290.496094 721.453125 295.0625 L 719.164062 297.304688 L 676.660156 254.8125 C 671.027344 225.085938 662.414062 195.070312 651.039062 165.34375 C 645.414062 150.628906 636.964844 139.320312 624.507812 129.671875 C 570.417969 87.765625 512.410156 50.828125 452.089844 19.835938 C 425.355469 6.066406 392.796875 21.605469 386.9375 51.410156 C 365.550781 47.78125 346.511719 47.242188 324.90625 49.753906 C 319.039062 50.433594 314.613281 55.40625 314.613281 61.253906 L 314.613281 141.269531 C 287.355469 141.269531 265.613281 162.589844 265.613281 189.804688 C 265.613281 217.113281 287.875 238.5 314.613281 238.242188 L 314.613281 301.59375 C 314.613281 308.027344 319.816406 313.191406 326.261719 313.191406 L 403.214844 313.191406 C 411.207031 313.191406 416.828125 305.296875 414.199219 297.695312 C 408.535156 281.324219 420.699219 264.167969 438.046875 264.167969 C 455.347656 264.167969 467.574219 281.257812 461.886719 297.695312 C 459.265625 305.261719 464.859375 313.191406 472.878906 313.191406 L 549.261719 313.191406 C 557.90625 324.203125 570.175781 332.78125 586.558594 339.3125 L 636.886719 379.660156 C 632.96875 383.539062 629.246094 386.253906 629.246094 392.136719 C 629.246094 395.15625 630.464844 398.175781 632.65625 400.324219 L 659.4375 427.125 C 664 431.671875 671.320312 431.664062 675.878906 427.125 L 764.695312 338.335938 C 769.238281 333.757812 769.238281 326.449219 764.695312 321.867188 Z M 213.398438 496.320312 L 201.15625 496.320312 C 190.84375 495.738281 180.066406 492.226562 180.28125 484.429688 C 180.625 472.21875 199.878906 468.367188 206.90625 476.339844 C 210.957031 480.9375 212.414062 487.882812 213.398438 496.320312 Z M 287.695312 496.320312 C 288.382812 488.058594 290.464844 480.5625 294.183594 476.339844 C 301.195312 468.382812 320.445312 472.191406 320.789062 484.429688 C 321.023438 492.226562 310.226562 495.738281 299.941406 496.320312 Z M 375.28125 517.273438 C 405.710938 491.445312 427.414062 456.847656 437.375 418.644531 L 373.34375 418.644531 C 365.367188 418.644531 359.726562 410.753906 362.359375 403.148438 C 368.050781 386.691406 355.800781 369.621094 338.511719 369.621094 C 321.21875 369.621094 308.988281 386.71875 314.671875 403.148438 C 317.289062 410.707031 311.714844 418.644531 303.679688 418.644531 L 226.722656 418.644531 C 220.289062 418.644531 215.085938 413.378906 215.085938 407.046875 L 215.085938 343.699219 C 188.484375 343.953125 166.074219 322.675781 166.074219 295.164062 C 166.074219 267.894531 188.308594 246.46875 215.085938 246.726562 L 215.085938 180.257812 C 124.378906 197.019531 57.53125 276.355469 57.53125 370.015625 C 57.53125 426.832031 82.414062 480.4375 125.792969 517.277344 C 151.269531 538.816406 167.097656 565.230469 174.171875 597.878906 L 181.480469 631.597656 L 212.855469 631.597656 L 213.457031 549.441406 L 214.035156 519.617188 L 200.144531 519.617188 C 167.621094 517.765625 156.589844 499.152344 157.027344 483.75 C 157.964844 450.234375 203.519531 437.308594 224.382812 461.042969 C 232.484375 470.257812 235.503906 481.75 236.753906 496.324219 L 264.332031 496.324219 C 265.695312 481.667969 268.449219 470.425781 276.703125 461.042969 C 297.59375 437.28125 343.109375 450.273438 344.066406 483.75 C 344.507812 499.148438 333.472656 517.765625 300.941406 519.617188 L 287.0625 519.617188 L 287.636719 549.441406 L 288.242188 631.597656 L 319.613281 631.597656 L 326.902344 597.878906 C 333.976562 565.226562 349.804688 538.8125 375.28125 517.273438 Z M 264.808594 729.933594 L 236.28125 729.933594 C 218.601562 729.933594 203.347656 719.117188 197.382812 702.9375 L 303.703125 702.9375 C 297.722656 719.117188 282.488281 729.933594 264.808594 729.933594 Z M 236.4375 585.691406 L 237.011719 533.9375 C 237.132812 529.164062 237.257812 524.386719 237.304688 519.613281 L 263.777344 519.613281 L 264.363281 549.535156 L 264.964844 631.597656 L 236.128906 631.597656 C 236.144531 616.296875 236.292969 600.796875 236.4375 585.691406 Z M 186.519531 654.890625 L 314.574219 654.890625 L 309.183594 679.742188 L 191.90625 679.742188 Z M 451.855469 395.351562 L 387.015625 395.351562 C 387.246094 368.613281 365.839844 346.328125 338.507812 346.328125 C 311.183594 346.328125 289.804688 368.59375 290.011719 395.351562 L 238.359375 395.351562 L 238.359375 330.050781 C 238.359375 322.089844 230.375 316.398438 222.890625 319.039062 C 206.523438 324.8125 189.347656 312.53125 189.347656 295.160156 C 189.347656 278.183594 206.027344 265.660156 222.890625 271.378906 C 230.40625 273.925781 238.359375 268.386719 238.359375 260.367188 L 238.359375 166.707031 C 238.359375 159.894531 232.480469 154.375 225.367188 155.203125 C 116.421875 167.777344 34.253906 260.167969 34.253906 370.007812 C 34.253906 433.648438 62.128906 493.78125 110.742188 535.007812 C 132.46875 553.429688 145.410156 574.96875 151.421875 602.746094 L 172.941406 702.15625 C 179.460938 732.171875 205.511719 753.222656 236.28125 753.222656 L 264.808594 753.222656 C 295.578125 753.222656 321.628906 732.171875 328.128906 702.15625 L 329.933594 693.773438 C 329.953125 693.773438 329.953125 693.773438 329.953125 693.773438 L 349.648438 602.746094 C 355.691406 574.96875 368.613281 553.429688 390.328125 535.007812 C 428.457031 502.652344 454.371094 458.015625 463.296875 409.089844 C 464.617188 401.882812 459.042969 395.351562 451.855469 395.351562 Z M 451.855469 395.351562 " fill-opacity="1" fill-rule="evenodd"/></g></svg>