<svg xmlns="http://www.w3.org/2000/svg" xmlns:xlink="http://www.w3.org/1999/xlink" width="1024" zoomAndPan="magnify" viewBox="0 0 768 767.999994" height="1024" preserveAspectRatio="xMidYMid meet" version="1.0"><defs><clipPath id="c76bfe6758"><path d="M 97.132812 48.203125 L 730.882812 48.203125 L 730.882812 690.953125 L 97.132812 690.953125 Z M 97.132812 48.203125 " clip-rule="nonzero"/></clipPath><clipPath id="42f6498d3c"><path d="M 97.132812 48.203125 L 730.882812 48.203125 L 730.882812 690.953125 L 97.132812 690.953125 Z M 97.132812 48.203125 " clip-rule="nonzero"/></clipPath></defs><g clip-path="url(#c76bfe6758)"><path fill="#ffffff" d="M 730.777344 327.695312 L 730.777344 529.550781 C 730.777344 550.722656 713.515625 568.214844 692.113281 568.214844 L 612.015625 568.214844 L 612.015625 634.964844 C 612.015625 665.808594 586.925781 690.894531 556.082031 690.894531 L 301.292969 690.894531 C 270.449219 690.894531 245.359375 665.808594 245.359375 634.964844 L 245.359375 565.226562 L 189.660156 565.226562 C 175.621094 565.226562 163.421875 557.628906 156.515625 546.351562 C 146.390625 539.445312 139.714844 527.707031 139.714844 514.589844 L 139.714844 399.964844 C 139.714844 378.789062 156.976562 361.296875 178.382812 361.296875 L 245.132812 361.296875 L 245.132812 299.382812 L 142.9375 299.382812 C 128.898438 299.382812 116.929688 289.488281 113.9375 276.367188 C 103.808594 271.535156 97.132812 261.40625 97.132812 249.667969 L 97.132812 117.324219 C 97.132812 100.75 110.484375 87.402344 127.054688 87.402344 L 247.894531 87.402344 C 255.027344 64.84375 276.203125 48.503906 301.292969 48.503906 L 556.082031 48.503906 C 586.925781 48.503906 612.015625 73.59375 612.015625 104.433594 L 612.015625 269.003906 L 677.609375 269.003906 C 694.875 269.003906 709.605469 280.28125 714.4375 295.929688 C 724.335938 303.066406 730.777344 314.574219 730.777344 327.695312 Z M 730.777344 327.695312 " fill-opacity="1" fill-rule="nonzero"/></g><path fill="#155dfb" d="M 265.386719 361.296875 L 249.734375 361.296875 L 249.734375 299.382812 L 267.6875 299.382812 L 267.6875 361.527344 C 266.996094 361.527344 266.304688 361.296875 265.386719 361.296875 Z M 589.457031 568.214844 L 607.410156 568.214844 L 607.410156 608.726562 C 607.410156 637.035156 584.394531 660.050781 556.082031 660.050781 L 301.292969 660.050781 C 272.980469 660.050781 249.964844 637.035156 249.964844 608.726562 L 249.964844 565.226562 L 267.917969 565.226562 L 267.917969 569.597656 C 267.917969 576.734375 273.671875 582.71875 281.035156 582.71875 L 576.570312 582.71875 C 583.703125 582.71875 589.6875 576.964844 589.6875 569.597656 L 589.6875 568.214844 Z M 456.882812 619.3125 C 457.113281 618.164062 457.113281 617.011719 457.113281 616.089844 C 457.113281 600.441406 444.222656 587.550781 428.574219 587.550781 C 412.921875 587.550781 400.03125 600.441406 400.03125 616.089844 C 400.03125 617.242188 400.03125 618.394531 400.261719 619.3125 C 400.03125 620.464844 400.03125 621.613281 400.03125 622.535156 C 400.03125 638.1875 412.921875 651.074219 428.574219 651.074219 C 444.222656 651.074219 457.113281 638.1875 457.113281 622.535156 C 457.113281 621.613281 457.113281 620.464844 456.882812 619.3125 Z M 265.847656 87.402344 L 252.957031 87.402344 C 259.863281 67.378906 278.964844 53.105469 301.292969 53.105469 L 556.082031 53.105469 C 584.394531 53.105469 607.410156 76.125 607.410156 104.433594 L 607.410156 269.230469 L 589.457031 269.230469 L 589.457031 116.171875 C 589.457031 109.039062 583.703125 103.054688 576.339844 103.054688 L 301.519531 103.054688 C 296.457031 93.617188 286.5625 87.171875 275.050781 87.171875 L 265.847656 87.171875 Z M 368.730469 77.503906 C 368.730469 78.195312 368.730469 78.65625 368.960938 79.347656 C 369.878906 83.027344 373.101562 86.019531 377.015625 86.019531 L 480.128906 86.019531 C 484.042969 86.019531 487.496094 83.257812 488.183594 79.347656 C 488.414062 78.886719 488.414062 78.195312 488.414062 77.503906 L 488.414062 76.585938 C 488.414062 75.894531 488.414062 75.433594 488.183594 74.742188 C 487.265625 71.058594 484.042969 68.066406 480.128906 68.066406 L 377.015625 68.066406 C 373.101562 68.066406 369.648438 70.828125 368.960938 74.742188 C 368.730469 75.203125 368.730469 75.894531 368.730469 76.585938 Z M 435.476562 251.050781 C 435.476562 264.628906 435.707031 277.980469 435.476562 291.558594 C 435.476562 294.78125 436.628906 295.472656 439.390625 295.242188 C 448.136719 295.011719 456.882812 295.242188 465.628906 295.242188 C 470.230469 295.242188 474.835938 295.242188 479.207031 295.242188 C 477.828125 299.152344 477.136719 303.296875 477.136719 307.667969 L 477.136719 309.050781 C 473.453125 309.050781 469.773438 309.050781 466.089844 309.050781 C 457.113281 309.050781 447.90625 309.050781 438.929688 309.050781 C 436.167969 309.050781 435.246094 309.742188 435.246094 312.734375 C 435.476562 326.082031 435.476562 339.203125 435.246094 352.550781 C 435.246094 355.773438 436.167969 356.925781 439.621094 356.925781 C 452.050781 356.695312 464.707031 356.695312 477.136719 356.925781 L 477.136719 370.734375 C 470.921875 370.734375 464.707031 370.734375 458.492188 370.734375 C 452.050781 370.734375 445.605469 370.964844 439.160156 370.734375 C 436.398438 370.734375 435.476562 371.65625 435.476562 374.417969 C 435.707031 385.003906 435.476562 395.824219 435.476562 406.410156 C 435.476562 411.472656 435.707031 411.472656 440.539062 409.863281 C 457.574219 404.570312 468.621094 392.832031 477.367188 378.5625 L 477.367188 415.15625 C 462.40625 421.601562 445.835938 425.285156 428.574219 425.285156 C 360.671875 425.285156 305.664062 370.273438 305.664062 302.144531 C 305.664062 300.074219 305.664062 297.773438 305.894531 295.703125 C 314.871094 290.636719 321.085938 280.742188 321.085938 269.691406 L 321.085938 242.53125 C 333.972656 219.285156 354 200.875 378.167969 189.824219 C 380.929688 193.738281 383.921875 197.882812 386.683594 201.792969 L 392.207031 209.390625 C 385.992188 215.605469 381.160156 222.96875 376.554688 231.023438 C 375.402344 233.097656 376.554688 233.558594 378.394531 233.558594 C 385.070312 233.558594 391.515625 233.558594 398.191406 233.558594 C 404.636719 233.558594 411.078125 233.328125 417.523438 233.558594 C 420.746094 233.785156 421.898438 232.636719 421.898438 229.183594 C 421.667969 219.285156 421.898438 209.160156 421.898438 199.261719 C 421.898438 198.109375 421.898438 197.191406 421.898438 196.269531 C 424.660156 192.585938 427.191406 188.90625 429.953125 185.222656 C 431.566406 183.152344 432.714844 181.078125 433.867188 178.777344 C 487.726562 180.847656 532.835938 218.367188 546.878906 268.773438 L 532.605469 268.773438 C 530.535156 262.097656 527.773438 255.652344 524.320312 249.4375 C 523.628906 247.828125 522.019531 246.90625 520.40625 247.136719 C 515.34375 247.136719 510.050781 247.136719 504.988281 247.136719 C 502.226562 247.136719 501.765625 247.828125 502.457031 250.589844 C 504.527344 257.035156 505.90625 263.246094 507.058594 269.921875 C 502.457031 271.074219 498.082031 272.914062 494.167969 275.445312 C 492.789062 266.929688 490.71875 258.644531 488.183594 250.359375 C 487.726562 248.289062 485.882812 246.90625 483.8125 247.367188 C 468.621094 247.367188 453.660156 247.367188 438.46875 247.367188 C 436.167969 247.367188 435.476562 248.515625 435.476562 251.050781 Z M 371.953125 247.367188 C 370.339844 247.136719 368.730469 248.289062 368.5 249.898438 C 364.125 263.476562 361.363281 277.289062 360.445312 291.558594 C 360.214844 294.320312 361.132812 295.472656 364.125 295.242188 C 373.101562 295.011719 382.308594 295.242188 391.285156 295.242188 C 400.261719 295.242188 409.46875 295.242188 418.445312 295.242188 C 420.976562 295.242188 421.898438 294.320312 421.898438 291.789062 C 421.898438 277.980469 421.898438 264.167969 421.898438 250.589844 C 421.898438 248.515625 421.207031 247.367188 418.90625 247.367188 C 403.253906 247.597656 387.601562 247.597656 371.953125 247.367188 Z M 345.484375 233.785156 C 350.085938 234.476562 354.917969 234.246094 359.523438 233.558594 C 362.285156 232.867188 362.285156 228.722656 364.125 226.191406 C 364.585938 225.5 365.046875 224.808594 365.277344 224.121094 C 368.5 217.90625 372.640625 212.152344 376.324219 205.707031 C 372.183594 208.46875 367.808594 211 363.664062 213.992188 C 356.992188 219.054688 350.777344 224.582031 345.253906 231.023438 C 344.792969 231.714844 342.949219 233.558594 345.484375 233.785156 Z M 322.925781 295.472656 C 326.378906 295.242188 329.601562 295.472656 333.054688 295.472656 C 336.507812 295.472656 339.730469 295.242188 343.179688 295.472656 C 345.941406 295.703125 347.09375 294.320312 347.09375 291.789062 C 347.554688 277.980469 350.085938 264.167969 354.230469 250.820312 C 354.917969 248.746094 354.6875 247.597656 351.925781 247.597656 C 346.632812 247.597656 341.339844 247.597656 336.046875 247.597656 C 334.433594 247.367188 333.054688 248.289062 332.363281 249.667969 C 325.226562 262.789062 320.855469 277.289062 319.472656 292.25 C 319.703125 294.78125 320.625 295.472656 322.925781 295.472656 Z M 351.925781 356.925781 C 354.230469 356.925781 355.378906 356.234375 354.460938 353.703125 C 350.085938 340.125 347.785156 326.082031 347.09375 312.042969 C 347.09375 309.511719 345.714844 308.820312 343.410156 309.050781 C 340.1875 309.28125 336.964844 309.050781 333.746094 309.050781 L 333.746094 308.820312 C 330.292969 308.820312 326.839844 308.820312 323.15625 308.820312 C 320.855469 308.820312 319.472656 309.511719 319.703125 312.273438 C 321.085938 327.234375 325.457031 341.734375 332.824219 354.855469 C 333.515625 356.234375 334.894531 357.15625 336.507812 356.925781 C 341.570312 356.925781 346.863281 356.925781 351.925781 356.925781 Z M 373.792969 393.0625 C 369.421875 387.765625 365.96875 381.78125 363.207031 375.339844 C 361.363281 371.195312 359.0625 369.355469 354.6875 370.273438 C 354 370.273438 353.308594 370.273438 352.617188 370.273438 C 351.238281 370.273438 349.625 370.273438 348.246094 370.273438 C 347.09375 370.273438 345.253906 369.585938 344.5625 371.195312 C 344.101562 372.347656 345.714844 373.265625 346.402344 374.1875 C 353.769531 382.472656 362.285156 389.609375 371.722656 395.363281 C 372.640625 395.824219 373.5625 397.664062 374.714844 396.511719 C 375.863281 395.363281 374.484375 393.980469 373.792969 393.0625 Z M 421.898438 407.332031 C 421.667969 396.054688 421.667969 385.003906 421.898438 373.726562 C 421.898438 370.734375 420.746094 370.042969 417.984375 370.042969 C 411.539062 370.273438 405.09375 370.042969 398.421875 370.042969 C 391.746094 370.042969 385.070312 370.042969 378.625 370.042969 C 375.632812 370.042969 375.40625 370.964844 376.785156 373.265625 C 379.316406 378.101562 382.308594 382.472656 385.53125 386.847656 C 394.046875 397.894531 404.40625 406.179688 417.984375 409.863281 C 420.515625 410.785156 421.898438 410.785156 421.898438 407.332031 Z M 421.898438 352.78125 C 421.667969 339.894531 421.898438 326.773438 421.898438 313.882812 C 421.898438 308.820312 421.898438 308.820312 416.835938 308.820312 C 408.085938 308.820312 399.570312 308.820312 390.824219 308.820312 L 390.824219 309.050781 C 382.078125 309.050781 373.332031 309.28125 364.585938 309.050781 C 361.363281 309.050781 360.445312 309.972656 360.671875 313.195312 C 361.824219 327.003906 364.355469 340.8125 368.5 353.933594 C 369.421875 356.695312 371.03125 356.925781 373.332031 356.925781 C 388.292969 356.925781 403.023438 356.695312 417.984375 356.925781 C 421.207031 356.925781 422.128906 356.003906 421.898438 352.78125 Z M 480.589844 206.859375 C 482.890625 210.308594 484.734375 212.84375 486.574219 215.375 C 488.644531 217.90625 490.257812 220.667969 491.636719 223.660156 C 494.398438 233.558594 501.304688 235.167969 510.050781 233.785156 C 510.972656 233.558594 512.351562 234.246094 512.8125 232.867188 C 513.042969 231.945312 512.121094 231.253906 511.433594 230.566406 C 506.367188 224.808594 500.84375 219.515625 494.628906 214.914062 C 490.488281 211.921875 486.804688 208.46875 480.589844 206.859375 Z M 438.699219 233.785156 C 445.144531 233.558594 451.589844 233.785156 458.035156 233.785156 C 464.707031 233.785156 471.613281 233.785156 478.289062 233.785156 C 481.28125 233.785156 481.511719 232.867188 480.128906 230.566406 C 477.597656 225.730469 474.605469 221.359375 471.382812 216.984375 C 462.867188 205.9375 452.738281 197.652344 438.929688 193.96875 C 436.167969 193.277344 434.785156 193.507812 435.015625 196.730469 C 435.015625 208.007812 435.015625 219.054688 435.015625 230.335938 C 435.246094 232.867188 435.9375 234.015625 438.699219 233.785156 Z M 382.308594 187.984375 C 380.46875 185.453125 378.625 182.921875 376.785156 180.386719 C 368.5 168.421875 369.421875 152.769531 379.085938 141.722656 C 384.378906 135.507812 392.207031 131.59375 400.492188 131.132812 C 415.914062 131.132812 428.800781 140.570312 432.253906 154.839844 C 434.328125 163.355469 433.175781 171.183594 428.574219 179.007812 C 427.882812 180.160156 426.960938 181.539062 426.039062 182.691406 C 423.277344 186.371094 420.746094 190.054688 417.984375 193.738281 C 415.222656 197.421875 412.691406 201.332031 409.929688 205.015625 C 407.628906 208.238281 405.324219 211.460938 403.023438 214.914062 L 402.792969 215.144531 C 402.5625 215.605469 402.332031 215.835938 402.101562 215.835938 C 401.875 215.835938 401.875 215.605469 401.414062 215.144531 L 394.96875 206.167969 L 389.90625 199.03125 C 387.601562 195.578125 385.070312 191.667969 382.308594 187.984375 Z M 385.53125 162.4375 C 385.53125 171.871094 393.128906 179.46875 402.5625 179.46875 C 412 179.238281 419.367188 171.871094 419.597656 162.4375 C 419.597656 161.746094 419.597656 161.285156 419.597656 160.824219 C 419.367188 159.671875 419.136719 158.753906 418.90625 157.601562 C 418.90625 157.371094 418.90625 157.371094 418.675781 157.140625 C 418.445312 156.679688 418.445312 156.453125 418.214844 155.992188 C 418.214844 155.761719 417.984375 155.761719 417.984375 155.53125 C 417.753906 155.300781 417.753906 154.839844 417.523438 154.609375 C 417.523438 154.378906 417.292969 154.378906 417.292969 154.148438 C 417.0625 153.917969 416.832031 153.460938 416.605469 153.230469 C 416.605469 153.230469 416.375 153 416.375 153 C 416.144531 152.539062 415.914062 152.308594 415.683594 152.078125 C 415.683594 151.847656 415.453125 151.847656 415.453125 151.617188 C 415.222656 151.386719 414.992188 151.15625 414.761719 150.695312 C 414.761719 150.695312 414.53125 150.46875 414.53125 150.46875 C 414.300781 150.238281 413.839844 150.007812 413.613281 149.546875 C 413.382812 149.546875 413.382812 149.316406 413.152344 149.316406 C 412.921875 149.085938 412.460938 148.855469 412.230469 148.625 C 412 148.625 412 148.394531 411.769531 148.394531 C 411.539062 148.164062 411.078125 147.933594 410.851562 147.707031 C 410.621094 147.707031 410.621094 147.476562 410.390625 147.476562 C 410.160156 147.246094 409.699219 147.246094 409.46875 147.015625 C 409.238281 147.015625 409.007812 146.785156 409.007812 146.785156 C 408.777344 146.554688 408.316406 146.554688 408.085938 146.324219 C 407.859375 146.324219 407.628906 146.324219 407.398438 146.09375 C 407.167969 146.09375 406.707031 145.863281 406.476562 145.863281 C 406.246094 145.863281 406.015625 145.863281 405.785156 145.863281 C 405.554688 145.863281 405.09375 145.632812 404.867188 145.632812 C 404.636719 145.632812 404.40625 145.632812 404.175781 145.632812 C 403.945312 145.632812 403.484375 145.632812 403.253906 145.632812 C 403.253906 145.632812 403.023438 145.632812 403.023438 145.632812 L 402.792969 145.632812 C 402.5625 145.632812 402.101562 145.632812 401.875 145.632812 C 401.644531 145.632812 401.414062 145.632812 401.183594 145.632812 C 400.722656 145.632812 400.261719 145.863281 399.800781 145.863281 C 399.800781 145.863281 399.570312 145.863281 399.570312 145.863281 C 397.039062 146.324219 394.507812 147.476562 392.4375 149.316406 C 392.207031 149.546875 391.746094 149.777344 391.515625 150.238281 C 391.515625 150.238281 391.285156 150.46875 391.285156 150.46875 C 391.285156 150.46875 391.054688 150.695312 391.054688 150.695312 C 390.824219 150.925781 390.59375 151.15625 390.363281 151.386719 C 390.363281 151.386719 390.136719 151.617188 390.136719 151.617188 C 389.90625 151.847656 389.675781 152.308594 389.445312 152.539062 C 389.445312 152.769531 389.214844 152.769531 389.214844 152.769531 C 388.984375 153 388.753906 153.460938 388.523438 153.6875 C 388.523438 153.917969 388.292969 153.917969 388.292969 154.148438 C 388.0625 154.609375 387.832031 154.839844 387.832031 155.300781 C 387.832031 155.53125 387.601562 155.53125 387.601562 155.761719 C 387.371094 156.222656 387.371094 156.453125 387.144531 156.910156 C 387.144531 157.140625 387.144531 157.140625 386.914062 157.371094 C 386.914062 157.832031 386.683594 158.0625 386.683594 158.523438 C 386.683594 158.753906 386.683594 158.753906 386.453125 158.984375 C 386.453125 159.445312 386.222656 159.671875 386.222656 160.132812 C 386.222656 160.363281 386.222656 160.59375 386.222656 160.824219 C 386.222656 161.054688 386.222656 161.515625 386.222656 161.746094 C 386.222656 161.976562 386.222656 161.976562 386.222656 162.207031 Z M 232.011719 233.328125 C 233.851562 233.328125 235.695312 232.636719 237.304688 231.945312 L 238.917969 231.945312 L 238.457031 231.253906 L 204.160156 193.277344 L 200.25 196.269531 C 196.335938 199.261719 191.960938 200.644531 188.050781 200.644531 C 187.128906 200.644531 186.4375 200.644531 185.519531 200.414062 C 181.835938 199.722656 178.84375 197.882812 176.773438 194.890625 L 175.851562 193.507812 L 144.320312 217.675781 L 138.335938 222.277344 L 124.753906 232.867188 L 124.292969 233.328125 L 126.136719 233.328125 C 126.597656 233.328125 127.054688 233.558594 127.515625 233.558594 L 232.011719 233.558594 Z M 245.132812 168.191406 L 237.996094 168.191406 L 207.613281 190.515625 L 241.679688 228.03125 C 242.597656 226.882812 243.289062 225.5 243.75 223.890625 L 245.359375 218.136719 L 247.664062 209.621094 L 249.964844 201.101562 L 258.941406 167.730469 C 258.019531 167.960938 257.328125 167.960938 256.410156 167.960938 L 245.132812 167.960938 Z M 143.167969 212.613281 L 146.160156 210.308594 L 173.089844 189.59375 L 157.667969 167.5 L 156.058594 164.96875 L 154.445312 162.4375 L 143.859375 147.476562 C 142.707031 148.855469 141.785156 150.46875 141.328125 152.308594 L 121.761719 225.269531 C 121.300781 226.652344 121.300781 228.03125 121.761719 229.183594 L 140.40625 214.914062 Z M 120.382812 233.328125 Z M 155.828125 156.679688 L 157.4375 159.214844 L 159.050781 161.746094 L 176.542969 186.832031 L 177.921875 188.675781 L 179.304688 190.515625 L 180.453125 192.128906 C 181.835938 194.199219 183.90625 195.347656 186.207031 195.808594 C 189.660156 196.269531 193.574219 195.117188 197.257812 192.355469 L 200.9375 189.59375 L 202.78125 188.214844 L 204.621094 186.832031 L 230.398438 168.191406 L 223.957031 168.191406 C 219.582031 168.191406 215.667969 166.347656 213.367188 163.355469 C 210.835938 160.132812 210.144531 155.761719 211.296875 151.15625 L 212.90625 144.941406 L 213.367188 143.101562 L 152.835938 143.101562 C 151.222656 143.101562 149.84375 143.5625 148.460938 144.253906 L 146.851562 144.253906 L 147.3125 144.714844 Z M 231.550781 138.269531 C 231.78125 138.269531 232.242188 138.269531 232.472656 138.269531 C 232.933594 138.269531 233.390625 138.269531 233.621094 138.5 C 233.621094 138.5 233.851562 138.5 233.851562 138.5 C 234.773438 138.730469 235.234375 139.417969 235.003906 140.800781 C 235.003906 141.03125 235.003906 141.261719 234.773438 141.722656 C 234.773438 142.179688 234.542969 142.640625 234.542969 143.101562 C 234.542969 143.101562 234.542969 143.332031 234.542969 143.332031 C 234.3125 144.023438 234.082031 144.714844 234.082031 145.402344 C 232.703125 150.695312 233.164062 148.855469 231.320312 155.761719 C 231.089844 156.222656 231.089844 156.679688 230.859375 157.140625 L 240.988281 157.140625 L 243.980469 145.632812 L 244.671875 143.332031 L 245.132812 141.722656 L 245.359375 141.03125 L 246.050781 138.730469 L 247.664062 132.972656 L 249.042969 126.761719 C 248.582031 126.761719 248.121094 126.761719 247.664062 126.761719 C 247.664062 126.761719 247.664062 126.761719 247.433594 126.761719 C 246.972656 126.761719 246.742188 126.761719 246.28125 126.761719 C 245.820312 126.761719 245.589844 126.761719 245.132812 126.761719 C 245.132812 126.761719 245.132812 126.761719 244.902344 126.761719 C 243.289062 126.761719 241.679688 127.449219 240.527344 128.601562 C 239.148438 129.753906 237.535156 130.671875 235.925781 131.363281 C 235.003906 131.824219 233.851562 132.285156 232.933594 132.515625 C 232.242188 132.746094 231.320312 132.972656 230.628906 133.203125 C 230.398438 133.203125 230.398438 133.433594 230.171875 133.433594 C 229.941406 133.664062 229.710938 133.664062 229.710938 133.894531 C 229.25 135.277344 229.019531 136.65625 228.558594 138.269531 C 228.789062 138.269531 228.789062 138.269531 229.019531 138.269531 C 230.171875 138.269531 230.859375 138.269531 231.550781 138.269531 Z M 265.386719 548.652344 C 266.074219 548.652344 266.996094 548.652344 267.6875 548.421875 C 268.378906 548.421875 269.296875 548.191406 269.988281 548.191406 C 270.679688 548.191406 271.601562 547.960938 272.289062 547.730469 C 276.203125 547.042969 279.65625 545.429688 282.878906 543.589844 C 284.027344 542.898438 285.179688 542.207031 286.332031 541.289062 C 287.25 540.597656 288.171875 539.90625 289.09375 538.984375 C 292.085938 536.222656 294.386719 533 296.226562 529.320312 L 147.769531 529.320312 C 148.921875 531.851562 150.53125 534.382812 152.375 536.453125 C 153.523438 537.835938 154.675781 538.984375 156.058594 540.136719 C 156.515625 540.597656 156.976562 541.058594 157.4375 541.289062 C 158.359375 541.976562 159.050781 542.4375 159.96875 543.128906 C 160.199219 543.359375 160.429688 543.359375 160.890625 543.589844 C 165.953125 546.8125 171.9375 548.421875 178.382812 548.421875 L 265.386719 548.421875 Z M 225.105469 431.269531 L 169.175781 431.269531 C 164.804688 431.269531 161.121094 427.585938 161.121094 423.210938 L 161.121094 395.132812 C 161.121094 394.671875 161.121094 393.980469 161.351562 393.519531 C 161.8125 390.757812 163.882812 388.6875 166.183594 387.539062 C 167.105469 387.078125 168.027344 386.847656 169.175781 386.847656 L 225.105469 386.847656 C 229.480469 386.847656 233.164062 390.53125 233.164062 394.902344 L 233.164062 422.984375 C 233.164062 427.585938 229.710938 431.269531 225.105469 431.269531 Z M 192.191406 409.632812 C 192.191406 404.109375 187.820312 399.734375 182.296875 399.734375 C 176.773438 399.734375 172.398438 404.109375 172.398438 409.632812 C 172.398438 415.15625 176.773438 419.53125 182.296875 419.53125 C 187.589844 419.53125 192.191406 415.15625 192.191406 409.632812 Z M 222.34375 407.792969 L 202.78125 407.792969 L 202.78125 412.394531 L 222.34375 412.394531 Z M 264.695312 472.007812 C 265.15625 472.46875 265.847656 473.160156 266.535156 473.390625 C 266.996094 473.617188 267.457031 473.847656 267.917969 474.078125 C 268.609375 474.308594 269.296875 474.539062 270.21875 474.539062 C 270.449219 474.539062 270.449219 474.539062 270.679688 474.539062 L 356.070312 474.539062 C 357.679688 474.539062 359.0625 474.078125 360.214844 473.390625 C 360.902344 472.929688 361.363281 472.46875 362.054688 472.007812 C 362.515625 471.316406 362.976562 470.855469 363.4375 469.9375 C 363.894531 469.015625 364.125 467.863281 364.125 466.484375 C 364.125 462.109375 360.445312 458.429688 356.070312 458.429688 L 270.449219 458.429688 C 270.21875 458.429688 270.21875 458.429688 269.988281 458.429688 C 269.296875 458.429688 268.378906 458.65625 267.6875 458.886719 C 264.695312 460.039062 262.394531 463.03125 262.394531 466.484375 C 262.394531 467.632812 262.625 468.785156 263.082031 469.9375 C 263.542969 470.855469 264.003906 471.546875 264.695312 472.007812 Z M 378.167969 459.578125 C 376.554688 459.578125 375.175781 460.960938 375.175781 462.570312 C 375.175781 463.261719 375.402344 463.953125 375.863281 464.414062 L 378.625 468.09375 L 380.46875 470.398438 L 381.847656 472.007812 C 382.078125 472.238281 382.308594 472.46875 382.539062 472.699219 C 383.460938 473.390625 384.839844 473.390625 385.761719 472.699219 C 385.761719 472.699219 385.992188 472.699219 385.992188 472.46875 C 386.222656 472.46875 386.222656 472.238281 386.222656 472.238281 L 388.0625 470.398438 L 390.136719 468.09375 L 393.355469 464.640625 C 394.507812 463.492188 394.507812 461.648438 393.128906 460.5 C 392.667969 460.039062 391.746094 459.808594 391.054688 459.808594 L 378.167969 459.808594 Z M 247.433594 389.148438 C 246.28125 390.300781 245.589844 391.679688 245.132812 393.292969 C 244.902344 393.75 244.902344 394.441406 244.902344 394.902344 L 244.902344 422.984375 C 244.902344 423.671875 244.902344 424.132812 245.132812 424.59375 C 245.589844 426.203125 246.28125 427.585938 247.433594 428.738281 C 248.121094 429.425781 248.8125 429.886719 249.734375 430.347656 C 250.65625 430.808594 251.804688 431.039062 252.957031 431.039062 L 276.664062 431.039062 C 281.035156 431.039062 284.71875 427.355469 284.71875 422.984375 L 284.71875 394.902344 C 284.71875 390.53125 281.035156 386.847656 276.664062 386.847656 L 253.1875 386.847656 C 252.035156 386.847656 250.886719 387.078125 249.964844 387.539062 C 249.042969 387.996094 248.121094 388.457031 247.433594 389.148438 Z M 167.796875 443.699219 C 164.113281 443.699219 161.121094 446.691406 161.121094 450.371094 C 161.121094 454.054688 164.113281 457.046875 167.796875 457.046875 C 171.476562 457.046875 174.46875 454.054688 174.46875 450.371094 C 174.46875 446.691406 171.476562 443.699219 167.796875 443.699219 Z M 222.34375 448.070312 L 182.296875 448.070312 L 182.296875 452.675781 L 222.34375 452.675781 Z M 167.796875 465.332031 C 164.113281 465.332031 161.121094 468.324219 161.121094 472.007812 C 161.121094 475.691406 164.113281 478.683594 167.796875 478.683594 C 171.476562 478.683594 174.46875 475.691406 174.46875 472.007812 C 174.46875 468.324219 171.476562 465.332031 167.796875 465.332031 Z M 222.34375 469.707031 L 182.296875 469.707031 L 182.296875 474.308594 L 222.34375 474.308594 Z M 167.796875 486.96875 C 164.113281 486.96875 161.121094 489.960938 161.121094 493.644531 C 161.121094 497.324219 164.113281 500.316406 167.796875 500.316406 C 171.476562 500.316406 174.46875 497.324219 174.46875 493.644531 C 174.46875 489.960938 171.476562 486.96875 167.796875 486.96875 Z M 182.296875 495.945312 L 222.34375 495.945312 L 222.34375 491.339844 L 182.296875 491.339844 Z M 607.410156 273.605469 L 677.609375 273.605469 C 690.960938 273.605469 702.238281 281.199219 707.992188 292.25 C 708.453125 293.398438 708.914062 294.320312 709.375 295.472656 C 709.835938 296.621094 710.0625 297.773438 710.523438 298.921875 C 711.214844 301.457031 711.445312 303.988281 711.675781 306.519531 L 481.972656 306.519531 C 482.199219 302.605469 482.890625 298.695312 484.273438 295.242188 C 486.574219 289.257812 490.488281 284.191406 495.550781 280.511719 C 499.234375 277.75 503.605469 275.675781 508.441406 274.527344 C 510.972656 274.066406 513.503906 273.605469 516.035156 273.605469 Z M 673.007812 291.328125 C 673.007812 292.25 673.238281 292.9375 673.46875 293.628906 C 674.390625 296.390625 677.152344 298.464844 680.144531 298.464844 C 683.363281 298.464844 685.898438 296.390625 686.816406 293.628906 C 687.046875 292.9375 687.277344 292.25 687.277344 291.328125 C 687.277344 290.40625 687.046875 289.71875 686.816406 289.027344 C 685.898438 286.265625 683.136719 284.191406 680.144531 284.191406 C 676.921875 284.191406 674.390625 286.265625 673.46875 289.027344 C 673.238281 289.71875 673.007812 290.40625 673.007812 291.328125 Z M 652.753906 291.328125 C 652.753906 292.25 652.984375 292.9375 653.214844 293.628906 C 654.132812 296.390625 656.894531 298.464844 659.886719 298.464844 C 662.878906 298.464844 665.640625 296.390625 666.5625 293.628906 C 666.792969 292.9375 667.023438 292.25 667.023438 291.328125 C 667.023438 290.40625 666.792969 289.71875 666.5625 289.027344 C 665.640625 286.265625 662.878906 284.191406 659.886719 284.191406 C 656.894531 284.191406 654.132812 286.265625 653.214844 289.027344 C 652.753906 289.71875 652.753906 290.40625 652.753906 291.328125 Z M 632.039062 291.328125 C 632.039062 292.25 632.269531 292.9375 632.5 293.628906 C 633.417969 296.390625 636.179688 298.464844 639.171875 298.464844 C 642.164062 298.464844 644.925781 296.390625 645.847656 293.628906 C 646.078125 292.9375 646.308594 292.25 646.308594 291.328125 C 646.308594 290.40625 646.078125 289.71875 645.847656 289.027344 C 644.925781 286.265625 642.164062 284.191406 639.171875 284.191406 C 636.179688 284.191406 633.417969 286.265625 632.5 289.027344 C 632.269531 289.71875 632.039062 290.40625 632.039062 291.328125 Z M 599.125 337.820312 L 513.734375 337.820312 C 509.359375 337.820312 505.679688 341.503906 505.679688 345.878906 C 505.679688 350.25 509.359375 353.933594 513.734375 353.933594 L 598.894531 353.933594 C 603.269531 353.933594 606.949219 350.25 606.949219 345.878906 C 607.179688 341.503906 603.496094 337.820312 599.125 337.820312 Z M 564.140625 397.203125 C 565.289062 396.972656 566.210938 396.972656 567.363281 397.203125 L 584.855469 402.269531 L 587.15625 402.957031 L 589.457031 403.648438 L 607.179688 408.941406 L 607.179688 377.410156 C 607.179688 373.035156 603.496094 369.355469 599.125 369.355469 L 513.734375 369.355469 C 512.351562 369.355469 511.203125 369.585938 510.28125 370.273438 C 507.519531 371.65625 505.679688 374.417969 505.679688 377.410156 L 505.679688 493.414062 C 505.679688 497.785156 509.359375 501.46875 513.734375 501.46875 L 589.226562 501.46875 C 588.765625 500.777344 588.308594 500.316406 588.078125 499.398438 L 586.925781 495.714844 L 584.625 487.890625 L 559.996094 404.109375 C 559.535156 402.726562 559.765625 401.117188 560.457031 399.734375 C 561.378906 398.585938 562.527344 397.664062 564.140625 397.203125 Z M 648.609375 462.570312 C 648.609375 462.570312 648.378906 462.339844 648.378906 462.339844 C 647.230469 460.730469 647.460938 458.65625 648.839844 457.507812 L 673.238281 437.941406 C 673.699219 437.484375 674.160156 436.792969 674.390625 436.332031 C 674.847656 434.492188 673.929688 432.648438 672.085938 431.960938 L 666.5625 430.347656 C 666.5625 431.039062 666.5625 431.730469 666.332031 432.417969 C 666.101562 433.570312 665.414062 434.492188 664.492188 435.179688 L 640.09375 454.746094 C 639.863281 454.976562 639.632812 455.4375 639.632812 455.4375 C 639.632812 455.4375 639.632812 455.894531 639.863281 456.355469 L 676.460938 492.722656 C 678.761719 495.023438 678.761719 498.707031 676.460938 500.777344 L 664.953125 512.285156 L 668.175781 515.507812 C 669.554688 516.890625 671.625 516.890625 673.007812 515.507812 L 684.976562 503.539062 C 686.355469 502.160156 686.355469 500.085938 684.976562 498.707031 Z M 618 476.609375 L 611.785156 484.207031 L 609.480469 486.96875 L 607.179688 489.730469 L 606.949219 489.960938 L 599.355469 499.398438 L 597.972656 501.238281 L 598.894531 501.238281 C 599.355469 501.238281 599.585938 501.238281 600.046875 501.238281 L 600.503906 503.078125 C 600.734375 503.769531 601.195312 504.460938 601.65625 504.691406 C 603.039062 505.84375 605.339844 505.613281 606.488281 504.230469 L 607.179688 503.308594 L 609.480469 500.546875 L 611.785156 497.785156 L 624.671875 481.675781 L 619.609375 476.609375 C 619.378906 476.152344 618.457031 476.152344 618 476.609375 Z M 618 476.609375 " fill-opacity="1" fill-rule="nonzero"/><g clip-path="url(#42f6498d3c)"><path fill="#000000" d="M 377.015625 85.789062 L 480.128906 85.789062 C 484.042969 85.789062 487.496094 83.027344 488.183594 79.117188 C 488.414062 78.65625 488.414062 77.964844 488.414062 77.273438 L 488.414062 76.355469 C 488.414062 75.664062 488.414062 75.203125 488.183594 74.511719 C 487.265625 70.828125 484.042969 67.835938 480.128906 67.835938 L 377.015625 67.835938 C 373.101562 67.835938 369.648438 70.601562 368.960938 74.511719 C 368.730469 74.972656 368.730469 75.664062 368.730469 76.355469 L 368.730469 77.273438 C 368.730469 77.964844 368.730469 78.425781 368.960938 79.117188 C 369.648438 83.027344 372.871094 85.789062 377.015625 85.789062 Z M 373.332031 77.042969 L 373.332031 76.585938 C 373.332031 75.894531 373.5625 75.433594 373.792969 74.742188 C 374.484375 73.59375 375.632812 72.671875 377.015625 72.671875 L 480.128906 72.671875 C 481.511719 72.671875 482.660156 73.363281 483.351562 74.742188 C 483.582031 75.203125 483.8125 75.894531 483.8125 76.585938 L 483.8125 77.503906 C 483.8125 78.195312 483.582031 78.65625 483.351562 79.347656 C 482.660156 80.496094 481.511719 81.417969 480.128906 81.417969 L 377.015625 81.417969 C 375.632812 81.417969 374.484375 80.726562 373.792969 79.347656 C 373.5625 78.886719 373.332031 78.195312 373.332031 77.503906 Z M 428.574219 587.550781 C 412.921875 587.550781 400.03125 600.441406 400.03125 616.089844 C 400.03125 617.242188 400.03125 618.394531 400.261719 619.3125 C 400.03125 620.464844 400.03125 621.613281 400.03125 622.535156 C 400.03125 638.1875 412.921875 651.074219 428.574219 651.074219 C 444.222656 651.074219 457.113281 638.1875 457.113281 622.535156 C 457.113281 621.386719 457.113281 620.234375 456.882812 619.3125 C 457.113281 618.164062 457.113281 617.011719 457.113281 616.089844 C 457.113281 600.210938 444.222656 587.550781 428.574219 587.550781 Z M 452.28125 619.3125 C 450.667969 630.820312 440.769531 639.796875 428.574219 639.796875 C 416.375 639.796875 406.476562 630.820312 404.867188 619.3125 C 404.636719 618.164062 404.636719 617.011719 404.636719 616.089844 C 404.636719 614.25 404.867188 612.410156 405.324219 610.796875 C 406.015625 607.34375 407.628906 604.121094 409.929688 601.359375 C 414.300781 595.835938 421.207031 592.152344 428.800781 592.152344 C 436.398438 592.152344 443.304688 595.835938 447.675781 601.359375 C 449.746094 604.121094 451.359375 607.34375 452.28125 610.796875 C 452.738281 612.410156 452.96875 614.25 452.96875 616.089844 C 452.507812 617.242188 452.28125 618.164062 452.28125 619.3125 Z M 419.367188 160.824219 C 419.136719 159.671875 418.90625 158.753906 418.675781 157.601562 C 418.675781 157.371094 418.675781 157.371094 418.445312 157.140625 C 418.214844 156.679688 418.214844 156.453125 417.984375 155.992188 C 417.984375 155.761719 417.753906 155.761719 417.753906 155.53125 C 417.523438 155.300781 417.523438 154.839844 417.292969 154.609375 C 417.292969 154.378906 417.0625 154.378906 417.0625 154.148438 C 416.832031 153.917969 416.605469 153.460938 416.375 153.230469 C 416.375 153.230469 416.144531 153 416.144531 153 C 415.914062 152.539062 415.683594 152.308594 415.453125 152.078125 C 415.453125 151.847656 415.222656 151.847656 415.222656 151.617188 C 414.992188 151.386719 414.761719 151.15625 414.53125 150.695312 C 414.53125 150.695312 414.300781 150.46875 414.300781 150.46875 C 414.070312 150.238281 413.613281 150.007812 413.382812 149.546875 C 413.152344 149.546875 413.152344 149.316406 412.921875 149.316406 C 412.691406 149.085938 412.230469 148.855469 412 148.625 C 411.769531 148.625 411.769531 148.394531 411.539062 148.394531 C 411.308594 148.164062 410.851562 147.933594 410.621094 147.707031 C 410.390625 147.707031 410.390625 147.476562 410.160156 147.476562 C 409.929688 147.246094 409.46875 147.246094 409.238281 147.015625 C 409.007812 147.015625 408.777344 146.785156 408.777344 146.785156 C 408.546875 146.554688 408.085938 146.554688 407.859375 146.324219 C 407.628906 146.324219 407.398438 146.324219 407.167969 146.09375 C 406.9375 146.09375 406.476562 145.863281 406.246094 145.863281 C 406.015625 145.863281 405.785156 145.863281 405.554688 145.863281 C 405.324219 145.863281 404.867188 145.632812 404.636719 145.632812 C 404.40625 145.632812 404.175781 145.632812 403.945312 145.632812 C 403.714844 145.632812 403.253906 145.632812 403.023438 145.632812 C 403.023438 145.632812 402.792969 145.632812 402.792969 145.632812 L 402.5625 145.632812 C 402.332031 145.632812 401.875 145.632812 401.644531 145.632812 C 401.414062 145.632812 401.183594 145.632812 400.953125 145.632812 C 400.492188 145.632812 400.03125 145.863281 399.570312 145.863281 C 399.570312 145.863281 399.339844 145.863281 399.339844 145.863281 C 396.808594 146.324219 394.277344 147.476562 392.207031 149.316406 C 391.976562 149.546875 391.515625 149.777344 391.285156 150.238281 C 391.285156 150.238281 391.054688 150.46875 391.054688 150.46875 C 391.054688 150.46875 390.824219 150.695312 390.824219 150.695312 C 390.59375 150.925781 390.363281 151.15625 390.136719 151.386719 C 390.136719 151.386719 389.90625 151.617188 389.90625 151.617188 C 389.675781 151.847656 389.445312 152.308594 389.214844 152.539062 C 389.214844 152.769531 388.984375 152.769531 388.984375 152.769531 C 388.753906 153 388.523438 153.460938 388.292969 153.6875 C 388.292969 153.917969 388.0625 153.917969 388.0625 154.148438 C 387.832031 154.609375 387.601562 154.839844 387.601562 155.300781 C 387.601562 155.53125 387.371094 155.53125 387.371094 155.761719 C 387.144531 156.222656 387.144531 156.453125 386.914062 156.910156 C 386.914062 157.140625 386.914062 157.140625 386.683594 157.371094 C 386.683594 157.832031 386.453125 158.0625 386.453125 158.523438 C 386.453125 158.753906 386.453125 158.753906 386.222656 158.984375 C 386.222656 159.445312 385.992188 159.671875 385.992188 160.132812 C 385.992188 160.363281 385.992188 160.59375 385.992188 160.824219 C 385.992188 161.054688 385.992188 161.515625 385.992188 161.746094 C 385.992188 161.976562 385.992188 161.976562 385.992188 162.207031 L 385.992188 162.664062 C 385.992188 172.101562 393.585938 179.699219 403.023438 179.699219 C 412.460938 179.46875 419.824219 172.101562 420.054688 162.664062 C 419.367188 161.976562 419.367188 161.285156 419.367188 160.824219 Z M 402.332031 175.09375 C 401.414062 175.09375 400.722656 175.09375 399.800781 174.863281 C 399.109375 174.632812 398.421875 174.402344 397.730469 174.175781 C 393.128906 172.332031 389.90625 167.730469 389.90625 162.664062 C 389.90625 162.207031 389.90625 161.746094 389.90625 161.515625 C 389.90625 161.054688 389.90625 160.59375 390.136719 160.132812 C 390.136719 159.902344 390.363281 159.445312 390.363281 159.214844 C 390.59375 158.753906 390.59375 158.292969 390.824219 157.832031 C 391.054688 157.601562 391.054688 157.371094 391.285156 156.910156 C 391.515625 156.453125 391.746094 155.992188 391.976562 155.761719 C 392.207031 155.53125 392.4375 155.300781 392.667969 155.070312 C 392.898438 154.839844 393.128906 154.378906 393.355469 154.148438 C 393.355469 154.148438 393.355469 154.148438 393.585938 154.148438 C 393.816406 153.917969 394.046875 153.6875 394.277344 153.460938 C 394.738281 153.230469 394.96875 152.769531 395.429688 152.539062 C 395.660156 152.539062 395.660156 152.308594 395.890625 152.308594 C 396.347656 152.078125 397.039062 151.617188 397.5 151.386719 C 397.5 151.386719 397.730469 151.386719 397.730469 151.386719 C 398.421875 151.15625 398.882812 150.925781 399.570312 150.699219 C 399.800781 150.699219 400.03125 150.699219 400.261719 150.699219 C 400.722656 150.699219 401.183594 150.46875 401.875 150.46875 L 402.101562 150.46875 C 408.777344 150.46875 414.300781 155.992188 414.53125 162.664062 C 414.761719 169.339844 409.238281 174.863281 402.332031 175.09375 Z M 714.4375 296.160156 C 709.605469 280.511719 694.875 269.230469 677.609375 269.230469 L 612.015625 269.230469 L 612.015625 104.433594 C 612.015625 73.59375 586.925781 48.503906 556.082031 48.503906 L 301.292969 48.503906 C 276.433594 48.503906 255.257812 64.84375 247.894531 87.402344 L 127.054688 87.402344 C 110.484375 87.402344 97.132812 100.75 97.132812 117.324219 L 97.132812 249.667969 C 97.132812 261.40625 103.808594 271.535156 113.707031 276.367188 C 116.929688 289.488281 128.667969 299.382812 142.707031 299.382812 L 245.132812 299.382812 L 245.132812 361.296875 L 178.382812 361.296875 C 157.207031 361.296875 139.714844 378.5625 139.714844 399.964844 L 139.714844 514.589844 C 139.714844 527.707031 146.390625 539.445312 156.515625 546.351562 C 163.191406 557.628906 175.621094 565.222656 189.660156 565.222656 L 245.132812 565.222656 L 245.132812 634.964844 C 245.132812 665.808594 270.21875 690.894531 301.0625 690.894531 L 555.855469 690.894531 C 586.695312 690.894531 611.785156 665.808594 611.785156 634.964844 L 611.785156 568.214844 L 691.882812 568.214844 C 713.054688 568.214844 730.550781 550.953125 730.550781 529.550781 L 730.550781 327.695312 C 730.777344 314.574219 724.335938 303.066406 714.4375 296.160156 Z M 301.292969 53.105469 L 556.082031 53.105469 C 584.394531 53.105469 607.410156 76.125 607.410156 104.433594 L 607.410156 269.230469 L 589.457031 269.230469 L 589.457031 116.171875 C 589.457031 109.039062 583.703125 103.054688 576.339844 103.054688 L 301.519531 103.054688 C 296.457031 93.617188 286.5625 87.171875 275.050781 87.171875 L 252.726562 87.171875 C 259.863281 67.378906 278.964844 53.105469 301.292969 53.105469 Z M 493.710938 541.058594 C 498.542969 556.707031 513.273438 568.214844 530.535156 568.214844 L 584.855469 568.214844 L 584.855469 569.828125 C 584.855469 574.429688 581.171875 578.34375 576.339844 578.34375 L 280.804688 578.34375 C 276.203125 578.34375 272.289062 574.660156 272.289062 569.828125 L 272.289062 565.453125 L 276.664062 565.453125 C 297.839844 565.453125 315.332031 548.191406 315.332031 526.785156 L 315.332031 502.851562 L 403.945312 502.851562 C 417.753906 502.851562 429.03125 491.570312 429.03125 477.761719 C 429.03125 469.707031 425.121094 462.570312 419.136719 457.738281 C 415.453125 448.300781 406.246094 441.625 395.660156 441.625 L 315.101562 441.625 L 315.101562 412.164062 C 315.101562 399.046875 308.425781 387.308594 298.300781 380.402344 C 292.773438 370.964844 283.339844 364.289062 272.058594 362.21875 L 272.058594 299.613281 L 290.472656 299.613281 C 295.765625 299.613281 300.832031 298.234375 305.203125 295.703125 C 314.179688 290.636719 320.394531 280.742188 320.394531 269.691406 L 320.394531 137.117188 C 320.394531 125.378906 313.71875 115.25 303.824219 110.417969 C 303.59375 109.496094 303.363281 108.578125 303.132812 107.886719 L 575.878906 107.886719 C 580.480469 107.886719 584.394531 111.570312 584.394531 116.402344 L 584.394531 269.230469 L 516.035156 269.230469 C 513.042969 269.230469 510.28125 269.691406 507.519531 270.152344 C 502.914062 271.304688 498.542969 273.144531 494.628906 275.675781 C 487.496094 280.28125 482.199219 287.414062 479.4375 295.472656 C 478.058594 299.382812 477.367188 303.527344 477.367188 307.898438 L 477.367188 509.753906 C 477.367188 522.644531 483.8125 534.152344 493.710938 541.058594 Z M 299.449219 487.199219 L 267.6875 487.199219 C 267.457031 487.199219 267.457031 487.199219 267.226562 487.199219 C 263.082031 487.199219 259.402344 485.816406 256.179688 483.746094 C 255.027344 483.054688 254.105469 482.136719 253.1875 481.214844 C 252.265625 480.292969 251.34375 479.144531 250.65625 477.992188 C 250.195312 477.53125 249.964844 476.839844 249.734375 476.382812 C 248.582031 474.308594 247.664062 471.777344 247.433594 469.246094 C 247.433594 468.324219 247.203125 467.40625 247.203125 466.484375 C 247.203125 465.5625 247.203125 464.640625 247.433594 463.722656 C 247.664062 461.191406 248.582031 458.65625 249.734375 456.585938 C 253.1875 450.140625 260.089844 445.769531 267.6875 445.769531 L 395.890625 445.769531 C 402.101562 445.769531 407.859375 448.53125 411.539062 453.132812 C 412.460938 454.285156 413.152344 455.4375 413.84375 456.585938 C 414.53125 457.738281 414.992188 458.886719 415.222656 460.039062 C 415.914062 462.109375 416.144531 464.183594 416.144531 466.253906 C 416.144531 477.53125 406.9375 486.738281 395.660156 486.738281 L 299.449219 486.738281 Z M 127.054688 274.988281 C 123.832031 274.988281 120.613281 274.296875 117.847656 273.144531 C 116.929688 272.914062 116.238281 272.453125 115.316406 271.996094 C 114.398438 271.535156 113.707031 271.074219 113.015625 270.613281 C 106.339844 266.011719 101.738281 258.414062 101.738281 249.667969 L 101.738281 117.324219 C 101.738281 103.285156 113.015625 92.003906 127.054688 92.003906 L 275.050781 92.003906 C 283.796875 92.003906 291.394531 96.378906 295.996094 103.285156 C 296.457031 103.972656 296.917969 104.894531 297.378906 105.585938 C 297.839844 106.277344 298.070312 107.195312 298.527344 107.886719 C 298.527344 108.117188 298.757812 108.347656 298.757812 108.347656 C 298.988281 109.265625 299.449219 110.1875 299.679688 110.878906 C 299.910156 111.800781 300.140625 112.71875 300.140625 113.640625 C 300.371094 114.792969 300.371094 116.171875 300.371094 117.324219 L 300.371094 249.667969 C 300.371094 263.707031 289.09375 274.988281 275.050781 274.988281 Z M 267.6875 299.613281 L 267.6875 361.527344 C 266.996094 361.527344 266.074219 361.296875 265.386719 361.296875 L 249.734375 361.296875 L 249.734375 299.382812 L 267.6875 299.382812 Z M 245.132812 548.652344 L 178.382812 548.652344 C 171.9375 548.652344 165.953125 546.8125 160.890625 543.820312 C 160.660156 543.589844 160.429688 543.589844 159.96875 543.359375 C 159.050781 542.898438 158.359375 542.207031 157.4375 541.519531 C 156.976562 541.058594 156.515625 540.828125 156.058594 540.367188 C 154.675781 539.214844 153.523438 538.066406 152.375 536.683594 C 150.53125 534.613281 148.921875 532.082031 147.769531 529.550781 C 145.699219 525.175781 144.320312 520.113281 144.320312 514.820312 L 144.320312 400.195312 C 144.320312 381.554688 159.507812 366.132812 178.382812 366.132812 L 265.386719 366.132812 C 266.074219 366.132812 266.996094 366.132812 267.6875 366.363281 C 268.378906 366.363281 269.296875 366.59375 269.988281 366.59375 C 270.679688 366.59375 271.601562 366.824219 272.289062 367.050781 C 278.503906 368.433594 284.257812 371.425781 288.863281 375.796875 C 290.011719 376.949219 291.394531 378.332031 292.316406 379.710938 C 293.234375 381.09375 294.386719 382.472656 295.078125 383.855469 C 297.839844 388.6875 299.449219 394.441406 299.449219 400.425781 L 299.449219 441.855469 L 267.6875 441.855469 C 260.550781 441.855469 254.335938 444.847656 249.734375 449.453125 C 248.8125 450.371094 248.121094 451.292969 247.433594 452.214844 C 246.511719 453.363281 245.820312 454.746094 245.128906 456.125 C 243.519531 459.347656 242.597656 463.03125 242.597656 466.945312 C 242.597656 470.855469 243.519531 474.539062 245.128906 477.761719 C 245.820312 479.144531 246.511719 480.523438 247.433594 481.675781 C 248.121094 482.59375 248.8125 483.515625 249.734375 484.4375 C 250.65625 485.355469 251.574219 486.046875 252.496094 486.96875 C 255.257812 493.875 260.78125 499.167969 267.6875 501.699219 C 268.378906 501.929688 269.296875 502.160156 269.988281 502.390625 C 270.679688 502.621094 271.601562 502.621094 272.289062 502.851562 C 273.441406 503.078125 274.59375 503.078125 275.742188 503.078125 L 299.21875 503.078125 L 299.21875 515.046875 C 299.21875 520.34375 298.070312 525.40625 295.765625 529.777344 C 293.925781 533.460938 291.625 536.683594 288.632812 539.445312 C 287.710938 540.367188 286.789062 541.058594 285.871094 541.746094 C 284.71875 542.667969 283.796875 543.359375 282.417969 544.050781 C 279.195312 546.121094 275.511719 547.5 271.828125 548.191406 C 271.140625 548.421875 270.21875 548.421875 269.527344 548.652344 C 268.835938 548.652344 267.917969 548.882812 267.226562 548.882812 C 266.535156 548.882812 265.617188 549.113281 264.925781 549.113281 L 245.132812 549.113281 Z M 607.410156 608.726562 C 607.410156 637.035156 584.394531 660.050781 556.082031 660.050781 L 301.292969 660.050781 C 272.980469 660.050781 249.964844 637.035156 249.964844 608.726562 L 249.964844 565.222656 L 267.917969 565.222656 L 267.917969 569.597656 C 267.917969 576.734375 273.671875 582.71875 281.035156 582.71875 L 576.570312 582.71875 C 583.703125 582.71875 589.6875 576.964844 589.6875 569.597656 L 589.6875 567.988281 L 607.640625 567.988281 L 607.640625 608.726562 Z M 711.675781 509.753906 C 711.675781 528.398438 696.484375 543.820312 677.609375 543.820312 L 516.035156 543.820312 C 509.359375 543.820312 502.914062 541.746094 497.621094 538.527344 C 496.703125 537.835938 495.78125 537.144531 494.859375 536.453125 C 493.9375 535.761719 493.019531 534.84375 492.097656 534.152344 C 485.882812 527.9375 481.972656 519.421875 481.972656 509.984375 L 481.972656 307.898438 C 481.972656 307.441406 481.972656 307.210938 481.972656 306.75 C 482.199219 302.835938 482.890625 298.921875 484.273438 295.472656 C 486.574219 289.488281 490.488281 284.421875 495.550781 280.742188 C 499.234375 277.980469 503.605469 275.90625 508.441406 274.757812 C 510.972656 274.296875 513.503906 273.835938 516.035156 273.835938 L 677.382812 273.835938 C 690.730469 273.835938 702.007812 281.429688 707.761719 292.480469 C 708.222656 293.628906 708.683594 294.550781 709.144531 295.703125 C 709.605469 296.851562 709.835938 298.003906 710.292969 299.152344 C 710.984375 301.6875 711.214844 304.21875 711.445312 306.75 C 711.445312 307.210938 711.445312 307.441406 711.445312 307.898438 L 711.445312 509.753906 Z M 639.863281 456.585938 C 639.632812 456.355469 639.632812 455.894531 639.632812 455.667969 C 639.632812 455.4375 639.632812 455.207031 640.09375 454.976562 L 664.492188 435.410156 C 665.414062 434.722656 666.101562 433.570312 666.332031 432.648438 C 666.5625 431.960938 666.5625 431.269531 666.5625 430.578125 C 666.332031 428.277344 664.722656 426.203125 662.421875 425.515625 L 612.015625 410.554688 L 609.710938 409.863281 L 607.410156 409.171875 L 607.179688 409.171875 L 589.457031 403.878906 L 584.855469 402.496094 L 567.363281 397.433594 C 566.210938 397.203125 565.058594 397.203125 564.140625 397.433594 C 562.757812 397.894531 561.378906 398.816406 560.6875 400.195312 C 559.996094 401.578125 559.765625 403.1875 560.226562 404.570312 L 584.855469 488.347656 L 587.15625 496.175781 L 588.308594 499.859375 C 588.539062 500.546875 588.996094 501.238281 589.457031 501.929688 C 589.6875 502.160156 589.917969 502.390625 590.148438 502.621094 C 591.300781 503.539062 592.910156 504 594.292969 503.769531 C 595.902344 503.539062 597.285156 502.851562 598.203125 501.699219 L 599.585938 499.859375 L 607.179688 490.421875 L 607.410156 490.191406 L 609.710938 487.429688 L 612.015625 484.667969 L 618.230469 477.070312 C 618.6875 476.609375 619.378906 476.609375 619.839844 477.070312 L 624.902344 482.136719 L 655.976562 513.207031 L 656.207031 513.4375 C 657.355469 514.589844 658.738281 515.046875 660.347656 515.046875 C 661.730469 515.046875 663.339844 514.589844 664.492188 513.4375 L 676.460938 501.46875 C 678.761719 499.167969 678.761719 495.484375 676.460938 493.414062 Z M 673.007812 497.785156 L 661.039062 509.753906 C 660.578125 510.214844 659.886719 510.214844 659.429688 509.753906 L 628.125 478.453125 L 622.832031 473.160156 C 621.679688 472.007812 620.300781 471.546875 618.6875 471.546875 C 617.078125 471.546875 615.695312 472.238281 614.546875 473.160156 C 614.316406 473.390625 614.316406 473.390625 614.085938 473.617188 L 611.554688 476.609375 L 609.253906 479.371094 L 606.949219 482.136719 L 606.71875 482.363281 L 597.742188 493.644531 L 594.292969 498.015625 C 593.832031 498.476562 593.140625 498.476562 592.679688 498.246094 C 592.449219 498.015625 592.449219 497.785156 592.21875 497.554688 L 588.996094 486.738281 L 586.695312 478.914062 L 584.394531 471.085938 L 564.140625 402.496094 C 563.910156 401.808594 564.371094 401.117188 564.832031 401.117188 C 565.058594 401.117188 565.289062 401.117188 565.519531 401.117188 L 573.804688 403.648438 L 584.164062 406.640625 L 588.765625 408.023438 L 606.488281 413.316406 L 606.71875 413.316406 L 609.023438 414.007812 L 611.324219 414.695312 L 660.578125 429.195312 C 661.269531 429.425781 661.5 430.117188 661.269531 430.578125 C 661.269531 430.808594 661.039062 431.039062 660.808594 431.269531 L 636.410156 450.832031 C 635.261719 451.753906 634.339844 453.132812 634.339844 454.746094 C 634.109375 456.355469 634.570312 457.738281 635.492188 458.886719 C 635.722656 459.117188 635.722656 459.117188 635.953125 459.347656 L 672.316406 495.714844 C 673.46875 496.636719 673.46875 497.324219 673.007812 497.785156 Z M 400.722656 126.761719 C 391.054688 127.21875 382.078125 131.59375 375.863281 138.957031 C 364.585938 151.386719 363.664062 169.570312 373.101562 183.152344 C 374.714844 185.453125 376.324219 187.753906 377.9375 189.824219 C 380.699219 193.738281 383.691406 197.882812 386.453125 201.792969 L 391.976562 209.390625 L 397.960938 217.90625 C 399.109375 219.746094 400.722656 220.4375 402.332031 220.667969 C 403.945312 220.667969 405.324219 219.746094 406.707031 217.90625 L 407.167969 217.445312 C 409.46875 214.222656 411.769531 211 414.070312 207.777344 C 416.605469 204.09375 419.367188 200.414062 421.898438 196.730469 C 424.660156 193.046875 427.191406 189.363281 429.953125 185.683594 C 431.566406 183.609375 432.714844 181.539062 433.867188 179.238281 C 438.007812 171.183594 439.160156 162.894531 436.859375 153.917969 C 432.945312 137.578125 418.445312 126.761719 400.722656 126.761719 Z M 428.800781 179.007812 C 428.113281 180.160156 427.191406 181.539062 426.269531 182.691406 C 423.507812 186.371094 420.976562 190.054688 418.214844 193.738281 C 415.453125 197.421875 412.921875 201.332031 410.160156 205.015625 C 407.859375 208.238281 405.554688 211.460938 403.253906 214.914062 L 403.023438 215.144531 C 402.792969 215.605469 402.5625 215.835938 402.332031 215.835938 C 402.101562 215.835938 402.101562 215.605469 401.644531 215.144531 L 395.199219 206.167969 L 390.136719 199.03125 C 387.371094 195.347656 384.839844 191.667969 382.078125 187.753906 C 380.238281 185.222656 378.394531 182.691406 376.554688 180.160156 C 368.269531 168.191406 369.191406 152.539062 378.855469 141.492188 C 384.152344 135.277344 391.976562 131.363281 400.261719 130.902344 C 415.683594 130.902344 428.574219 140.339844 432.023438 154.609375 C 434.558594 163.355469 433.40625 171.183594 428.800781 179.007812 Z M 247.433594 237.929688 L 252.496094 237.929688 C 256.410156 237.699219 260.320312 236.320312 263.3125 233.558594 L 263.542969 233.328125 C 265.386719 231.714844 266.765625 229.875 267.6875 227.574219 C 267.917969 226.882812 268.378906 226.191406 268.609375 225.269531 L 269.988281 219.746094 L 272.289062 211.230469 L 288.171875 152.308594 C 289.09375 148.625 288.632812 144.941406 286.5625 142.410156 C 284.949219 140.339844 282.648438 138.957031 279.886719 138.5 L 281.035156 134.355469 C 282.1875 129.753906 281.496094 125.378906 278.964844 122.15625 C 277.355469 120.085938 275.050781 118.472656 272.289062 117.785156 C 271.601562 117.554688 270.679688 117.324219 269.988281 117.324219 C 269.527344 117.324219 268.835938 117.324219 268.378906 117.324219 L 235.925781 117.324219 C 226.488281 117.785156 218.433594 124.226562 215.898438 133.203125 L 214.519531 138.269531 L 152.835938 138.269531 C 145.46875 138.730469 139.023438 143.792969 136.722656 150.925781 L 117.390625 223.429688 L 117.160156 224.121094 C 116.46875 226.652344 116.46875 229.183594 117.390625 231.253906 C 117.847656 232.175781 118.308594 233.097656 118.769531 234.015625 C 120.839844 236.550781 123.832031 237.929688 127.285156 237.929688 L 147.769531 237.929688 C 147.769531 237.929688 148 237.929688 148 237.929688 Z M 215.667969 152.308594 L 217.742188 144.941406 L 218.203125 142.871094 L 218.890625 140.570312 L 219.582031 138.269531 L 220.503906 134.355469 C 222.574219 127.21875 229.019531 122.15625 236.382812 121.925781 L 254.335938 121.925781 C 257.328125 121.925781 259.863281 123.078125 261.242188 124.917969 C 262.855469 126.992188 263.3125 129.980469 262.394531 133.203125 L 261.011719 138.269531 L 260.78125 138.730469 L 260.320312 140.570312 L 260.320312 141.03125 L 259.863281 142.871094 L 259.863281 143.101562 L 259.171875 145.402344 L 258.25 147.707031 L 257.328125 151.15625 C 257.328125 151.15625 257.328125 151.15625 257.328125 151.386719 C 256.871094 153 256.179688 154.378906 255.257812 155.761719 C 253.878906 158.0625 252.035156 159.671875 249.734375 161.054688 C 249.042969 161.515625 248.121094 161.976562 247.433594 162.207031 C 246.742188 162.4375 246.050781 162.664062 245.359375 162.894531 C 245.359375 162.894531 245.359375 162.894531 245.128906 162.894531 C 243.980469 163.125 242.828125 163.355469 241.449219 163.585938 L 223.726562 163.585938 C 220.734375 163.585938 218.203125 162.4375 216.820312 160.59375 C 215.210938 158.292969 214.980469 155.53125 215.667969 152.308594 Z M 148.691406 144.023438 C 150.074219 143.332031 151.453125 143.101562 153.066406 142.871094 L 213.597656 142.871094 L 213.136719 144.714844 L 211.527344 150.925781 C 210.375 155.53125 211.066406 159.902344 213.597656 163.125 C 215.898438 166.347656 219.8125 167.960938 224.1875 167.960938 L 230.628906 167.960938 L 205.082031 186.832031 L 203.011719 188.445312 L 201.167969 189.824219 L 197.488281 192.585938 C 193.804688 195.347656 189.660156 196.5 186.4375 196.039062 C 184.136719 195.578125 182.066406 194.429688 180.683594 192.355469 L 179.535156 190.746094 L 178.152344 188.90625 L 176.773438 187.0625 L 159.277344 161.746094 L 157.667969 159.214844 L 155.828125 156.679688 L 147.3125 144.484375 L 146.851562 144.023438 Z M 120.382812 233.328125 Z M 121.761719 225.269531 L 141.328125 152.308594 C 141.785156 150.46875 142.707031 148.855469 143.859375 147.476562 L 154.214844 162.4375 L 155.828125 164.96875 L 157.4375 167.5 L 172.859375 189.59375 L 145.929688 210.308594 L 142.9375 212.613281 L 139.945312 214.914062 L 121.300781 229.183594 C 121.300781 228.261719 121.300781 226.882812 121.761719 225.269531 Z M 237.074219 231.945312 C 235.464844 232.867188 233.621094 233.328125 231.78125 233.328125 L 127.515625 233.328125 C 127.054688 233.328125 126.597656 233.328125 126.136719 233.097656 L 124.292969 233.097656 L 124.753906 232.636719 L 138.335938 222.046875 L 144.320312 217.445312 L 175.851562 193.046875 L 176.773438 194.429688 C 178.84375 197.421875 181.835938 199.492188 185.519531 199.953125 C 186.207031 200.183594 187.128906 200.183594 188.050781 200.183594 C 191.960938 200.183594 196.335938 198.570312 200.25 195.808594 L 204.160156 192.816406 L 238.226562 231.023438 L 238.6875 231.714844 Z M 241.679688 228.03125 L 207.84375 190.515625 L 238.226562 168.191406 L 256.410156 168.191406 C 257.328125 168.191406 258.019531 167.960938 258.941406 167.960938 L 249.964844 201.332031 L 247.664062 209.851562 L 245.359375 218.367188 L 243.75 224.121094 C 243.289062 225.5 242.597656 226.882812 241.679688 228.03125 Z M 241.679688 228.03125 " fill-opacity="1" fill-rule="nonzero"/></g></svg>