<svg xmlns="http://www.w3.org/2000/svg" xmlns:xlink="http://www.w3.org/1999/xlink" width="1024" zoomAndPan="magnify" viewBox="0 0 768 767.999994" height="1024" preserveAspectRatio="xMidYMid meet" version="1.0"><path fill="#155dfb" d="M 647.574219 226.125 C 565.59375 144.160156 445.890625 115.175781 335.089844 150.507812 C 316.457031 156.457031 298.363281 164.203125 281.308594 173.523438 L 302.585938 212.464844 C 317.171875 204.5 332.640625 197.878906 348.589844 192.789062 C 443.472656 162.546875 545.992188 187.316406 616.191406 257.503906 C 719.210938 360.535156 719.210938 528.171875 616.191406 631.203125 C 513.152344 734.234375 345.511719 734.210938 242.492188 631.203125 C 192.671875 581.382812 165.230469 515.019531 165.230469 444.351562 C 165.230469 381.160156 187.234375 321.445312 227.5 273.890625 L 259.597656 305.984375 C 269.6875 316.074219 271.460938 331.726562 264.050781 343.917969 C 218.8125 418.351562 228.25 516.910156 292.519531 581.179688 C 330.234375 618.894531 379.785156 637.757812 429.34375 637.757812 C 478.898438 637.757812 528.4375 618.894531 566.164062 581.179688 C 641.609375 505.722656 641.609375 382.964844 566.164062 307.53125 C 511.113281 252.46875 428.832031 235.824219 356.53125 265.082031 L 373.171875 306.210938 C 428.910156 283.640625 492.359375 296.492188 534.789062 338.910156 C 592.925781 397.050781 592.925781 491.652344 534.789062 549.804688 C 476.625 607.941406 382.035156 607.921875 323.894531 549.804688 C 282.738281 508.648438 270.820312 449.269531 287.972656 397.460938 C 295.175781 375.710938 322.832031 369.226562 339.03125 385.429688 L 360.53125 406.925781 C 344.378906 436.644531 348.8125 474.671875 373.917969 499.777344 C 389.195312 515.054688 409.269531 522.703125 429.335938 522.703125 C 449.40625 522.703125 469.480469 515.054688 484.757812 499.777344 C 515.3125 469.21875 515.3125 419.5 484.769531 388.945312 L 484.757812 388.945312 C 469.957031 374.132812 450.269531 365.984375 429.335938 365.984375 C 416.023438 365.984375 403.234375 369.308594 391.875 375.507812 L 236.472656 220.109375 L 267.753906 148.457031 C 271.40625 140.09375 269.558594 130.34375 263.109375 123.890625 L 161.625 22.398438 C 156.445312 17.207031 149.046875 14.910156 141.804688 16.289062 C 134.601562 17.640625 128.535156 22.484375 125.597656 29.210938 L 91.746094 106.753906 L 14.203125 140.605469 C 7.476562 143.542969 2.632812 149.609375 1.277344 156.828125 C -0.0859375 164.03125 2.199219 171.445312 7.390625 176.632812 L 108.878906 278.125 C 113.128906 282.371094 118.804688 284.628906 124.570312 284.628906 C 127.570312 284.628906 130.59375 284.019531 133.445312 282.773438 L 180.03125 262.433594 C 141.628906 314.882812 120.859375 377.984375 120.851562 444.359375 C 120.851562 526.886719 152.914062 604.390625 211.117188 662.582031 C 271.285156 722.75 350.304688 752.828125 429.34375 752.828125 C 508.382812 752.828125 587.40625 722.75 647.570312 662.582031 C 767.902344 542.25 767.894531 346.453125 647.570312 226.128906 Z M 153.25 76.789062 L 221.03125 144.574219 L 202.773438 186.402344 L 134.988281 118.617188 Z M 61.78125 168.257812 L 103.601562 150 L 171.386719 217.785156 L 129.5625 236.042969 Z M 61.78125 168.257812 " fill-opacity="1" fill-rule="nonzero"/></svg>